<?xml version="1.0" encoding="utf-8"?>
<svg xmlns="http://www.w3.org/2000/svg" xmlns:xlink="http://www.w3.org/1999/xlink" width="600" height="400" viewBox="0 0 2400 1600">
<defs>
  <clipPath id="clip520">
    <rect x="0" y="0" width="2400" height="1600"/>
  </clipPath>
</defs>
<path clip-path="url(#clip520)" d="M0 1600 L2400 1600 L2400 0 L0 0  Z" fill="#ffffff" fill-rule="evenodd" fill-opacity="1"/>
<defs>
  <clipPath id="clip521">
    <rect x="480" y="0" width="1681" height="1600"/>
  </clipPath>
</defs>
<path clip-path="url(#clip520)" d="M175.445 1423.18 L2352.76 1423.18 L2352.76 47.2441 L175.445 47.2441  Z" fill="#ffffff" fill-rule="evenodd" fill-opacity="1"/>
<defs>
  <clipPath id="clip522">
    <rect x="175" y="47" width="2178" height="1377"/>
  </clipPath>
</defs>
<polyline clip-path="url(#clip522)" style="stroke:#000000; stroke-linecap:round; stroke-linejoin:round; stroke-width:2; stroke-opacity:0.1; fill:none" points="530.505,1423.18 530.505,47.2441 "/>
<polyline clip-path="url(#clip522)" style="stroke:#000000; stroke-linecap:round; stroke-linejoin:round; stroke-width:2; stroke-opacity:0.1; fill:none" points="897.303,1423.18 897.303,47.2441 "/>
<polyline clip-path="url(#clip522)" style="stroke:#000000; stroke-linecap:round; stroke-linejoin:round; stroke-width:2; stroke-opacity:0.1; fill:none" points="1264.1,1423.18 1264.1,47.2441 "/>
<polyline clip-path="url(#clip522)" style="stroke:#000000; stroke-linecap:round; stroke-linejoin:round; stroke-width:2; stroke-opacity:0.1; fill:none" points="1630.9,1423.18 1630.9,47.2441 "/>
<polyline clip-path="url(#clip522)" style="stroke:#000000; stroke-linecap:round; stroke-linejoin:round; stroke-width:2; stroke-opacity:0.1; fill:none" points="1997.7,1423.18 1997.7,47.2441 "/>
<polyline clip-path="url(#clip520)" style="stroke:#000000; stroke-linecap:round; stroke-linejoin:round; stroke-width:4; stroke-opacity:1; fill:none" points="175.445,1423.18 2352.76,1423.18 "/>
<polyline clip-path="url(#clip520)" style="stroke:#000000; stroke-linecap:round; stroke-linejoin:round; stroke-width:4; stroke-opacity:1; fill:none" points="530.505,1423.18 530.505,1404.28 "/>
<polyline clip-path="url(#clip520)" style="stroke:#000000; stroke-linecap:round; stroke-linejoin:round; stroke-width:4; stroke-opacity:1; fill:none" points="897.303,1423.18 897.303,1404.28 "/>
<polyline clip-path="url(#clip520)" style="stroke:#000000; stroke-linecap:round; stroke-linejoin:round; stroke-width:4; stroke-opacity:1; fill:none" points="1264.1,1423.18 1264.1,1404.28 "/>
<polyline clip-path="url(#clip520)" style="stroke:#000000; stroke-linecap:round; stroke-linejoin:round; stroke-width:4; stroke-opacity:1; fill:none" points="1630.9,1423.18 1630.9,1404.28 "/>
<polyline clip-path="url(#clip520)" style="stroke:#000000; stroke-linecap:round; stroke-linejoin:round; stroke-width:4; stroke-opacity:1; fill:none" points="1997.7,1423.18 1997.7,1404.28 "/>
<path clip-path="url(#clip520)" d="M490.124 1451.02 L508.48 1451.02 L508.48 1454.96 L494.406 1454.96 L494.406 1463.43 Q495.424 1463.08 496.443 1462.92 Q497.462 1462.73 498.48 1462.73 Q504.267 1462.73 507.647 1465.9 Q511.026 1469.08 511.026 1474.49 Q511.026 1480.07 507.554 1483.17 Q504.082 1486.25 497.762 1486.25 Q495.587 1486.25 493.318 1485.88 Q491.073 1485.51 488.665 1484.77 L488.665 1480.07 Q490.749 1481.2 492.971 1481.76 Q495.193 1482.32 497.67 1482.32 Q501.674 1482.32 504.012 1480.21 Q506.35 1478.1 506.35 1474.49 Q506.35 1470.88 504.012 1468.77 Q501.674 1466.67 497.67 1466.67 Q495.795 1466.67 493.92 1467.08 Q492.068 1467.5 490.124 1468.38 L490.124 1451.02 Z" fill="#000000" fill-rule="nonzero" fill-opacity="1" /><path clip-path="url(#clip520)" d="M530.239 1454.1 Q526.628 1454.1 524.799 1457.66 Q522.994 1461.2 522.994 1468.33 Q522.994 1475.44 524.799 1479.01 Q526.628 1482.55 530.239 1482.55 Q533.873 1482.55 535.679 1479.01 Q537.508 1475.44 537.508 1468.33 Q537.508 1461.2 535.679 1457.66 Q533.873 1454.1 530.239 1454.1 M530.239 1450.39 Q536.049 1450.39 539.105 1455 Q542.183 1459.58 542.183 1468.33 Q542.183 1477.06 539.105 1481.67 Q536.049 1486.25 530.239 1486.25 Q524.429 1486.25 521.35 1481.67 Q518.295 1477.06 518.295 1468.33 Q518.295 1459.58 521.35 1455 Q524.429 1450.39 530.239 1450.39 Z" fill="#000000" fill-rule="nonzero" fill-opacity="1" /><path clip-path="url(#clip520)" d="M560.401 1454.1 Q556.79 1454.1 554.961 1457.66 Q553.156 1461.2 553.156 1468.33 Q553.156 1475.44 554.961 1479.01 Q556.79 1482.55 560.401 1482.55 Q564.035 1482.55 565.841 1479.01 Q567.669 1475.44 567.669 1468.33 Q567.669 1461.2 565.841 1457.66 Q564.035 1454.1 560.401 1454.1 M560.401 1450.39 Q566.211 1450.39 569.267 1455 Q572.345 1459.58 572.345 1468.33 Q572.345 1477.06 569.267 1481.67 Q566.211 1486.25 560.401 1486.25 Q554.591 1486.25 551.512 1481.67 Q548.457 1477.06 548.457 1468.33 Q548.457 1459.58 551.512 1455 Q554.591 1450.39 560.401 1450.39 Z" fill="#000000" fill-rule="nonzero" fill-opacity="1" /><path clip-path="url(#clip520)" d="M841.829 1481.64 L849.468 1481.64 L849.468 1455.28 L841.157 1456.95 L841.157 1452.69 L849.421 1451.02 L854.097 1451.02 L854.097 1481.64 L861.736 1481.64 L861.736 1485.58 L841.829 1485.58 L841.829 1481.64 Z" fill="#000000" fill-rule="nonzero" fill-opacity="1" /><path clip-path="url(#clip520)" d="M881.18 1454.1 Q877.569 1454.1 875.741 1457.66 Q873.935 1461.2 873.935 1468.33 Q873.935 1475.44 875.741 1479.01 Q877.569 1482.55 881.18 1482.55 Q884.815 1482.55 886.62 1479.01 Q888.449 1475.44 888.449 1468.33 Q888.449 1461.2 886.62 1457.66 Q884.815 1454.1 881.18 1454.1 M881.18 1450.39 Q886.99 1450.39 890.046 1455 Q893.125 1459.58 893.125 1468.33 Q893.125 1477.06 890.046 1481.67 Q886.99 1486.25 881.18 1486.25 Q875.37 1486.25 872.291 1481.67 Q869.236 1477.06 869.236 1468.33 Q869.236 1459.58 872.291 1455 Q875.37 1450.39 881.18 1450.39 Z" fill="#000000" fill-rule="nonzero" fill-opacity="1" /><path clip-path="url(#clip520)" d="M911.342 1454.1 Q907.731 1454.1 905.902 1457.66 Q904.097 1461.2 904.097 1468.33 Q904.097 1475.44 905.902 1479.01 Q907.731 1482.55 911.342 1482.55 Q914.976 1482.55 916.782 1479.01 Q918.611 1475.44 918.611 1468.33 Q918.611 1461.2 916.782 1457.66 Q914.976 1454.1 911.342 1454.1 M911.342 1450.39 Q917.152 1450.39 920.208 1455 Q923.287 1459.58 923.287 1468.33 Q923.287 1477.06 920.208 1481.67 Q917.152 1486.25 911.342 1486.25 Q905.532 1486.25 902.453 1481.67 Q899.398 1477.06 899.398 1468.33 Q899.398 1459.58 902.453 1455 Q905.532 1450.39 911.342 1450.39 Z" fill="#000000" fill-rule="nonzero" fill-opacity="1" /><path clip-path="url(#clip520)" d="M941.504 1454.1 Q937.893 1454.1 936.064 1457.66 Q934.259 1461.2 934.259 1468.33 Q934.259 1475.44 936.064 1479.01 Q937.893 1482.55 941.504 1482.55 Q945.138 1482.55 946.944 1479.01 Q948.773 1475.44 948.773 1468.33 Q948.773 1461.2 946.944 1457.66 Q945.138 1454.1 941.504 1454.1 M941.504 1450.39 Q947.314 1450.39 950.37 1455 Q953.448 1459.58 953.448 1468.33 Q953.448 1477.06 950.37 1481.67 Q947.314 1486.25 941.504 1486.25 Q935.694 1486.25 932.615 1481.67 Q929.56 1477.06 929.56 1468.33 Q929.56 1459.58 932.615 1455 Q935.694 1450.39 941.504 1450.39 Z" fill="#000000" fill-rule="nonzero" fill-opacity="1" /><path clip-path="url(#clip520)" d="M1208.63 1481.64 L1216.27 1481.64 L1216.27 1455.28 L1207.96 1456.95 L1207.96 1452.69 L1216.22 1451.02 L1220.89 1451.02 L1220.89 1481.64 L1228.53 1481.64 L1228.53 1485.58 L1208.63 1485.58 L1208.63 1481.64 Z" fill="#000000" fill-rule="nonzero" fill-opacity="1" /><path clip-path="url(#clip520)" d="M1238.02 1451.02 L1256.38 1451.02 L1256.38 1454.96 L1242.31 1454.96 L1242.31 1463.43 Q1243.33 1463.08 1244.34 1462.92 Q1245.36 1462.73 1246.38 1462.73 Q1252.17 1462.73 1255.55 1465.9 Q1258.93 1469.08 1258.93 1474.49 Q1258.93 1480.07 1255.45 1483.17 Q1251.98 1486.25 1245.66 1486.25 Q1243.49 1486.25 1241.22 1485.88 Q1238.97 1485.51 1236.57 1484.77 L1236.57 1480.07 Q1238.65 1481.2 1240.87 1481.76 Q1243.09 1482.32 1245.57 1482.32 Q1249.58 1482.32 1251.91 1480.21 Q1254.25 1478.1 1254.25 1474.49 Q1254.25 1470.88 1251.91 1468.77 Q1249.58 1466.67 1245.57 1466.67 Q1243.7 1466.67 1241.82 1467.08 Q1239.97 1467.5 1238.02 1468.38 L1238.02 1451.02 Z" fill="#000000" fill-rule="nonzero" fill-opacity="1" /><path clip-path="url(#clip520)" d="M1278.14 1454.1 Q1274.53 1454.1 1272.7 1457.66 Q1270.89 1461.2 1270.89 1468.33 Q1270.89 1475.44 1272.7 1479.01 Q1274.53 1482.55 1278.14 1482.55 Q1281.77 1482.55 1283.58 1479.01 Q1285.41 1475.44 1285.41 1468.33 Q1285.41 1461.2 1283.58 1457.66 Q1281.77 1454.1 1278.14 1454.1 M1278.14 1450.39 Q1283.95 1450.39 1287.01 1455 Q1290.08 1459.58 1290.08 1468.33 Q1290.08 1477.06 1287.01 1481.67 Q1283.95 1486.25 1278.14 1486.25 Q1272.33 1486.25 1269.25 1481.67 Q1266.2 1477.06 1266.2 1468.33 Q1266.2 1459.58 1269.25 1455 Q1272.33 1450.39 1278.14 1450.39 Z" fill="#000000" fill-rule="nonzero" fill-opacity="1" /><path clip-path="url(#clip520)" d="M1308.3 1454.1 Q1304.69 1454.1 1302.86 1457.66 Q1301.06 1461.2 1301.06 1468.33 Q1301.06 1475.44 1302.86 1479.01 Q1304.69 1482.55 1308.3 1482.55 Q1311.94 1482.55 1313.74 1479.01 Q1315.57 1475.44 1315.57 1468.33 Q1315.57 1461.2 1313.74 1457.66 Q1311.94 1454.1 1308.3 1454.1 M1308.3 1450.39 Q1314.11 1450.39 1317.17 1455 Q1320.25 1459.58 1320.25 1468.33 Q1320.25 1477.06 1317.17 1481.67 Q1314.11 1486.25 1308.3 1486.25 Q1302.49 1486.25 1299.41 1481.67 Q1296.36 1477.06 1296.36 1468.33 Q1296.36 1459.58 1299.41 1455 Q1302.49 1450.39 1308.3 1450.39 Z" fill="#000000" fill-rule="nonzero" fill-opacity="1" /><path clip-path="url(#clip520)" d="M1579.51 1481.64 L1595.83 1481.64 L1595.83 1485.58 L1573.88 1485.58 L1573.88 1481.64 Q1576.55 1478.89 1581.13 1474.26 Q1585.74 1469.61 1586.92 1468.27 Q1589.16 1465.74 1590.04 1464.01 Q1590.94 1462.25 1590.94 1460.56 Q1590.94 1457.8 1589 1456.07 Q1587.08 1454.33 1583.98 1454.33 Q1581.78 1454.33 1579.32 1455.09 Q1576.89 1455.86 1574.12 1457.41 L1574.12 1452.69 Q1576.94 1451.55 1579.39 1450.97 Q1581.85 1450.39 1583.88 1450.39 Q1589.25 1450.39 1592.45 1453.08 Q1595.64 1455.77 1595.64 1460.26 Q1595.64 1462.39 1594.83 1464.31 Q1594.05 1466.2 1591.94 1468.8 Q1591.36 1469.47 1588.26 1472.69 Q1585.16 1475.88 1579.51 1481.64 Z" fill="#000000" fill-rule="nonzero" fill-opacity="1" /><path clip-path="url(#clip520)" d="M1615.64 1454.1 Q1612.03 1454.1 1610.2 1457.66 Q1608.4 1461.2 1608.4 1468.33 Q1608.4 1475.44 1610.2 1479.01 Q1612.03 1482.55 1615.64 1482.55 Q1619.28 1482.55 1621.08 1479.01 Q1622.91 1475.44 1622.91 1468.33 Q1622.91 1461.2 1621.08 1457.66 Q1619.28 1454.1 1615.64 1454.1 M1615.64 1450.39 Q1621.45 1450.39 1624.51 1455 Q1627.59 1459.58 1627.59 1468.33 Q1627.59 1477.06 1624.51 1481.67 Q1621.45 1486.25 1615.64 1486.25 Q1609.83 1486.25 1606.75 1481.67 Q1603.7 1477.06 1603.7 1468.33 Q1603.7 1459.58 1606.75 1455 Q1609.83 1450.39 1615.64 1450.39 Z" fill="#000000" fill-rule="nonzero" fill-opacity="1" /><path clip-path="url(#clip520)" d="M1645.81 1454.1 Q1642.19 1454.1 1640.37 1457.66 Q1638.56 1461.2 1638.56 1468.33 Q1638.56 1475.44 1640.37 1479.01 Q1642.19 1482.55 1645.81 1482.55 Q1649.44 1482.55 1651.25 1479.01 Q1653.07 1475.44 1653.07 1468.33 Q1653.07 1461.2 1651.25 1457.66 Q1649.44 1454.1 1645.81 1454.1 M1645.81 1450.39 Q1651.62 1450.39 1654.67 1455 Q1657.75 1459.58 1657.75 1468.33 Q1657.75 1477.06 1654.67 1481.67 Q1651.62 1486.25 1645.81 1486.25 Q1640 1486.25 1636.92 1481.67 Q1633.86 1477.06 1633.86 1468.33 Q1633.86 1459.58 1636.92 1455 Q1640 1450.39 1645.81 1450.39 Z" fill="#000000" fill-rule="nonzero" fill-opacity="1" /><path clip-path="url(#clip520)" d="M1675.97 1454.1 Q1672.36 1454.1 1670.53 1457.66 Q1668.72 1461.2 1668.72 1468.33 Q1668.72 1475.44 1670.53 1479.01 Q1672.36 1482.55 1675.97 1482.55 Q1679.6 1482.55 1681.41 1479.01 Q1683.24 1475.44 1683.24 1468.33 Q1683.24 1461.2 1681.41 1457.66 Q1679.6 1454.1 1675.97 1454.1 M1675.97 1450.39 Q1681.78 1450.39 1684.83 1455 Q1687.91 1459.58 1687.91 1468.33 Q1687.91 1477.06 1684.83 1481.67 Q1681.78 1486.25 1675.97 1486.25 Q1670.16 1486.25 1667.08 1481.67 Q1664.02 1477.06 1664.02 1468.33 Q1664.02 1459.58 1667.08 1455 Q1670.16 1450.39 1675.97 1450.39 Z" fill="#000000" fill-rule="nonzero" fill-opacity="1" /><path clip-path="url(#clip520)" d="M1946.31 1481.64 L1962.63 1481.64 L1962.63 1485.58 L1940.68 1485.58 L1940.68 1481.64 Q1943.34 1478.89 1947.93 1474.26 Q1952.53 1469.61 1953.71 1468.27 Q1955.96 1465.74 1956.84 1464.01 Q1957.74 1462.25 1957.74 1460.56 Q1957.74 1457.8 1955.8 1456.07 Q1953.88 1454.33 1950.77 1454.33 Q1948.58 1454.33 1946.12 1455.09 Q1943.69 1455.86 1940.91 1457.41 L1940.91 1452.69 Q1943.74 1451.55 1946.19 1450.97 Q1948.65 1450.39 1950.68 1450.39 Q1956.05 1450.39 1959.25 1453.08 Q1962.44 1455.77 1962.44 1460.26 Q1962.44 1462.39 1961.63 1464.31 Q1960.84 1466.2 1958.74 1468.8 Q1958.16 1469.47 1955.06 1472.69 Q1951.96 1475.88 1946.31 1481.64 Z" fill="#000000" fill-rule="nonzero" fill-opacity="1" /><path clip-path="url(#clip520)" d="M1972.49 1451.02 L1990.84 1451.02 L1990.84 1454.96 L1976.77 1454.96 L1976.77 1463.43 Q1977.79 1463.08 1978.81 1462.92 Q1979.83 1462.73 1980.84 1462.73 Q1986.63 1462.73 1990.01 1465.9 Q1993.39 1469.08 1993.39 1474.49 Q1993.39 1480.07 1989.92 1483.17 Q1986.45 1486.25 1980.13 1486.25 Q1977.95 1486.25 1975.68 1485.88 Q1973.44 1485.51 1971.03 1484.77 L1971.03 1480.07 Q1973.11 1481.2 1975.33 1481.76 Q1977.56 1482.32 1980.03 1482.32 Q1984.04 1482.32 1986.38 1480.21 Q1988.71 1478.1 1988.71 1474.49 Q1988.71 1470.88 1986.38 1468.77 Q1984.04 1466.67 1980.03 1466.67 Q1978.16 1466.67 1976.28 1467.08 Q1974.43 1467.5 1972.49 1468.38 L1972.49 1451.02 Z" fill="#000000" fill-rule="nonzero" fill-opacity="1" /><path clip-path="url(#clip520)" d="M2012.6 1454.1 Q2008.99 1454.1 2007.16 1457.66 Q2005.36 1461.2 2005.36 1468.33 Q2005.36 1475.44 2007.16 1479.01 Q2008.99 1482.55 2012.6 1482.55 Q2016.24 1482.55 2018.04 1479.01 Q2019.87 1475.44 2019.87 1468.33 Q2019.87 1461.2 2018.04 1457.66 Q2016.24 1454.1 2012.6 1454.1 M2012.6 1450.39 Q2018.41 1450.39 2021.47 1455 Q2024.55 1459.58 2024.55 1468.33 Q2024.55 1477.06 2021.47 1481.67 Q2018.41 1486.25 2012.6 1486.25 Q2006.79 1486.25 2003.71 1481.67 Q2000.66 1477.06 2000.66 1468.33 Q2000.66 1459.58 2003.71 1455 Q2006.79 1450.39 2012.6 1450.39 Z" fill="#000000" fill-rule="nonzero" fill-opacity="1" /><path clip-path="url(#clip520)" d="M2042.77 1454.1 Q2039.15 1454.1 2037.33 1457.66 Q2035.52 1461.2 2035.52 1468.33 Q2035.52 1475.44 2037.33 1479.01 Q2039.15 1482.55 2042.77 1482.55 Q2046.4 1482.55 2048.2 1479.01 Q2050.03 1475.44 2050.03 1468.33 Q2050.03 1461.2 2048.2 1457.66 Q2046.4 1454.1 2042.77 1454.1 M2042.77 1450.39 Q2048.58 1450.39 2051.63 1455 Q2054.71 1459.58 2054.71 1468.33 Q2054.71 1477.06 2051.63 1481.67 Q2048.58 1486.25 2042.77 1486.25 Q2036.95 1486.25 2033.88 1481.67 Q2030.82 1477.06 2030.82 1468.33 Q2030.82 1459.58 2033.88 1455 Q2036.95 1450.39 2042.77 1450.39 Z" fill="#000000" fill-rule="nonzero" fill-opacity="1" /><path clip-path="url(#clip520)" d="M1246.12 1520.52 L1254.77 1520.52 L1275.85 1560.28 L1275.85 1520.52 L1282.08 1520.52 L1282.08 1568.04 L1273.43 1568.04 L1252.36 1528.29 L1252.36 1568.04 L1246.12 1568.04 L1246.12 1520.52 Z" fill="#000000" fill-rule="nonzero" fill-opacity="1" /><polyline clip-path="url(#clip522)" style="stroke:#000000; stroke-linecap:round; stroke-linejoin:round; stroke-width:2; stroke-opacity:0.1; fill:none" points="175.445,1385.5 2352.76,1385.5 "/>
<polyline clip-path="url(#clip522)" style="stroke:#000000; stroke-linecap:round; stroke-linejoin:round; stroke-width:2; stroke-opacity:0.1; fill:none" points="175.445,1148.3 2352.76,1148.3 "/>
<polyline clip-path="url(#clip522)" style="stroke:#000000; stroke-linecap:round; stroke-linejoin:round; stroke-width:2; stroke-opacity:0.1; fill:none" points="175.445,911.107 2352.76,911.107 "/>
<polyline clip-path="url(#clip522)" style="stroke:#000000; stroke-linecap:round; stroke-linejoin:round; stroke-width:2; stroke-opacity:0.1; fill:none" points="175.445,673.91 2352.76,673.91 "/>
<polyline clip-path="url(#clip522)" style="stroke:#000000; stroke-linecap:round; stroke-linejoin:round; stroke-width:2; stroke-opacity:0.1; fill:none" points="175.445,436.712 2352.76,436.712 "/>
<polyline clip-path="url(#clip522)" style="stroke:#000000; stroke-linecap:round; stroke-linejoin:round; stroke-width:2; stroke-opacity:0.1; fill:none" points="175.445,199.515 2352.76,199.515 "/>
<polyline clip-path="url(#clip520)" style="stroke:#000000; stroke-linecap:round; stroke-linejoin:round; stroke-width:4; stroke-opacity:1; fill:none" points="175.445,1423.18 175.445,47.2441 "/>
<polyline clip-path="url(#clip520)" style="stroke:#000000; stroke-linecap:round; stroke-linejoin:round; stroke-width:4; stroke-opacity:1; fill:none" points="175.445,1385.5 194.343,1385.5 "/>
<polyline clip-path="url(#clip520)" style="stroke:#000000; stroke-linecap:round; stroke-linejoin:round; stroke-width:4; stroke-opacity:1; fill:none" points="175.445,1148.3 194.343,1148.3 "/>
<polyline clip-path="url(#clip520)" style="stroke:#000000; stroke-linecap:round; stroke-linejoin:round; stroke-width:4; stroke-opacity:1; fill:none" points="175.445,911.107 194.343,911.107 "/>
<polyline clip-path="url(#clip520)" style="stroke:#000000; stroke-linecap:round; stroke-linejoin:round; stroke-width:4; stroke-opacity:1; fill:none" points="175.445,673.91 194.343,673.91 "/>
<polyline clip-path="url(#clip520)" style="stroke:#000000; stroke-linecap:round; stroke-linejoin:round; stroke-width:4; stroke-opacity:1; fill:none" points="175.445,436.712 194.343,436.712 "/>
<polyline clip-path="url(#clip520)" style="stroke:#000000; stroke-linecap:round; stroke-linejoin:round; stroke-width:4; stroke-opacity:1; fill:none" points="175.445,199.515 194.343,199.515 "/>
<path clip-path="url(#clip520)" d="M127.501 1371.3 Q123.89 1371.3 122.061 1374.87 Q120.255 1378.41 120.255 1385.54 Q120.255 1392.64 122.061 1396.21 Q123.89 1399.75 127.501 1399.75 Q131.135 1399.75 132.941 1396.21 Q134.769 1392.64 134.769 1385.54 Q134.769 1378.41 132.941 1374.87 Q131.135 1371.3 127.501 1371.3 M127.501 1367.6 Q133.311 1367.6 136.367 1372.2 Q139.445 1376.79 139.445 1385.54 Q139.445 1394.26 136.367 1398.87 Q133.311 1403.45 127.501 1403.45 Q121.691 1403.45 118.612 1398.87 Q115.556 1394.26 115.556 1385.54 Q115.556 1376.79 118.612 1372.2 Q121.691 1367.6 127.501 1367.6 Z" fill="#000000" fill-rule="nonzero" fill-opacity="1" /><path clip-path="url(#clip520)" d="M119.538 1161.65 L127.177 1161.65 L127.177 1135.28 L118.867 1136.95 L118.867 1132.69 L127.13 1131.02 L131.806 1131.02 L131.806 1161.65 L139.445 1161.65 L139.445 1165.58 L119.538 1165.58 L119.538 1161.65 Z" fill="#000000" fill-rule="nonzero" fill-opacity="1" /><path clip-path="url(#clip520)" d="M123.126 924.452 L139.445 924.452 L139.445 928.387 L117.501 928.387 L117.501 924.452 Q120.163 921.697 124.746 917.068 Q129.353 912.415 130.533 911.072 Q132.779 908.549 133.658 906.813 Q134.561 905.054 134.561 903.364 Q134.561 900.609 132.617 898.873 Q130.695 897.137 127.593 897.137 Q125.394 897.137 122.941 897.901 Q120.51 898.665 117.732 900.216 L117.732 895.494 Q120.556 894.36 123.01 893.781 Q125.464 893.202 127.501 893.202 Q132.871 893.202 136.066 895.887 Q139.26 898.572 139.26 903.063 Q139.26 905.193 138.45 907.114 Q137.663 909.012 135.556 911.605 Q134.978 912.276 131.876 915.494 Q128.774 918.688 123.126 924.452 Z" fill="#000000" fill-rule="nonzero" fill-opacity="1" /><path clip-path="url(#clip520)" d="M132.316 672.555 Q135.672 673.273 137.547 675.542 Q139.445 677.81 139.445 681.143 Q139.445 686.259 135.927 689.06 Q132.408 691.861 125.927 691.861 Q123.751 691.861 121.436 691.421 Q119.144 691.004 116.691 690.148 L116.691 685.634 Q118.635 686.768 120.95 687.347 Q123.265 687.926 125.788 687.926 Q130.186 687.926 132.478 686.19 Q134.792 684.454 134.792 681.143 Q134.792 678.088 132.64 676.375 Q130.51 674.639 126.691 674.639 L122.663 674.639 L122.663 670.796 L126.876 670.796 Q130.325 670.796 132.154 669.43 Q133.982 668.042 133.982 665.449 Q133.982 662.787 132.084 661.375 Q130.209 659.94 126.691 659.94 Q124.769 659.94 122.57 660.356 Q120.371 660.773 117.732 661.653 L117.732 657.486 Q120.394 656.745 122.709 656.375 Q125.047 656.005 127.107 656.005 Q132.431 656.005 135.533 658.435 Q138.635 660.843 138.635 664.963 Q138.635 667.833 136.992 669.824 Q135.348 671.792 132.316 672.555 Z" fill="#000000" fill-rule="nonzero" fill-opacity="1" /><path clip-path="url(#clip520)" d="M129.862 423.506 L118.056 441.955 L129.862 441.955 L129.862 423.506 M128.635 419.432 L134.515 419.432 L134.515 441.955 L139.445 441.955 L139.445 445.844 L134.515 445.844 L134.515 453.992 L129.862 453.992 L129.862 445.844 L114.26 445.844 L114.26 441.33 L128.635 419.432 Z" fill="#000000" fill-rule="nonzero" fill-opacity="1" /><path clip-path="url(#clip520)" d="M118.543 182.235 L136.899 182.235 L136.899 186.17 L122.825 186.17 L122.825 194.642 Q123.843 194.295 124.862 194.133 Q125.88 193.947 126.899 193.947 Q132.686 193.947 136.066 197.119 Q139.445 200.29 139.445 205.707 Q139.445 211.285 135.973 214.387 Q132.501 217.466 126.181 217.466 Q124.005 217.466 121.737 217.096 Q119.492 216.725 117.084 215.984 L117.084 211.285 Q119.168 212.42 121.39 212.975 Q123.612 213.531 126.089 213.531 Q130.093 213.531 132.431 211.424 Q134.769 209.318 134.769 205.707 Q134.769 202.096 132.431 199.989 Q130.093 197.883 126.089 197.883 Q124.214 197.883 122.339 198.299 Q120.487 198.716 118.543 199.596 L118.543 182.235 Z" fill="#000000" fill-rule="nonzero" fill-opacity="1" /><path clip-path="url(#clip520)" d="M18.0438 969.215 L24.314 969.215 Q22.5634 972.876 21.704 976.122 Q20.8447 979.369 20.8447 982.392 Q20.8447 987.644 22.8817 990.509 Q24.9187 993.341 28.6745 993.341 Q31.8255 993.341 33.4488 991.463 Q35.0402 989.554 36.0269 984.27 L36.8226 980.387 Q38.1912 973.194 41.6605 969.788 Q45.098 966.351 50.8908 966.351 Q57.7976 966.351 61.3624 970.998 Q64.9272 975.613 64.9272 984.557 Q64.9272 987.931 64.1633 991.75 Q63.3994 995.538 61.9035 999.612 L55.2831 999.612 Q57.4793 995.697 58.5933 991.941 Q59.7073 988.185 59.7073 984.557 Q59.7073 979.05 57.543 976.058 Q55.3786 973.067 51.3682 973.067 Q47.8671 973.067 45.8937 975.231 Q43.9204 977.363 42.9337 982.265 L42.1698 986.18 Q40.7375 993.373 37.682 996.588 Q34.6264 999.803 29.1837 999.803 Q22.8817 999.803 19.2532 995.378 Q15.6248 990.922 15.6248 983.124 Q15.6248 979.782 16.2295 976.313 Q16.8343 972.844 18.0438 969.215 Z" fill="#000000" fill-rule="nonzero" fill-opacity="1" /><path clip-path="url(#clip520)" d="M32.4621 942.766 Q32.4621 947.476 36.1542 950.214 Q39.8145 952.951 46.212 952.951 Q52.6095 952.951 56.3017 950.246 Q59.9619 947.508 59.9619 942.766 Q59.9619 938.087 56.2698 935.35 Q52.5777 932.613 46.212 932.613 Q39.8781 932.613 36.186 935.35 Q32.4621 938.087 32.4621 942.766 M27.4968 942.766 Q27.4968 935.127 32.4621 930.766 Q37.4273 926.406 46.212 926.406 Q54.9649 926.406 59.9619 930.766 Q64.9272 935.127 64.9272 942.766 Q64.9272 950.437 59.9619 954.797 Q54.9649 959.126 46.212 959.126 Q37.4273 959.126 32.4621 954.797 Q27.4968 950.437 27.4968 942.766 Z" fill="#000000" fill-rule="nonzero" fill-opacity="1" /><path clip-path="url(#clip520)" d="M14.479 916.698 L14.479 910.842 L64.0042 910.842 L64.0042 916.698 L14.479 916.698 Z" fill="#000000" fill-rule="nonzero" fill-opacity="1" /><path clip-path="url(#clip520)" d="M49.9359 899.193 L28.3562 899.193 L28.3562 893.336 L49.7131 893.336 Q54.7739 893.336 57.3202 891.363 Q59.8346 889.389 59.8346 885.443 Q59.8346 880.7 56.8109 877.963 Q53.7872 875.194 48.5673 875.194 L28.3562 875.194 L28.3562 869.337 L64.0042 869.337 L64.0042 875.194 L58.5296 875.194 Q61.7762 877.326 63.3676 880.159 Q64.9272 882.96 64.9272 886.684 Q64.9272 892.827 61.1078 896.01 Q57.2883 899.193 49.9359 899.193 M27.4968 884.456 L27.4968 884.456 Z" fill="#000000" fill-rule="nonzero" fill-opacity="1" /><path clip-path="url(#clip520)" d="M18.2347 851.482 L28.3562 851.482 L28.3562 839.419 L32.9077 839.419 L32.9077 851.482 L52.2594 851.482 Q56.6199 851.482 57.8613 850.304 Q59.1026 849.094 59.1026 845.434 L59.1026 839.419 L64.0042 839.419 L64.0042 845.434 Q64.0042 852.214 61.4897 854.792 Q58.9434 857.37 52.2594 857.37 L32.9077 857.37 L32.9077 861.667 L28.3562 861.667 L28.3562 857.37 L18.2347 857.37 L18.2347 851.482 Z" fill="#000000" fill-rule="nonzero" fill-opacity="1" /><path clip-path="url(#clip520)" d="M28.3562 831.716 L28.3562 825.86 L64.0042 825.86 L64.0042 831.716 L28.3562 831.716 M14.479 831.716 L14.479 825.86 L21.895 825.86 L21.895 831.716 L14.479 831.716 Z" fill="#000000" fill-rule="nonzero" fill-opacity="1" /><path clip-path="url(#clip520)" d="M32.4621 799.792 Q32.4621 804.503 36.1542 807.24 Q39.8145 809.977 46.212 809.977 Q52.6095 809.977 56.3017 807.272 Q59.9619 804.535 59.9619 799.792 Q59.9619 795.113 56.2698 792.376 Q52.5777 789.639 46.212 789.639 Q39.8781 789.639 36.186 792.376 Q32.4621 795.113 32.4621 799.792 M27.4968 799.792 Q27.4968 792.153 32.4621 787.793 Q37.4273 783.432 46.212 783.432 Q54.9649 783.432 59.9619 787.793 Q64.9272 792.153 64.9272 799.792 Q64.9272 807.463 59.9619 811.823 Q54.9649 816.152 46.212 816.152 Q37.4273 816.152 32.4621 811.823 Q27.4968 807.463 27.4968 799.792 Z" fill="#000000" fill-rule="nonzero" fill-opacity="1" /><path clip-path="url(#clip520)" d="M42.4881 744.092 L64.0042 744.092 L64.0042 749.949 L42.679 749.949 Q37.6183 749.949 35.1038 751.922 Q32.5894 753.895 32.5894 757.842 Q32.5894 762.585 35.6131 765.322 Q38.6368 768.059 43.8567 768.059 L64.0042 768.059 L64.0042 773.947 L28.3562 773.947 L28.3562 768.059 L33.8944 768.059 Q30.6797 765.958 29.0883 763.126 Q27.4968 760.261 27.4968 756.537 Q27.4968 750.394 31.3163 747.243 Q35.1038 744.092 42.4881 744.092 Z" fill="#000000" fill-rule="nonzero" fill-opacity="1" /><path clip-path="url(#clip520)" d="M18.2347 705.898 L28.3562 705.898 L28.3562 693.835 L32.9077 693.835 L32.9077 705.898 L52.2594 705.898 Q56.6199 705.898 57.8613 704.72 Q59.1026 703.511 59.1026 699.85 L59.1026 693.835 L64.0042 693.835 L64.0042 699.85 Q64.0042 706.63 61.4897 709.208 Q58.9434 711.786 52.2594 711.786 L32.9077 711.786 L32.9077 716.083 L28.3562 716.083 L28.3562 711.786 L18.2347 711.786 L18.2347 705.898 Z" fill="#000000" fill-rule="nonzero" fill-opacity="1" /><path clip-path="url(#clip520)" d="M28.3562 686.132 L28.3562 680.276 L64.0042 680.276 L64.0042 686.132 L28.3562 686.132 M14.479 686.132 L14.479 680.276 L21.895 680.276 L21.895 686.132 L14.479 686.132 Z" fill="#000000" fill-rule="nonzero" fill-opacity="1" /><path clip-path="url(#clip520)" d="M35.1993 640.267 Q31.2526 638.071 29.3747 635.016 Q27.4968 631.96 27.4968 627.822 Q27.4968 622.253 31.4117 619.229 Q35.2948 616.205 42.4881 616.205 L64.0042 616.205 L64.0042 622.093 L42.679 622.093 Q37.5546 622.093 35.072 623.908 Q32.5894 625.722 32.5894 629.446 Q32.5894 633.997 35.6131 636.639 Q38.6368 639.281 43.8567 639.281 L64.0042 639.281 L64.0042 645.169 L42.679 645.169 Q37.5228 645.169 35.072 646.983 Q32.5894 648.798 32.5894 652.585 Q32.5894 657.073 35.6449 659.715 Q38.6686 662.356 43.8567 662.356 L64.0042 662.356 L64.0042 668.245 L28.3562 668.245 L28.3562 662.356 L33.8944 662.356 Q30.616 660.351 29.0564 657.55 Q27.4968 654.749 27.4968 650.898 Q27.4968 647.015 29.4702 644.31 Q31.4436 641.572 35.1993 640.267 Z" fill="#000000" fill-rule="nonzero" fill-opacity="1" /><path clip-path="url(#clip520)" d="M44.7161 574.032 L47.5806 574.032 L47.5806 600.959 Q53.6281 600.577 56.8109 597.331 Q59.9619 594.052 59.9619 588.228 Q59.9619 584.854 59.1344 581.703 Q58.3069 578.52 56.6518 575.401 L62.1899 575.401 Q63.5267 578.552 64.227 581.862 Q64.9272 585.172 64.9272 588.578 Q64.9272 597.108 59.9619 602.105 Q54.9967 607.07 46.5303 607.07 Q37.7774 607.07 32.6531 602.36 Q27.4968 597.617 27.4968 589.596 Q27.4968 582.403 32.1438 578.234 Q36.7589 574.032 44.7161 574.032 M42.9973 579.889 Q38.1912 579.952 35.3266 582.594 Q32.4621 585.204 32.4621 589.533 Q32.4621 594.434 35.2312 597.394 Q38.0002 600.323 43.0292 600.768 L42.9973 579.889 Z" fill="#000000" fill-rule="nonzero" fill-opacity="1" /><path clip-path="url(#clip520)" d="M14.5426 529.631 Q21.8632 533.896 29.0246 535.965 Q36.186 538.034 43.5384 538.034 Q50.8908 538.034 58.1159 535.965 Q65.3091 533.865 72.5979 529.631 L72.5979 534.724 Q65.1182 539.498 57.8931 541.885 Q50.668 544.241 43.5384 544.241 Q36.4406 544.241 29.2474 541.885 Q22.0542 539.53 14.5426 534.724 L14.5426 529.631 Z" fill="#000000" fill-rule="nonzero" fill-opacity="1" /><path clip-path="url(#clip520)" d="M29.4065 495.543 L34.9447 495.543 Q33.6716 498.026 33.035 500.699 Q32.3984 503.373 32.3984 506.238 Q32.3984 510.598 33.7352 512.794 Q35.072 514.959 37.7456 514.959 Q39.7826 514.959 40.9603 513.399 Q42.1061 511.839 43.1565 507.129 L43.6021 505.124 Q44.9389 498.885 47.3897 496.275 Q49.8086 493.633 54.1691 493.633 Q59.1344 493.633 62.0308 497.58 Q64.9272 501.495 64.9272 508.37 Q64.9272 511.235 64.3543 514.354 Q63.8132 517.441 62.6992 520.879 L56.6518 520.879 Q58.3387 517.632 59.198 514.481 Q60.0256 511.33 60.0256 508.243 Q60.0256 504.105 58.6251 501.877 Q57.1929 499.649 54.6147 499.649 Q52.2276 499.649 50.9545 501.272 Q49.6813 502.864 48.5037 508.306 L48.0262 510.343 Q46.8804 515.786 44.5251 518.205 Q42.138 520.624 38.0002 520.624 Q32.9713 520.624 30.2341 517.059 Q27.4968 513.494 27.4968 506.938 Q27.4968 503.691 27.9743 500.827 Q28.4517 497.962 29.4065 495.543 Z" fill="#000000" fill-rule="nonzero" fill-opacity="1" /><path clip-path="url(#clip520)" d="M14.5426 485.231 L14.5426 480.138 Q22.0542 475.364 29.2474 473.009 Q36.4406 470.621 43.5384 470.621 Q50.668 470.621 57.8931 473.009 Q65.1182 475.364 72.5979 480.138 L72.5979 485.231 Q65.3091 480.997 58.1159 478.929 Q50.8908 476.828 43.5384 476.828 Q36.186 476.828 29.0246 478.929 Q21.8632 480.997 14.5426 485.231 Z" fill="#000000" fill-rule="nonzero" fill-opacity="1" /><polyline clip-path="url(#clip522)" style="stroke:#009af9; stroke-linecap:round; stroke-linejoin:round; stroke-width:4; stroke-opacity:1; fill:none" points="237.067,1366.36 310.427,1343.5 457.146,1297.23 677.224,1190.17 970.662,1041.96 1337.46,840.923 1777.62,498.608 2291.13,86.1857 "/>
<polyline clip-path="url(#clip522)" style="stroke:#e26f46; stroke-linecap:round; stroke-linejoin:round; stroke-width:4; stroke-opacity:1; fill:none" points="237.067,1366.26 310.427,1359 457.146,1331.7 677.224,1274.01 970.662,1211.66 1337.46,1121.01 1777.62,937.134 2291.13,773.388 "/>
<polyline clip-path="url(#clip522)" style="stroke:#3da44d; stroke-linecap:round; stroke-linejoin:round; stroke-width:4; stroke-opacity:1; fill:none" points="237.067,1375.02 310.427,1365.52 457.146,1346.2 677.224,1313.18 970.662,1274.43 1337.46,1230.29 1777.62,1166.05 2291.13,1101.96 "/>
<polyline clip-path="url(#clip522)" style="stroke:#c271d2; stroke-linecap:round; stroke-linejoin:round; stroke-width:4; stroke-opacity:1; fill:none" points="237.067,1383.97 310.427,1383.05 457.146,1377.81 677.224,1374.62 970.662,1369.49 1337.46,1365.53 1777.62,1358.97 2291.13,1351.04 "/>
<polyline clip-path="url(#clip522)" style="stroke:#ac8d18; stroke-linecap:round; stroke-linejoin:round; stroke-width:4; stroke-opacity:1; fill:none" points="237.067,1384.24 310.427,1382.68 457.146,1381.24 677.224,1373.96 970.662,1373.31 1337.46,1366.44 1777.62,1362.95 2291.13,1353.04 "/>
<path clip-path="url(#clip520)" d="M248.022 404.149 L829.802 404.149 L829.802 93.1086 L248.022 93.1086  Z" fill="#ffffff" fill-rule="evenodd" fill-opacity="1"/>
<polyline clip-path="url(#clip520)" style="stroke:#000000; stroke-linecap:round; stroke-linejoin:round; stroke-width:4; stroke-opacity:1; fill:none" points="248.022,404.149 829.802,404.149 829.802,93.1086 248.022,93.1086 248.022,404.149 "/>
<polyline clip-path="url(#clip520)" style="stroke:#009af9; stroke-linecap:round; stroke-linejoin:round; stroke-width:4; stroke-opacity:1; fill:none" points="272.215,144.949 417.369,144.949 "/>
<path clip-path="url(#clip520)" d="M457.579 130.84 Q452.487 130.84 449.478 134.636 Q446.491 138.432 446.491 144.983 Q446.491 151.511 449.478 155.307 Q452.487 159.104 457.579 159.104 Q462.672 159.104 465.635 155.307 Q468.621 151.511 468.621 144.983 Q468.621 138.432 465.635 134.636 Q462.672 130.84 457.579 130.84 M457.579 127.044 Q464.848 127.044 469.2 131.928 Q473.552 136.789 473.552 144.983 Q473.552 153.155 469.2 158.039 Q464.848 162.9 457.579 162.9 Q450.288 162.9 445.913 158.039 Q441.561 153.178 441.561 144.983 Q441.561 136.789 445.913 131.928 Q450.288 127.044 457.579 127.044 Z" fill="#000000" fill-rule="nonzero" fill-opacity="1" /><path clip-path="url(#clip520)" d="M495.704 140.284 Q494.987 139.868 494.13 139.682 Q493.297 139.474 492.278 139.474 Q488.667 139.474 486.723 141.835 Q484.801 144.173 484.801 148.571 L484.801 162.229 L480.519 162.229 L480.519 136.303 L484.801 136.303 L484.801 140.331 Q486.144 137.969 488.297 136.835 Q490.45 135.678 493.528 135.678 Q493.968 135.678 494.5 135.747 Q495.033 135.794 495.681 135.909 L495.704 140.284 Z" fill="#000000" fill-rule="nonzero" fill-opacity="1" /><path clip-path="url(#clip520)" d="M500.172 136.303 L504.431 136.303 L504.431 162.229 L500.172 162.229 L500.172 136.303 M500.172 126.21 L504.431 126.21 L504.431 131.604 L500.172 131.604 L500.172 126.21 Z" fill="#000000" fill-rule="nonzero" fill-opacity="1" /><path clip-path="url(#clip520)" d="M530.403 148.965 Q530.403 144.335 528.482 141.789 Q526.584 139.243 523.135 139.243 Q519.709 139.243 517.787 141.789 Q515.889 144.335 515.889 148.965 Q515.889 153.571 517.787 156.118 Q519.709 158.664 523.135 158.664 Q526.584 158.664 528.482 156.118 Q530.403 153.571 530.403 148.965 M534.662 159.011 Q534.662 165.631 531.723 168.849 Q528.783 172.09 522.718 172.09 Q520.473 172.09 518.482 171.742 Q516.491 171.418 514.616 170.724 L514.616 166.58 Q516.491 167.599 518.32 168.085 Q520.149 168.571 522.047 168.571 Q526.236 168.571 528.32 166.372 Q530.403 164.196 530.403 159.775 L530.403 157.668 Q529.084 159.96 527.023 161.094 Q524.963 162.229 522.093 162.229 Q517.324 162.229 514.408 158.594 Q511.491 154.96 511.491 148.965 Q511.491 142.946 514.408 139.312 Q517.324 135.678 522.093 135.678 Q524.963 135.678 527.023 136.812 Q529.084 137.946 530.403 140.238 L530.403 136.303 L534.662 136.303 L534.662 159.011 Z" fill="#000000" fill-rule="nonzero" fill-opacity="1" /><path clip-path="url(#clip520)" d="M543.435 136.303 L547.695 136.303 L547.695 162.229 L543.435 162.229 L543.435 136.303 M543.435 126.21 L547.695 126.21 L547.695 131.604 L543.435 131.604 L543.435 126.21 Z" fill="#000000" fill-rule="nonzero" fill-opacity="1" /><path clip-path="url(#clip520)" d="M578.157 146.581 L578.157 162.229 L573.898 162.229 L573.898 146.719 Q573.898 143.039 572.463 141.21 Q571.028 139.382 568.158 139.382 Q564.708 139.382 562.718 141.581 Q560.727 143.78 560.727 147.576 L560.727 162.229 L556.445 162.229 L556.445 136.303 L560.727 136.303 L560.727 140.331 Q562.255 137.993 564.315 136.835 Q566.398 135.678 569.107 135.678 Q573.574 135.678 575.866 138.456 Q578.157 141.21 578.157 146.581 Z" fill="#000000" fill-rule="nonzero" fill-opacity="1" /><path clip-path="url(#clip520)" d="M598.435 149.196 Q593.273 149.196 591.282 150.377 Q589.292 151.557 589.292 154.405 Q589.292 156.673 590.773 158.016 Q592.278 159.335 594.847 159.335 Q598.389 159.335 600.518 156.835 Q602.671 154.312 602.671 150.145 L602.671 149.196 L598.435 149.196 M606.93 147.437 L606.93 162.229 L602.671 162.229 L602.671 158.293 Q601.213 160.655 599.037 161.789 Q596.861 162.9 593.713 162.9 Q589.731 162.9 587.37 160.678 Q585.032 158.432 585.032 154.682 Q585.032 150.307 587.949 148.085 Q590.889 145.863 596.699 145.863 L602.671 145.863 L602.671 145.446 Q602.671 142.507 600.727 140.909 Q598.805 139.289 595.31 139.289 Q593.088 139.289 590.981 139.821 Q588.875 140.354 586.931 141.419 L586.931 137.483 Q589.269 136.581 591.468 136.141 Q593.667 135.678 595.75 135.678 Q601.375 135.678 604.153 138.594 Q606.93 141.511 606.93 147.437 Z" fill="#000000" fill-rule="nonzero" fill-opacity="1" /><path clip-path="url(#clip520)" d="M615.704 126.21 L619.963 126.21 L619.963 162.229 L615.704 162.229 L615.704 126.21 Z" fill="#000000" fill-rule="nonzero" fill-opacity="1" /><polyline clip-path="url(#clip520)" style="stroke:#e26f46; stroke-linecap:round; stroke-linejoin:round; stroke-width:4; stroke-opacity:1; fill:none" points="272.215,196.789 417.369,196.789 "/>
<path clip-path="url(#clip520)" d="M441.561 179.509 L446.237 179.509 L446.237 214.069 L441.561 214.069 L441.561 179.509 Z" fill="#000000" fill-rule="nonzero" fill-opacity="1" /><path clip-path="url(#clip520)" d="M476.908 198.421 L476.908 214.069 L472.649 214.069 L472.649 198.559 Q472.649 194.879 471.214 193.05 Q469.778 191.222 466.908 191.222 Q463.459 191.222 461.468 193.421 Q459.478 195.62 459.478 199.416 L459.478 214.069 L455.195 214.069 L455.195 188.143 L459.478 188.143 L459.478 192.171 Q461.005 189.833 463.065 188.675 Q465.149 187.518 467.857 187.518 Q472.325 187.518 474.616 190.296 Q476.908 193.05 476.908 198.421 Z" fill="#000000" fill-rule="nonzero" fill-opacity="1" /><path clip-path="url(#clip520)" d="M489.616 180.782 L489.616 188.143 L498.389 188.143 L498.389 191.453 L489.616 191.453 L489.616 205.527 Q489.616 208.698 490.473 209.601 Q491.352 210.504 494.014 210.504 L498.389 210.504 L498.389 214.069 L494.014 214.069 Q489.084 214.069 487.209 212.24 Q485.334 210.388 485.334 205.527 L485.334 191.453 L482.209 191.453 L482.209 188.143 L485.334 188.143 L485.334 180.782 L489.616 180.782 Z" fill="#000000" fill-rule="nonzero" fill-opacity="1" /><path clip-path="url(#clip520)" d="M503.551 203.837 L503.551 188.143 L507.811 188.143 L507.811 203.675 Q507.811 207.356 509.246 209.208 Q510.681 211.036 513.551 211.036 Q517 211.036 518.991 208.837 Q521.005 206.638 521.005 202.842 L521.005 188.143 L525.264 188.143 L525.264 214.069 L521.005 214.069 L521.005 210.087 Q519.454 212.448 517.394 213.606 Q515.357 214.74 512.649 214.74 Q508.181 214.74 505.866 211.962 Q503.551 209.184 503.551 203.837 M514.269 187.518 L514.269 187.518 Z" fill="#000000" fill-rule="nonzero" fill-opacity="1" /><path clip-path="url(#clip520)" d="M534.037 188.143 L538.297 188.143 L538.297 214.069 L534.037 214.069 L534.037 188.143 M534.037 178.05 L538.297 178.05 L538.297 183.444 L534.037 183.444 L534.037 178.05 Z" fill="#000000" fill-rule="nonzero" fill-opacity="1" /><path clip-path="url(#clip520)" d="M551.421 180.782 L551.421 188.143 L560.195 188.143 L560.195 191.453 L551.421 191.453 L551.421 205.527 Q551.421 208.698 552.278 209.601 Q553.158 210.504 555.82 210.504 L560.195 210.504 L560.195 214.069 L555.82 214.069 Q550.889 214.069 549.014 212.24 Q547.139 210.388 547.139 205.527 L547.139 191.453 L544.014 191.453 L544.014 188.143 L547.139 188.143 L547.139 180.782 L551.421 180.782 Z" fill="#000000" fill-rule="nonzero" fill-opacity="1" /><path clip-path="url(#clip520)" d="M565.796 188.143 L570.056 188.143 L570.056 214.069 L565.796 214.069 L565.796 188.143 M565.796 178.05 L570.056 178.05 L570.056 183.444 L565.796 183.444 L565.796 178.05 Z" fill="#000000" fill-rule="nonzero" fill-opacity="1" /><path clip-path="url(#clip520)" d="M575.912 188.143 L580.426 188.143 L588.528 209.902 L596.63 188.143 L601.143 188.143 L591.421 214.069 L585.634 214.069 L575.912 188.143 Z" fill="#000000" fill-rule="nonzero" fill-opacity="1" /><path clip-path="url(#clip520)" d="M629.199 200.041 L629.199 202.124 L609.616 202.124 Q609.893 206.522 612.254 208.837 Q614.639 211.129 618.875 211.129 Q621.329 211.129 623.62 210.527 Q625.935 209.925 628.203 208.721 L628.203 212.749 Q625.912 213.721 623.504 214.231 Q621.097 214.74 618.62 214.74 Q612.417 214.74 608.782 211.129 Q605.171 207.518 605.171 201.36 Q605.171 194.995 608.597 191.268 Q612.046 187.518 617.879 187.518 Q623.111 187.518 626.143 190.897 Q629.199 194.254 629.199 200.041 M624.94 198.791 Q624.893 195.296 622.972 193.212 Q621.074 191.129 617.926 191.129 Q614.361 191.129 612.208 193.143 Q610.079 195.157 609.755 198.814 L624.94 198.791 Z" fill="#000000" fill-rule="nonzero" fill-opacity="1" /><polyline clip-path="url(#clip520)" style="stroke:#3da44d; stroke-linecap:round; stroke-linejoin:round; stroke-width:4; stroke-opacity:1; fill:none" points="272.215,248.629 417.369,248.629 "/>
<path clip-path="url(#clip520)" d="M441.561 231.349 L461.422 231.349 L461.422 235.284 L446.237 235.284 L446.237 245.469 L459.94 245.469 L459.94 249.404 L446.237 249.404 L446.237 265.909 L441.561 265.909 L441.561 231.349 Z" fill="#000000" fill-rule="nonzero" fill-opacity="1" /><path clip-path="url(#clip520)" d="M476.075 252.876 Q470.913 252.876 468.922 254.057 Q466.931 255.237 466.931 258.085 Q466.931 260.353 468.413 261.696 Q469.917 263.015 472.487 263.015 Q476.028 263.015 478.158 260.515 Q480.311 257.992 480.311 253.825 L480.311 252.876 L476.075 252.876 M484.57 251.117 L484.57 265.909 L480.311 265.909 L480.311 261.973 Q478.852 264.335 476.677 265.469 Q474.501 266.58 471.352 266.58 Q467.371 266.58 465.01 264.358 Q462.672 262.112 462.672 258.362 Q462.672 253.987 465.589 251.765 Q468.528 249.543 474.339 249.543 L480.311 249.543 L480.311 249.126 Q480.311 246.187 478.366 244.589 Q476.445 242.969 472.95 242.969 Q470.727 242.969 468.621 243.501 Q466.515 244.034 464.57 245.099 L464.57 241.163 Q466.908 240.261 469.107 239.821 Q471.306 239.358 473.389 239.358 Q479.014 239.358 481.792 242.274 Q484.57 245.191 484.57 251.117 Z" fill="#000000" fill-rule="nonzero" fill-opacity="1" /><path clip-path="url(#clip520)" d="M509.871 240.747 L509.871 244.774 Q508.065 243.849 506.121 243.386 Q504.176 242.923 502.093 242.923 Q498.922 242.923 497.325 243.895 Q495.75 244.867 495.75 246.811 Q495.75 248.293 496.885 249.149 Q498.019 249.983 501.445 250.747 L502.903 251.071 Q507.44 252.043 509.338 253.825 Q511.26 255.585 511.26 258.756 Q511.26 262.367 508.389 264.473 Q505.542 266.58 500.542 266.58 Q498.459 266.58 496.19 266.163 Q493.945 265.77 491.445 264.96 L491.445 260.561 Q493.806 261.788 496.098 262.413 Q498.389 263.015 500.635 263.015 Q503.644 263.015 505.264 261.997 Q506.885 260.955 506.885 259.08 Q506.885 257.344 505.704 256.418 Q504.547 255.492 500.588 254.636 L499.107 254.288 Q495.149 253.455 493.389 251.742 Q491.63 250.006 491.63 246.997 Q491.63 243.339 494.223 241.349 Q496.815 239.358 501.584 239.358 Q503.945 239.358 506.028 239.705 Q508.112 240.052 509.871 240.747 Z" fill="#000000" fill-rule="nonzero" fill-opacity="1" /><path clip-path="url(#clip520)" d="M522.255 232.622 L522.255 239.983 L531.028 239.983 L531.028 243.293 L522.255 243.293 L522.255 257.367 Q522.255 260.538 523.111 261.441 Q523.991 262.344 526.653 262.344 L531.028 262.344 L531.028 265.909 L526.653 265.909 Q521.723 265.909 519.848 264.08 Q517.973 262.228 517.973 257.367 L517.973 243.293 L514.848 243.293 L514.848 239.983 L517.973 239.983 L517.973 232.622 L522.255 232.622 Z" fill="#000000" fill-rule="nonzero" fill-opacity="1" /><polyline clip-path="url(#clip520)" style="stroke:#c271d2; stroke-linecap:round; stroke-linejoin:round; stroke-width:4; stroke-opacity:1; fill:none" points="272.215,300.469 417.369,300.469 "/>
<path clip-path="url(#clip520)" d="M446.237 287.031 L446.237 313.906 L451.885 313.906 Q459.038 313.906 462.348 310.665 Q465.681 307.425 465.681 300.434 Q465.681 293.489 462.348 290.272 Q459.038 287.031 451.885 287.031 L446.237 287.031 M441.561 283.189 L451.167 283.189 Q461.214 283.189 465.913 287.378 Q470.612 291.545 470.612 300.434 Q470.612 309.369 465.89 313.559 Q461.167 317.749 451.167 317.749 L441.561 317.749 L441.561 283.189 Z" fill="#000000" fill-rule="nonzero" fill-opacity="1" /><path clip-path="url(#clip520)" d="M489.663 304.716 Q484.501 304.716 482.51 305.897 Q480.519 307.077 480.519 309.925 Q480.519 312.193 482.001 313.536 Q483.505 314.855 486.075 314.855 Q489.616 314.855 491.746 312.355 Q493.899 309.832 493.899 305.665 L493.899 304.716 L489.663 304.716 M498.158 302.957 L498.158 317.749 L493.899 317.749 L493.899 313.813 Q492.44 316.175 490.264 317.309 Q488.088 318.42 484.94 318.42 Q480.959 318.42 478.598 316.198 Q476.26 313.952 476.26 310.202 Q476.26 305.827 479.176 303.605 Q482.116 301.383 487.926 301.383 L493.899 301.383 L493.899 300.966 Q493.899 298.027 491.954 296.429 Q490.033 294.809 486.538 294.809 Q484.315 294.809 482.209 295.341 Q480.102 295.874 478.158 296.939 L478.158 293.003 Q480.496 292.101 482.695 291.661 Q484.894 291.198 486.977 291.198 Q492.602 291.198 495.38 294.114 Q498.158 297.031 498.158 302.957 Z" fill="#000000" fill-rule="nonzero" fill-opacity="1" /><path clip-path="url(#clip520)" d="M511.144 284.462 L511.144 291.823 L519.917 291.823 L519.917 295.133 L511.144 295.133 L511.144 309.207 Q511.144 312.378 512 313.281 Q512.88 314.184 515.542 314.184 L519.917 314.184 L519.917 317.749 L515.542 317.749 Q510.612 317.749 508.737 315.92 Q506.862 314.068 506.862 309.207 L506.862 295.133 L503.737 295.133 L503.737 291.823 L506.862 291.823 L506.862 284.462 L511.144 284.462 Z" fill="#000000" fill-rule="nonzero" fill-opacity="1" /><path clip-path="url(#clip520)" d="M537.301 304.716 Q532.139 304.716 530.148 305.897 Q528.158 307.077 528.158 309.925 Q528.158 312.193 529.639 313.536 Q531.144 314.855 533.713 314.855 Q537.255 314.855 539.385 312.355 Q541.537 309.832 541.537 305.665 L541.537 304.716 L537.301 304.716 M545.797 302.957 L545.797 317.749 L541.537 317.749 L541.537 313.813 Q540.079 316.175 537.903 317.309 Q535.727 318.42 532.579 318.42 Q528.598 318.42 526.236 316.198 Q523.898 313.952 523.898 310.202 Q523.898 305.827 526.815 303.605 Q529.755 301.383 535.565 301.383 L541.537 301.383 L541.537 300.966 Q541.537 298.027 539.593 296.429 Q537.672 294.809 534.176 294.809 Q531.954 294.809 529.848 295.341 Q527.741 295.874 525.797 296.939 L525.797 293.003 Q528.135 292.101 530.334 291.661 Q532.533 291.198 534.616 291.198 Q540.241 291.198 543.019 294.114 Q545.797 297.031 545.797 302.957 Z" fill="#000000" fill-rule="nonzero" fill-opacity="1" /><path clip-path="url(#clip520)" d="M554.755 283.189 L574.616 283.189 L574.616 287.124 L559.431 287.124 L559.431 297.309 L573.134 297.309 L573.134 301.244 L559.431 301.244 L559.431 317.749 L554.755 317.749 L554.755 283.189 Z" fill="#000000" fill-rule="nonzero" fill-opacity="1" /><path clip-path="url(#clip520)" d="M593.412 295.804 Q592.694 295.388 591.838 295.202 Q591.005 294.994 589.986 294.994 Q586.375 294.994 584.431 297.355 Q582.509 299.693 582.509 304.091 L582.509 317.749 L578.227 317.749 L578.227 291.823 L582.509 291.823 L582.509 295.851 Q583.852 293.489 586.005 292.355 Q588.157 291.198 591.236 291.198 Q591.676 291.198 592.208 291.267 Q592.741 291.314 593.389 291.429 L593.412 295.804 Z" fill="#000000" fill-rule="nonzero" fill-opacity="1" /><path clip-path="url(#clip520)" d="M609.662 304.716 Q604.5 304.716 602.509 305.897 Q600.518 307.077 600.518 309.925 Q600.518 312.193 602 313.536 Q603.505 314.855 606.074 314.855 Q609.616 314.855 611.745 312.355 Q613.898 309.832 613.898 305.665 L613.898 304.716 L609.662 304.716 M618.157 302.957 L618.157 317.749 L613.898 317.749 L613.898 313.813 Q612.44 316.175 610.264 317.309 Q608.088 318.42 604.94 318.42 Q600.958 318.42 598.597 316.198 Q596.259 313.952 596.259 310.202 Q596.259 305.827 599.176 303.605 Q602.116 301.383 607.926 301.383 L613.898 301.383 L613.898 300.966 Q613.898 298.027 611.954 296.429 Q610.032 294.809 606.537 294.809 Q604.315 294.809 602.208 295.341 Q600.102 295.874 598.157 296.939 L598.157 293.003 Q600.495 292.101 602.694 291.661 Q604.893 291.198 606.977 291.198 Q612.602 291.198 615.379 294.114 Q618.157 297.031 618.157 302.957 Z" fill="#000000" fill-rule="nonzero" fill-opacity="1" /><path clip-path="url(#clip520)" d="M647.115 296.8 Q648.713 293.929 650.935 292.564 Q653.157 291.198 656.166 291.198 Q660.217 291.198 662.416 294.045 Q664.615 296.869 664.615 302.101 L664.615 317.749 L660.333 317.749 L660.333 302.239 Q660.333 298.513 659.013 296.707 Q657.694 294.902 654.986 294.902 Q651.676 294.902 649.754 297.101 Q647.833 299.3 647.833 303.096 L647.833 317.749 L643.551 317.749 L643.551 302.239 Q643.551 298.489 642.231 296.707 Q640.912 294.902 638.157 294.902 Q634.893 294.902 632.972 297.124 Q631.051 299.323 631.051 303.096 L631.051 317.749 L626.768 317.749 L626.768 291.823 L631.051 291.823 L631.051 295.851 Q632.509 293.466 634.546 292.332 Q636.583 291.198 639.384 291.198 Q642.208 291.198 644.176 292.633 Q646.166 294.068 647.115 296.8 Z" fill="#000000" fill-rule="nonzero" fill-opacity="1" /><path clip-path="url(#clip520)" d="M695.286 303.721 L695.286 305.804 L675.703 305.804 Q675.981 310.202 678.342 312.517 Q680.726 314.809 684.962 314.809 Q687.416 314.809 689.708 314.207 Q692.023 313.605 694.291 312.401 L694.291 316.429 Q691.999 317.401 689.592 317.911 Q687.185 318.42 684.708 318.42 Q678.504 318.42 674.87 314.809 Q671.259 311.198 671.259 305.04 Q671.259 298.675 674.685 294.948 Q678.134 291.198 683.967 291.198 Q689.199 291.198 692.231 294.577 Q695.286 297.934 695.286 303.721 M691.027 302.471 Q690.981 298.976 689.06 296.892 Q687.161 294.809 684.013 294.809 Q680.449 294.809 678.296 296.823 Q676.166 298.837 675.842 302.494 L691.027 302.471 Z" fill="#000000" fill-rule="nonzero" fill-opacity="1" /><polyline clip-path="url(#clip520)" style="stroke:#ac8d18; stroke-linecap:round; stroke-linejoin:round; stroke-width:4; stroke-opacity:1; fill:none" points="272.215,352.309 417.369,352.309 "/>
<path clip-path="url(#clip520)" d="M441.561 335.029 L461.422 335.029 L461.422 338.964 L446.237 338.964 L446.237 349.149 L459.94 349.149 L459.94 353.084 L446.237 353.084 L446.237 369.589 L441.561 369.589 L441.561 335.029 Z" fill="#000000" fill-rule="nonzero" fill-opacity="1" /><path clip-path="url(#clip520)" d="M476.075 356.556 Q470.913 356.556 468.922 357.737 Q466.931 358.917 466.931 361.765 Q466.931 364.033 468.413 365.376 Q469.917 366.695 472.487 366.695 Q476.028 366.695 478.158 364.195 Q480.311 361.672 480.311 357.505 L480.311 356.556 L476.075 356.556 M484.57 354.797 L484.57 369.589 L480.311 369.589 L480.311 365.653 Q478.852 368.015 476.677 369.149 Q474.501 370.26 471.352 370.26 Q467.371 370.26 465.01 368.038 Q462.672 365.792 462.672 362.042 Q462.672 357.667 465.589 355.445 Q468.528 353.223 474.339 353.223 L480.311 353.223 L480.311 352.806 Q480.311 349.867 478.366 348.269 Q476.445 346.649 472.95 346.649 Q470.727 346.649 468.621 347.181 Q466.515 347.714 464.57 348.779 L464.57 344.843 Q466.908 343.941 469.107 343.501 Q471.306 343.038 473.389 343.038 Q479.014 343.038 481.792 345.954 Q484.57 348.871 484.57 354.797 Z" fill="#000000" fill-rule="nonzero" fill-opacity="1" /><path clip-path="url(#clip520)" d="M509.871 344.427 L509.871 348.454 Q508.065 347.529 506.121 347.066 Q504.176 346.603 502.093 346.603 Q498.922 346.603 497.325 347.575 Q495.75 348.547 495.75 350.491 Q495.75 351.973 496.885 352.829 Q498.019 353.663 501.445 354.427 L502.903 354.751 Q507.44 355.723 509.338 357.505 Q511.26 359.265 511.26 362.436 Q511.26 366.047 508.389 368.153 Q505.542 370.26 500.542 370.26 Q498.459 370.26 496.19 369.843 Q493.945 369.45 491.445 368.64 L491.445 364.241 Q493.806 365.468 496.098 366.093 Q498.389 366.695 500.635 366.695 Q503.644 366.695 505.264 365.677 Q506.885 364.635 506.885 362.76 Q506.885 361.024 505.704 360.098 Q504.547 359.172 500.588 358.316 L499.107 357.968 Q495.149 357.135 493.389 355.422 Q491.63 353.686 491.63 350.677 Q491.63 347.019 494.223 345.029 Q496.815 343.038 501.584 343.038 Q503.945 343.038 506.028 343.385 Q508.112 343.732 509.871 344.427 Z" fill="#000000" fill-rule="nonzero" fill-opacity="1" /><path clip-path="url(#clip520)" d="M522.255 336.302 L522.255 343.663 L531.028 343.663 L531.028 346.973 L522.255 346.973 L522.255 361.047 Q522.255 364.218 523.111 365.121 Q523.991 366.024 526.653 366.024 L531.028 366.024 L531.028 369.589 L526.653 369.589 Q521.723 369.589 519.848 367.76 Q517.973 365.908 517.973 361.047 L517.973 346.973 L514.848 346.973 L514.848 343.663 L517.973 343.663 L517.973 336.302 L522.255 336.302 Z" fill="#000000" fill-rule="nonzero" fill-opacity="1" /><path clip-path="url(#clip520)" d="M556.56 338.871 L556.56 365.746 L562.208 365.746 Q569.361 365.746 572.671 362.505 Q576.005 359.265 576.005 352.274 Q576.005 345.329 572.671 342.112 Q569.361 338.871 562.208 338.871 L556.56 338.871 M551.884 335.029 L561.491 335.029 Q571.537 335.029 576.236 339.218 Q580.935 343.385 580.935 352.274 Q580.935 361.209 576.213 365.399 Q571.491 369.589 561.491 369.589 L551.884 369.589 L551.884 335.029 Z" fill="#000000" fill-rule="nonzero" fill-opacity="1" /><path clip-path="url(#clip520)" d="M599.986 356.556 Q594.824 356.556 592.833 357.737 Q590.843 358.917 590.843 361.765 Q590.843 364.033 592.324 365.376 Q593.829 366.695 596.398 366.695 Q599.94 366.695 602.069 364.195 Q604.222 361.672 604.222 357.505 L604.222 356.556 L599.986 356.556 M608.481 354.797 L608.481 369.589 L604.222 369.589 L604.222 365.653 Q602.764 368.015 600.588 369.149 Q598.412 370.26 595.264 370.26 Q591.282 370.26 588.921 368.038 Q586.583 365.792 586.583 362.042 Q586.583 357.667 589.5 355.445 Q592.44 353.223 598.25 353.223 L604.222 353.223 L604.222 352.806 Q604.222 349.867 602.278 348.269 Q600.356 346.649 596.861 346.649 Q594.639 346.649 592.532 347.181 Q590.426 347.714 588.481 348.779 L588.481 344.843 Q590.819 343.941 593.018 343.501 Q595.218 343.038 597.301 343.038 Q602.926 343.038 605.704 345.954 Q608.481 348.871 608.481 354.797 Z" fill="#000000" fill-rule="nonzero" fill-opacity="1" /><path clip-path="url(#clip520)" d="M621.467 336.302 L621.467 343.663 L630.241 343.663 L630.241 346.973 L621.467 346.973 L621.467 361.047 Q621.467 364.218 622.324 365.121 Q623.204 366.024 625.866 366.024 L630.241 366.024 L630.241 369.589 L625.866 369.589 Q620.935 369.589 619.06 367.76 Q617.185 365.908 617.185 361.047 L617.185 346.973 L614.06 346.973 L614.06 343.663 L617.185 343.663 L617.185 336.302 L621.467 336.302 Z" fill="#000000" fill-rule="nonzero" fill-opacity="1" /><path clip-path="url(#clip520)" d="M647.625 356.556 Q642.463 356.556 640.472 357.737 Q638.481 358.917 638.481 361.765 Q638.481 364.033 639.963 365.376 Q641.467 366.695 644.037 366.695 Q647.578 366.695 649.708 364.195 Q651.861 361.672 651.861 357.505 L651.861 356.556 L647.625 356.556 M656.12 354.797 L656.12 369.589 L651.861 369.589 L651.861 365.653 Q650.402 368.015 648.227 369.149 Q646.051 370.26 642.902 370.26 Q638.921 370.26 636.56 368.038 Q634.222 365.792 634.222 362.042 Q634.222 357.667 637.139 355.445 Q640.078 353.223 645.889 353.223 L651.861 353.223 L651.861 352.806 Q651.861 349.867 649.916 348.269 Q647.995 346.649 644.5 346.649 Q642.277 346.649 640.171 347.181 Q638.065 347.714 636.12 348.779 L636.12 344.843 Q638.458 343.941 640.657 343.501 Q642.856 343.038 644.939 343.038 Q650.564 343.038 653.342 345.954 Q656.12 348.871 656.12 354.797 Z" fill="#000000" fill-rule="nonzero" fill-opacity="1" /><path clip-path="url(#clip520)" d="M665.078 335.029 L684.939 335.029 L684.939 338.964 L669.754 338.964 L669.754 349.149 L683.458 349.149 L683.458 353.084 L669.754 353.084 L669.754 369.589 L665.078 369.589 L665.078 335.029 Z" fill="#000000" fill-rule="nonzero" fill-opacity="1" /><path clip-path="url(#clip520)" d="M703.735 347.644 Q703.018 347.228 702.161 347.042 Q701.328 346.834 700.31 346.834 Q696.698 346.834 694.754 349.195 Q692.833 351.533 692.833 355.931 L692.833 369.589 L688.55 369.589 L688.55 343.663 L692.833 343.663 L692.833 347.691 Q694.175 345.329 696.328 344.195 Q698.481 343.038 701.56 343.038 Q701.999 343.038 702.532 343.107 Q703.064 343.154 703.712 343.269 L703.735 347.644 Z" fill="#000000" fill-rule="nonzero" fill-opacity="1" /><path clip-path="url(#clip520)" d="M719.985 356.556 Q714.823 356.556 712.833 357.737 Q710.842 358.917 710.842 361.765 Q710.842 364.033 712.323 365.376 Q713.828 366.695 716.397 366.695 Q719.939 366.695 722.069 364.195 Q724.221 361.672 724.221 357.505 L724.221 356.556 L719.985 356.556 M728.481 354.797 L728.481 369.589 L724.221 369.589 L724.221 365.653 Q722.763 368.015 720.587 369.149 Q718.411 370.26 715.263 370.26 Q711.282 370.26 708.921 368.038 Q706.583 365.792 706.583 362.042 Q706.583 357.667 709.499 355.445 Q712.439 353.223 718.249 353.223 L724.221 353.223 L724.221 352.806 Q724.221 349.867 722.277 348.269 Q720.356 346.649 716.86 346.649 Q714.638 346.649 712.532 347.181 Q710.425 347.714 708.481 348.779 L708.481 344.843 Q710.819 343.941 713.018 343.501 Q715.217 343.038 717.3 343.038 Q722.925 343.038 725.703 345.954 Q728.481 348.871 728.481 354.797 Z" fill="#000000" fill-rule="nonzero" fill-opacity="1" /><path clip-path="url(#clip520)" d="M757.439 348.64 Q759.036 345.769 761.258 344.404 Q763.481 343.038 766.49 343.038 Q770.541 343.038 772.74 345.885 Q774.939 348.709 774.939 353.941 L774.939 369.589 L770.656 369.589 L770.656 354.079 Q770.656 350.353 769.337 348.547 Q768.018 346.742 765.309 346.742 Q761.999 346.742 760.078 348.941 Q758.156 351.14 758.156 354.936 L758.156 369.589 L753.874 369.589 L753.874 354.079 Q753.874 350.329 752.555 348.547 Q751.235 346.742 748.481 346.742 Q745.217 346.742 743.295 348.964 Q741.374 351.163 741.374 354.936 L741.374 369.589 L737.092 369.589 L737.092 343.663 L741.374 343.663 L741.374 347.691 Q742.832 345.306 744.87 344.172 Q746.907 343.038 749.707 343.038 Q752.532 343.038 754.499 344.473 Q756.49 345.908 757.439 348.64 Z" fill="#000000" fill-rule="nonzero" fill-opacity="1" /><path clip-path="url(#clip520)" d="M805.61 355.561 L805.61 357.644 L786.027 357.644 Q786.304 362.042 788.666 364.357 Q791.05 366.649 795.286 366.649 Q797.74 366.649 800.031 366.047 Q802.346 365.445 804.615 364.241 L804.615 368.269 Q802.323 369.241 799.916 369.751 Q797.508 370.26 795.031 370.26 Q788.828 370.26 785.193 366.649 Q781.582 363.038 781.582 356.88 Q781.582 350.515 785.008 346.788 Q788.457 343.038 794.291 343.038 Q799.522 343.038 802.554 346.417 Q805.61 349.774 805.61 355.561 M801.351 354.311 Q801.304 350.816 799.383 348.732 Q797.485 346.649 794.337 346.649 Q790.772 346.649 788.619 348.663 Q786.49 350.677 786.166 354.334 L801.351 354.311 Z" fill="#000000" fill-rule="nonzero" fill-opacity="1" /></svg>
