<?xml version="1.0" encoding="utf-8"?>
<svg xmlns="http://www.w3.org/2000/svg" xmlns:xlink="http://www.w3.org/1999/xlink" width="600" height="400" viewBox="0 0 2400 1600">
<defs>
  <clipPath id="clip640">
    <rect x="0" y="0" width="2400" height="1600"/>
  </clipPath>
</defs>
<path clip-path="url(#clip640)" d="M0 1600 L2400 1600 L2400 0 L0 0  Z" fill="#ffffff" fill-rule="evenodd" fill-opacity="1"/>
<defs>
  <clipPath id="clip641">
    <rect x="480" y="0" width="1681" height="1600"/>
  </clipPath>
</defs>
<path clip-path="url(#clip640)" d="M175.445 1423.18 L2352.76 1423.18 L2352.76 47.2441 L175.445 47.2441  Z" fill="#ffffff" fill-rule="evenodd" fill-opacity="1"/>
<defs>
  <clipPath id="clip642">
    <rect x="175" y="47" width="2178" height="1377"/>
  </clipPath>
</defs>
<polyline clip-path="url(#clip642)" style="stroke:#000000; stroke-linecap:round; stroke-linejoin:round; stroke-width:2; stroke-opacity:0.1; fill:none" points="530.505,1423.18 530.505,47.2441 "/>
<polyline clip-path="url(#clip642)" style="stroke:#000000; stroke-linecap:round; stroke-linejoin:round; stroke-width:2; stroke-opacity:0.1; fill:none" points="897.303,1423.18 897.303,47.2441 "/>
<polyline clip-path="url(#clip642)" style="stroke:#000000; stroke-linecap:round; stroke-linejoin:round; stroke-width:2; stroke-opacity:0.1; fill:none" points="1264.1,1423.18 1264.1,47.2441 "/>
<polyline clip-path="url(#clip642)" style="stroke:#000000; stroke-linecap:round; stroke-linejoin:round; stroke-width:2; stroke-opacity:0.1; fill:none" points="1630.9,1423.18 1630.9,47.2441 "/>
<polyline clip-path="url(#clip642)" style="stroke:#000000; stroke-linecap:round; stroke-linejoin:round; stroke-width:2; stroke-opacity:0.1; fill:none" points="1997.7,1423.18 1997.7,47.2441 "/>
<polyline clip-path="url(#clip640)" style="stroke:#000000; stroke-linecap:round; stroke-linejoin:round; stroke-width:4; stroke-opacity:1; fill:none" points="175.445,1423.18 2352.76,1423.18 "/>
<polyline clip-path="url(#clip640)" style="stroke:#000000; stroke-linecap:round; stroke-linejoin:round; stroke-width:4; stroke-opacity:1; fill:none" points="530.505,1423.18 530.505,1404.28 "/>
<polyline clip-path="url(#clip640)" style="stroke:#000000; stroke-linecap:round; stroke-linejoin:round; stroke-width:4; stroke-opacity:1; fill:none" points="897.303,1423.18 897.303,1404.28 "/>
<polyline clip-path="url(#clip640)" style="stroke:#000000; stroke-linecap:round; stroke-linejoin:round; stroke-width:4; stroke-opacity:1; fill:none" points="1264.1,1423.18 1264.1,1404.28 "/>
<polyline clip-path="url(#clip640)" style="stroke:#000000; stroke-linecap:round; stroke-linejoin:round; stroke-width:4; stroke-opacity:1; fill:none" points="1630.9,1423.18 1630.9,1404.28 "/>
<polyline clip-path="url(#clip640)" style="stroke:#000000; stroke-linecap:round; stroke-linejoin:round; stroke-width:4; stroke-opacity:1; fill:none" points="1997.7,1423.18 1997.7,1404.28 "/>
<path clip-path="url(#clip640)" d="M490.124 1451.02 L508.48 1451.02 L508.48 1454.96 L494.406 1454.96 L494.406 1463.43 Q495.424 1463.08 496.443 1462.92 Q497.462 1462.73 498.48 1462.73 Q504.267 1462.73 507.647 1465.9 Q511.026 1469.08 511.026 1474.49 Q511.026 1480.07 507.554 1483.17 Q504.082 1486.25 497.762 1486.25 Q495.587 1486.25 493.318 1485.88 Q491.073 1485.51 488.665 1484.77 L488.665 1480.07 Q490.749 1481.2 492.971 1481.76 Q495.193 1482.32 497.67 1482.32 Q501.674 1482.32 504.012 1480.21 Q506.35 1478.1 506.35 1474.49 Q506.35 1470.88 504.012 1468.77 Q501.674 1466.67 497.67 1466.67 Q495.795 1466.67 493.92 1467.08 Q492.068 1467.5 490.124 1468.38 L490.124 1451.02 Z" fill="#000000" fill-rule="nonzero" fill-opacity="1" /><path clip-path="url(#clip640)" d="M530.239 1454.1 Q526.628 1454.1 524.799 1457.66 Q522.994 1461.2 522.994 1468.33 Q522.994 1475.44 524.799 1479.01 Q526.628 1482.55 530.239 1482.55 Q533.873 1482.55 535.679 1479.01 Q537.508 1475.44 537.508 1468.33 Q537.508 1461.2 535.679 1457.66 Q533.873 1454.1 530.239 1454.1 M530.239 1450.39 Q536.049 1450.39 539.105 1455 Q542.183 1459.58 542.183 1468.33 Q542.183 1477.06 539.105 1481.67 Q536.049 1486.25 530.239 1486.25 Q524.429 1486.25 521.35 1481.67 Q518.295 1477.06 518.295 1468.33 Q518.295 1459.58 521.35 1455 Q524.429 1450.39 530.239 1450.39 Z" fill="#000000" fill-rule="nonzero" fill-opacity="1" /><path clip-path="url(#clip640)" d="M560.401 1454.1 Q556.79 1454.1 554.961 1457.66 Q553.156 1461.2 553.156 1468.33 Q553.156 1475.44 554.961 1479.01 Q556.79 1482.55 560.401 1482.55 Q564.035 1482.55 565.841 1479.01 Q567.669 1475.44 567.669 1468.33 Q567.669 1461.2 565.841 1457.66 Q564.035 1454.1 560.401 1454.1 M560.401 1450.39 Q566.211 1450.39 569.267 1455 Q572.345 1459.58 572.345 1468.33 Q572.345 1477.06 569.267 1481.67 Q566.211 1486.25 560.401 1486.25 Q554.591 1486.25 551.512 1481.67 Q548.457 1477.06 548.457 1468.33 Q548.457 1459.58 551.512 1455 Q554.591 1450.39 560.401 1450.39 Z" fill="#000000" fill-rule="nonzero" fill-opacity="1" /><path clip-path="url(#clip640)" d="M841.829 1481.64 L849.468 1481.64 L849.468 1455.28 L841.157 1456.95 L841.157 1452.69 L849.421 1451.02 L854.097 1451.02 L854.097 1481.64 L861.736 1481.64 L861.736 1485.58 L841.829 1485.58 L841.829 1481.64 Z" fill="#000000" fill-rule="nonzero" fill-opacity="1" /><path clip-path="url(#clip640)" d="M881.18 1454.1 Q877.569 1454.1 875.741 1457.66 Q873.935 1461.2 873.935 1468.33 Q873.935 1475.44 875.741 1479.01 Q877.569 1482.55 881.18 1482.55 Q884.815 1482.55 886.62 1479.01 Q888.449 1475.44 888.449 1468.33 Q888.449 1461.2 886.62 1457.66 Q884.815 1454.1 881.18 1454.1 M881.18 1450.39 Q886.99 1450.39 890.046 1455 Q893.125 1459.58 893.125 1468.33 Q893.125 1477.06 890.046 1481.67 Q886.99 1486.25 881.18 1486.25 Q875.37 1486.25 872.291 1481.67 Q869.236 1477.06 869.236 1468.33 Q869.236 1459.58 872.291 1455 Q875.37 1450.39 881.18 1450.39 Z" fill="#000000" fill-rule="nonzero" fill-opacity="1" /><path clip-path="url(#clip640)" d="M911.342 1454.1 Q907.731 1454.1 905.902 1457.66 Q904.097 1461.2 904.097 1468.33 Q904.097 1475.44 905.902 1479.01 Q907.731 1482.55 911.342 1482.55 Q914.976 1482.55 916.782 1479.01 Q918.611 1475.44 918.611 1468.33 Q918.611 1461.2 916.782 1457.66 Q914.976 1454.1 911.342 1454.1 M911.342 1450.39 Q917.152 1450.39 920.208 1455 Q923.287 1459.58 923.287 1468.33 Q923.287 1477.06 920.208 1481.67 Q917.152 1486.25 911.342 1486.25 Q905.532 1486.25 902.453 1481.67 Q899.398 1477.06 899.398 1468.33 Q899.398 1459.58 902.453 1455 Q905.532 1450.39 911.342 1450.39 Z" fill="#000000" fill-rule="nonzero" fill-opacity="1" /><path clip-path="url(#clip640)" d="M941.504 1454.1 Q937.893 1454.1 936.064 1457.66 Q934.259 1461.2 934.259 1468.33 Q934.259 1475.44 936.064 1479.01 Q937.893 1482.55 941.504 1482.55 Q945.138 1482.55 946.944 1479.01 Q948.773 1475.44 948.773 1468.33 Q948.773 1461.2 946.944 1457.66 Q945.138 1454.1 941.504 1454.1 M941.504 1450.39 Q947.314 1450.39 950.37 1455 Q953.448 1459.58 953.448 1468.33 Q953.448 1477.06 950.37 1481.67 Q947.314 1486.25 941.504 1486.25 Q935.694 1486.25 932.615 1481.67 Q929.56 1477.06 929.56 1468.33 Q929.56 1459.58 932.615 1455 Q935.694 1450.39 941.504 1450.39 Z" fill="#000000" fill-rule="nonzero" fill-opacity="1" /><path clip-path="url(#clip640)" d="M1208.63 1481.64 L1216.27 1481.64 L1216.27 1455.28 L1207.96 1456.95 L1207.96 1452.69 L1216.22 1451.02 L1220.89 1451.02 L1220.89 1481.64 L1228.53 1481.64 L1228.53 1485.58 L1208.63 1485.58 L1208.63 1481.64 Z" fill="#000000" fill-rule="nonzero" fill-opacity="1" /><path clip-path="url(#clip640)" d="M1238.02 1451.02 L1256.38 1451.02 L1256.38 1454.96 L1242.31 1454.96 L1242.31 1463.43 Q1243.33 1463.08 1244.34 1462.92 Q1245.36 1462.73 1246.38 1462.73 Q1252.17 1462.73 1255.55 1465.9 Q1258.93 1469.08 1258.93 1474.49 Q1258.93 1480.07 1255.45 1483.17 Q1251.98 1486.25 1245.66 1486.25 Q1243.49 1486.25 1241.22 1485.88 Q1238.97 1485.51 1236.57 1484.77 L1236.57 1480.07 Q1238.65 1481.2 1240.87 1481.76 Q1243.09 1482.32 1245.57 1482.32 Q1249.58 1482.32 1251.91 1480.21 Q1254.25 1478.1 1254.25 1474.49 Q1254.25 1470.88 1251.91 1468.77 Q1249.58 1466.67 1245.57 1466.67 Q1243.7 1466.67 1241.82 1467.08 Q1239.97 1467.5 1238.02 1468.38 L1238.02 1451.02 Z" fill="#000000" fill-rule="nonzero" fill-opacity="1" /><path clip-path="url(#clip640)" d="M1278.14 1454.1 Q1274.53 1454.1 1272.7 1457.66 Q1270.89 1461.2 1270.89 1468.33 Q1270.89 1475.44 1272.7 1479.01 Q1274.53 1482.55 1278.14 1482.55 Q1281.77 1482.55 1283.58 1479.01 Q1285.41 1475.44 1285.41 1468.33 Q1285.41 1461.2 1283.58 1457.66 Q1281.77 1454.1 1278.14 1454.1 M1278.14 1450.39 Q1283.95 1450.39 1287.01 1455 Q1290.08 1459.58 1290.08 1468.33 Q1290.08 1477.06 1287.01 1481.67 Q1283.95 1486.25 1278.14 1486.25 Q1272.33 1486.25 1269.25 1481.67 Q1266.2 1477.06 1266.2 1468.33 Q1266.2 1459.58 1269.25 1455 Q1272.33 1450.39 1278.14 1450.39 Z" fill="#000000" fill-rule="nonzero" fill-opacity="1" /><path clip-path="url(#clip640)" d="M1308.3 1454.1 Q1304.69 1454.1 1302.86 1457.66 Q1301.06 1461.2 1301.06 1468.33 Q1301.06 1475.44 1302.86 1479.01 Q1304.69 1482.55 1308.3 1482.55 Q1311.94 1482.55 1313.74 1479.01 Q1315.57 1475.44 1315.57 1468.33 Q1315.57 1461.2 1313.74 1457.66 Q1311.94 1454.1 1308.3 1454.1 M1308.3 1450.39 Q1314.11 1450.39 1317.17 1455 Q1320.25 1459.58 1320.25 1468.33 Q1320.25 1477.06 1317.17 1481.67 Q1314.11 1486.25 1308.3 1486.25 Q1302.49 1486.25 1299.41 1481.67 Q1296.36 1477.06 1296.36 1468.33 Q1296.36 1459.58 1299.41 1455 Q1302.49 1450.39 1308.3 1450.39 Z" fill="#000000" fill-rule="nonzero" fill-opacity="1" /><path clip-path="url(#clip640)" d="M1579.51 1481.64 L1595.83 1481.64 L1595.83 1485.58 L1573.88 1485.58 L1573.88 1481.64 Q1576.55 1478.89 1581.13 1474.26 Q1585.74 1469.61 1586.92 1468.27 Q1589.16 1465.74 1590.04 1464.01 Q1590.94 1462.25 1590.94 1460.56 Q1590.94 1457.8 1589 1456.07 Q1587.08 1454.33 1583.98 1454.33 Q1581.78 1454.33 1579.32 1455.09 Q1576.89 1455.86 1574.12 1457.41 L1574.12 1452.69 Q1576.94 1451.55 1579.39 1450.97 Q1581.85 1450.39 1583.88 1450.39 Q1589.25 1450.39 1592.45 1453.08 Q1595.64 1455.77 1595.64 1460.26 Q1595.64 1462.39 1594.83 1464.31 Q1594.05 1466.2 1591.94 1468.8 Q1591.36 1469.47 1588.26 1472.69 Q1585.16 1475.88 1579.51 1481.64 Z" fill="#000000" fill-rule="nonzero" fill-opacity="1" /><path clip-path="url(#clip640)" d="M1615.64 1454.1 Q1612.03 1454.1 1610.2 1457.66 Q1608.4 1461.2 1608.4 1468.33 Q1608.4 1475.44 1610.2 1479.01 Q1612.03 1482.55 1615.64 1482.55 Q1619.28 1482.55 1621.08 1479.01 Q1622.91 1475.44 1622.91 1468.33 Q1622.91 1461.2 1621.08 1457.66 Q1619.28 1454.1 1615.64 1454.1 M1615.64 1450.39 Q1621.45 1450.39 1624.51 1455 Q1627.59 1459.58 1627.59 1468.33 Q1627.59 1477.06 1624.51 1481.67 Q1621.45 1486.25 1615.64 1486.25 Q1609.83 1486.25 1606.75 1481.67 Q1603.7 1477.06 1603.7 1468.33 Q1603.7 1459.58 1606.75 1455 Q1609.83 1450.39 1615.64 1450.39 Z" fill="#000000" fill-rule="nonzero" fill-opacity="1" /><path clip-path="url(#clip640)" d="M1645.81 1454.1 Q1642.19 1454.1 1640.37 1457.66 Q1638.56 1461.2 1638.56 1468.33 Q1638.56 1475.44 1640.37 1479.01 Q1642.19 1482.55 1645.81 1482.55 Q1649.44 1482.55 1651.25 1479.01 Q1653.07 1475.44 1653.07 1468.33 Q1653.07 1461.2 1651.25 1457.66 Q1649.44 1454.1 1645.81 1454.1 M1645.81 1450.39 Q1651.62 1450.39 1654.67 1455 Q1657.75 1459.58 1657.75 1468.33 Q1657.75 1477.06 1654.67 1481.67 Q1651.62 1486.25 1645.81 1486.25 Q1640 1486.25 1636.92 1481.67 Q1633.86 1477.06 1633.86 1468.33 Q1633.86 1459.58 1636.92 1455 Q1640 1450.39 1645.81 1450.39 Z" fill="#000000" fill-rule="nonzero" fill-opacity="1" /><path clip-path="url(#clip640)" d="M1675.97 1454.1 Q1672.36 1454.1 1670.53 1457.66 Q1668.72 1461.2 1668.72 1468.33 Q1668.72 1475.44 1670.53 1479.01 Q1672.36 1482.55 1675.97 1482.55 Q1679.6 1482.55 1681.41 1479.01 Q1683.24 1475.44 1683.24 1468.33 Q1683.24 1461.2 1681.41 1457.66 Q1679.6 1454.1 1675.97 1454.1 M1675.97 1450.39 Q1681.78 1450.39 1684.83 1455 Q1687.91 1459.58 1687.91 1468.33 Q1687.91 1477.06 1684.83 1481.67 Q1681.78 1486.25 1675.97 1486.25 Q1670.16 1486.25 1667.08 1481.67 Q1664.02 1477.06 1664.02 1468.33 Q1664.02 1459.58 1667.08 1455 Q1670.16 1450.39 1675.97 1450.39 Z" fill="#000000" fill-rule="nonzero" fill-opacity="1" /><path clip-path="url(#clip640)" d="M1946.31 1481.64 L1962.63 1481.64 L1962.63 1485.58 L1940.68 1485.58 L1940.68 1481.64 Q1943.34 1478.89 1947.93 1474.26 Q1952.53 1469.61 1953.71 1468.27 Q1955.96 1465.74 1956.84 1464.01 Q1957.74 1462.25 1957.74 1460.56 Q1957.74 1457.8 1955.8 1456.07 Q1953.88 1454.33 1950.77 1454.33 Q1948.58 1454.33 1946.12 1455.09 Q1943.69 1455.86 1940.91 1457.41 L1940.91 1452.69 Q1943.74 1451.55 1946.19 1450.97 Q1948.65 1450.39 1950.68 1450.39 Q1956.05 1450.39 1959.25 1453.08 Q1962.44 1455.77 1962.44 1460.26 Q1962.44 1462.39 1961.63 1464.31 Q1960.84 1466.2 1958.74 1468.8 Q1958.16 1469.47 1955.06 1472.69 Q1951.96 1475.88 1946.31 1481.64 Z" fill="#000000" fill-rule="nonzero" fill-opacity="1" /><path clip-path="url(#clip640)" d="M1972.49 1451.02 L1990.84 1451.02 L1990.84 1454.96 L1976.77 1454.96 L1976.77 1463.43 Q1977.79 1463.08 1978.81 1462.92 Q1979.83 1462.73 1980.84 1462.73 Q1986.63 1462.73 1990.01 1465.9 Q1993.39 1469.08 1993.39 1474.49 Q1993.39 1480.07 1989.92 1483.17 Q1986.45 1486.25 1980.13 1486.25 Q1977.95 1486.25 1975.68 1485.88 Q1973.44 1485.51 1971.03 1484.77 L1971.03 1480.07 Q1973.11 1481.2 1975.33 1481.76 Q1977.56 1482.32 1980.03 1482.32 Q1984.04 1482.32 1986.38 1480.21 Q1988.71 1478.1 1988.71 1474.49 Q1988.71 1470.88 1986.38 1468.77 Q1984.04 1466.67 1980.03 1466.67 Q1978.16 1466.67 1976.28 1467.08 Q1974.43 1467.5 1972.49 1468.38 L1972.49 1451.02 Z" fill="#000000" fill-rule="nonzero" fill-opacity="1" /><path clip-path="url(#clip640)" d="M2012.6 1454.1 Q2008.99 1454.1 2007.16 1457.66 Q2005.36 1461.2 2005.36 1468.33 Q2005.36 1475.44 2007.16 1479.01 Q2008.99 1482.55 2012.6 1482.55 Q2016.24 1482.55 2018.04 1479.01 Q2019.87 1475.44 2019.87 1468.33 Q2019.87 1461.2 2018.04 1457.66 Q2016.24 1454.1 2012.6 1454.1 M2012.6 1450.39 Q2018.41 1450.39 2021.47 1455 Q2024.55 1459.58 2024.55 1468.33 Q2024.55 1477.06 2021.47 1481.67 Q2018.41 1486.25 2012.6 1486.25 Q2006.79 1486.25 2003.71 1481.67 Q2000.66 1477.06 2000.66 1468.33 Q2000.66 1459.58 2003.71 1455 Q2006.79 1450.39 2012.6 1450.39 Z" fill="#000000" fill-rule="nonzero" fill-opacity="1" /><path clip-path="url(#clip640)" d="M2042.77 1454.1 Q2039.15 1454.1 2037.33 1457.66 Q2035.52 1461.2 2035.52 1468.33 Q2035.52 1475.44 2037.33 1479.01 Q2039.15 1482.55 2042.77 1482.55 Q2046.4 1482.55 2048.2 1479.01 Q2050.03 1475.44 2050.03 1468.33 Q2050.03 1461.2 2048.2 1457.66 Q2046.4 1454.1 2042.77 1454.1 M2042.77 1450.39 Q2048.58 1450.39 2051.63 1455 Q2054.71 1459.58 2054.71 1468.33 Q2054.71 1477.06 2051.63 1481.67 Q2048.58 1486.25 2042.77 1486.25 Q2036.95 1486.25 2033.88 1481.67 Q2030.82 1477.06 2030.82 1468.33 Q2030.82 1459.58 2033.88 1455 Q2036.95 1450.39 2042.77 1450.39 Z" fill="#000000" fill-rule="nonzero" fill-opacity="1" /><path clip-path="url(#clip640)" d="M1246.12 1520.52 L1254.77 1520.52 L1275.85 1560.28 L1275.85 1520.52 L1282.08 1520.52 L1282.08 1568.04 L1273.43 1568.04 L1252.36 1528.29 L1252.36 1568.04 L1246.12 1568.04 L1246.12 1520.52 Z" fill="#000000" fill-rule="nonzero" fill-opacity="1" /><polyline clip-path="url(#clip642)" style="stroke:#000000; stroke-linecap:round; stroke-linejoin:round; stroke-width:2; stroke-opacity:0.1; fill:none" points="175.445,1386.31 2352.76,1386.31 "/>
<polyline clip-path="url(#clip642)" style="stroke:#000000; stroke-linecap:round; stroke-linejoin:round; stroke-width:2; stroke-opacity:0.1; fill:none" points="175.445,1175.74 2352.76,1175.74 "/>
<polyline clip-path="url(#clip642)" style="stroke:#000000; stroke-linecap:round; stroke-linejoin:round; stroke-width:2; stroke-opacity:0.1; fill:none" points="175.445,965.177 2352.76,965.177 "/>
<polyline clip-path="url(#clip642)" style="stroke:#000000; stroke-linecap:round; stroke-linejoin:round; stroke-width:2; stroke-opacity:0.1; fill:none" points="175.445,754.613 2352.76,754.613 "/>
<polyline clip-path="url(#clip642)" style="stroke:#000000; stroke-linecap:round; stroke-linejoin:round; stroke-width:2; stroke-opacity:0.1; fill:none" points="175.445,544.049 2352.76,544.049 "/>
<polyline clip-path="url(#clip642)" style="stroke:#000000; stroke-linecap:round; stroke-linejoin:round; stroke-width:2; stroke-opacity:0.1; fill:none" points="175.445,333.484 2352.76,333.484 "/>
<polyline clip-path="url(#clip642)" style="stroke:#000000; stroke-linecap:round; stroke-linejoin:round; stroke-width:2; stroke-opacity:0.1; fill:none" points="175.445,122.92 2352.76,122.92 "/>
<polyline clip-path="url(#clip640)" style="stroke:#000000; stroke-linecap:round; stroke-linejoin:round; stroke-width:4; stroke-opacity:1; fill:none" points="175.445,1423.18 175.445,47.2441 "/>
<polyline clip-path="url(#clip640)" style="stroke:#000000; stroke-linecap:round; stroke-linejoin:round; stroke-width:4; stroke-opacity:1; fill:none" points="175.445,1386.31 194.343,1386.31 "/>
<polyline clip-path="url(#clip640)" style="stroke:#000000; stroke-linecap:round; stroke-linejoin:round; stroke-width:4; stroke-opacity:1; fill:none" points="175.445,1175.74 194.343,1175.74 "/>
<polyline clip-path="url(#clip640)" style="stroke:#000000; stroke-linecap:round; stroke-linejoin:round; stroke-width:4; stroke-opacity:1; fill:none" points="175.445,965.177 194.343,965.177 "/>
<polyline clip-path="url(#clip640)" style="stroke:#000000; stroke-linecap:round; stroke-linejoin:round; stroke-width:4; stroke-opacity:1; fill:none" points="175.445,754.613 194.343,754.613 "/>
<polyline clip-path="url(#clip640)" style="stroke:#000000; stroke-linecap:round; stroke-linejoin:round; stroke-width:4; stroke-opacity:1; fill:none" points="175.445,544.049 194.343,544.049 "/>
<polyline clip-path="url(#clip640)" style="stroke:#000000; stroke-linecap:round; stroke-linejoin:round; stroke-width:4; stroke-opacity:1; fill:none" points="175.445,333.484 194.343,333.484 "/>
<polyline clip-path="url(#clip640)" style="stroke:#000000; stroke-linecap:round; stroke-linejoin:round; stroke-width:4; stroke-opacity:1; fill:none" points="175.445,122.92 194.343,122.92 "/>
<path clip-path="url(#clip640)" d="M127.501 1372.1 Q123.89 1372.1 122.061 1375.67 Q120.255 1379.21 120.255 1386.34 Q120.255 1393.45 122.061 1397.01 Q123.89 1400.55 127.501 1400.55 Q131.135 1400.55 132.941 1397.01 Q134.769 1393.45 134.769 1386.34 Q134.769 1379.21 132.941 1375.67 Q131.135 1372.1 127.501 1372.1 M127.501 1368.4 Q133.311 1368.4 136.367 1373.01 Q139.445 1377.59 139.445 1386.34 Q139.445 1395.07 136.367 1399.67 Q133.311 1404.26 127.501 1404.26 Q121.691 1404.26 118.612 1399.67 Q115.556 1395.07 115.556 1386.34 Q115.556 1377.59 118.612 1373.01 Q121.691 1368.4 127.501 1368.4 Z" fill="#000000" fill-rule="nonzero" fill-opacity="1" /><path clip-path="url(#clip640)" d="M119.538 1189.09 L127.177 1189.09 L127.177 1162.72 L118.867 1164.39 L118.867 1160.13 L127.13 1158.46 L131.806 1158.46 L131.806 1189.09 L139.445 1189.09 L139.445 1193.02 L119.538 1193.02 L119.538 1189.09 Z" fill="#000000" fill-rule="nonzero" fill-opacity="1" /><path clip-path="url(#clip640)" d="M123.126 978.522 L139.445 978.522 L139.445 982.457 L117.501 982.457 L117.501 978.522 Q120.163 975.767 124.746 971.138 Q129.353 966.485 130.533 965.142 Q132.779 962.619 133.658 960.883 Q134.561 959.124 134.561 957.434 Q134.561 954.679 132.617 952.943 Q130.695 951.207 127.593 951.207 Q125.394 951.207 122.941 951.971 Q120.51 952.735 117.732 954.286 L117.732 949.564 Q120.556 948.429 123.01 947.851 Q125.464 947.272 127.501 947.272 Q132.871 947.272 136.066 949.957 Q139.26 952.642 139.26 957.133 Q139.26 959.263 138.45 961.184 Q137.663 963.082 135.556 965.675 Q134.978 966.346 131.876 969.564 Q128.774 972.758 123.126 978.522 Z" fill="#000000" fill-rule="nonzero" fill-opacity="1" /><path clip-path="url(#clip640)" d="M132.316 753.259 Q135.672 753.976 137.547 756.245 Q139.445 758.513 139.445 761.847 Q139.445 766.962 135.927 769.763 Q132.408 772.564 125.927 772.564 Q123.751 772.564 121.436 772.124 Q119.144 771.708 116.691 770.851 L116.691 766.337 Q118.635 767.472 120.95 768.05 Q123.265 768.629 125.788 768.629 Q130.186 768.629 132.478 766.893 Q134.792 765.157 134.792 761.847 Q134.792 758.791 132.64 757.078 Q130.51 755.342 126.691 755.342 L122.663 755.342 L122.663 751.499 L126.876 751.499 Q130.325 751.499 132.154 750.134 Q133.982 748.745 133.982 746.152 Q133.982 743.49 132.084 742.078 Q130.209 740.643 126.691 740.643 Q124.769 740.643 122.57 741.06 Q120.371 741.476 117.732 742.356 L117.732 738.189 Q120.394 737.449 122.709 737.078 Q125.047 736.708 127.107 736.708 Q132.431 736.708 135.533 739.138 Q138.635 741.546 138.635 745.666 Q138.635 748.536 136.992 750.527 Q135.348 752.495 132.316 753.259 Z" fill="#000000" fill-rule="nonzero" fill-opacity="1" /><path clip-path="url(#clip640)" d="M129.862 530.843 L118.056 549.292 L129.862 549.292 L129.862 530.843 M128.635 526.769 L134.515 526.769 L134.515 549.292 L139.445 549.292 L139.445 553.181 L134.515 553.181 L134.515 561.329 L129.862 561.329 L129.862 553.181 L114.26 553.181 L114.26 548.667 L128.635 526.769 Z" fill="#000000" fill-rule="nonzero" fill-opacity="1" /><path clip-path="url(#clip640)" d="M118.543 316.204 L136.899 316.204 L136.899 320.14 L122.825 320.14 L122.825 328.612 Q123.843 328.265 124.862 328.103 Q125.88 327.917 126.899 327.917 Q132.686 327.917 136.066 331.089 Q139.445 334.26 139.445 339.677 Q139.445 345.255 135.973 348.357 Q132.501 351.436 126.181 351.436 Q124.005 351.436 121.737 351.065 Q119.492 350.695 117.084 349.954 L117.084 345.255 Q119.168 346.389 121.39 346.945 Q123.612 347.501 126.089 347.501 Q130.093 347.501 132.431 345.394 Q134.769 343.288 134.769 339.677 Q134.769 336.065 132.431 333.959 Q130.093 331.853 126.089 331.853 Q124.214 331.853 122.339 332.269 Q120.487 332.686 118.543 333.565 L118.543 316.204 Z" fill="#000000" fill-rule="nonzero" fill-opacity="1" /><path clip-path="url(#clip640)" d="M127.917 121.057 Q124.769 121.057 122.918 123.21 Q121.089 125.362 121.089 129.112 Q121.089 132.839 122.918 135.015 Q124.769 137.168 127.917 137.168 Q131.066 137.168 132.894 135.015 Q134.746 132.839 134.746 129.112 Q134.746 125.362 132.894 123.21 Q131.066 121.057 127.917 121.057 M137.2 106.404 L137.2 110.663 Q135.441 109.83 133.635 109.39 Q131.853 108.95 130.093 108.95 Q125.464 108.95 123.01 112.075 Q120.58 115.2 120.232 121.52 Q121.598 119.506 123.658 118.441 Q125.718 117.353 128.195 117.353 Q133.404 117.353 136.413 120.524 Q139.445 123.673 139.445 129.112 Q139.445 134.436 136.297 137.654 Q133.149 140.872 127.917 140.872 Q121.922 140.872 118.751 136.288 Q115.58 131.682 115.58 122.955 Q115.58 114.761 119.468 109.9 Q123.357 105.015 129.908 105.015 Q131.667 105.015 133.45 105.363 Q135.255 105.71 137.2 106.404 Z" fill="#000000" fill-rule="nonzero" fill-opacity="1" /><path clip-path="url(#clip640)" d="M18.0438 969.215 L24.314 969.215 Q22.5634 972.876 21.704 976.122 Q20.8447 979.369 20.8447 982.392 Q20.8447 987.644 22.8817 990.509 Q24.9187 993.341 28.6745 993.341 Q31.8255 993.341 33.4488 991.463 Q35.0402 989.554 36.0269 984.27 L36.8226 980.387 Q38.1912 973.194 41.6605 969.788 Q45.098 966.351 50.8908 966.351 Q57.7976 966.351 61.3624 970.998 Q64.9272 975.613 64.9272 984.557 Q64.9272 987.931 64.1633 991.75 Q63.3994 995.538 61.9035 999.612 L55.2831 999.612 Q57.4793 995.697 58.5933 991.941 Q59.7073 988.185 59.7073 984.557 Q59.7073 979.05 57.543 976.058 Q55.3786 973.067 51.3682 973.067 Q47.8671 973.067 45.8937 975.231 Q43.9204 977.363 42.9337 982.265 L42.1698 986.18 Q40.7375 993.373 37.682 996.588 Q34.6264 999.803 29.1837 999.803 Q22.8817 999.803 19.2532 995.378 Q15.6248 990.922 15.6248 983.124 Q15.6248 979.782 16.2295 976.313 Q16.8343 972.844 18.0438 969.215 Z" fill="#000000" fill-rule="nonzero" fill-opacity="1" /><path clip-path="url(#clip640)" d="M32.4621 942.766 Q32.4621 947.476 36.1542 950.214 Q39.8145 952.951 46.212 952.951 Q52.6095 952.951 56.3017 950.246 Q59.9619 947.508 59.9619 942.766 Q59.9619 938.087 56.2698 935.35 Q52.5777 932.613 46.212 932.613 Q39.8781 932.613 36.186 935.35 Q32.4621 938.087 32.4621 942.766 M27.4968 942.766 Q27.4968 935.127 32.4621 930.766 Q37.4273 926.406 46.212 926.406 Q54.9649 926.406 59.9619 930.766 Q64.9272 935.127 64.9272 942.766 Q64.9272 950.437 59.9619 954.797 Q54.9649 959.126 46.212 959.126 Q37.4273 959.126 32.4621 954.797 Q27.4968 950.437 27.4968 942.766 Z" fill="#000000" fill-rule="nonzero" fill-opacity="1" /><path clip-path="url(#clip640)" d="M14.479 916.698 L14.479 910.842 L64.0042 910.842 L64.0042 916.698 L14.479 916.698 Z" fill="#000000" fill-rule="nonzero" fill-opacity="1" /><path clip-path="url(#clip640)" d="M49.9359 899.193 L28.3562 899.193 L28.3562 893.336 L49.7131 893.336 Q54.7739 893.336 57.3202 891.363 Q59.8346 889.389 59.8346 885.443 Q59.8346 880.7 56.8109 877.963 Q53.7872 875.194 48.5673 875.194 L28.3562 875.194 L28.3562 869.337 L64.0042 869.337 L64.0042 875.194 L58.5296 875.194 Q61.7762 877.326 63.3676 880.159 Q64.9272 882.96 64.9272 886.684 Q64.9272 892.827 61.1078 896.01 Q57.2883 899.193 49.9359 899.193 M27.4968 884.456 L27.4968 884.456 Z" fill="#000000" fill-rule="nonzero" fill-opacity="1" /><path clip-path="url(#clip640)" d="M18.2347 851.482 L28.3562 851.482 L28.3562 839.419 L32.9077 839.419 L32.9077 851.482 L52.2594 851.482 Q56.6199 851.482 57.8613 850.304 Q59.1026 849.094 59.1026 845.434 L59.1026 839.419 L64.0042 839.419 L64.0042 845.434 Q64.0042 852.214 61.4897 854.792 Q58.9434 857.37 52.2594 857.37 L32.9077 857.37 L32.9077 861.667 L28.3562 861.667 L28.3562 857.37 L18.2347 857.37 L18.2347 851.482 Z" fill="#000000" fill-rule="nonzero" fill-opacity="1" /><path clip-path="url(#clip640)" d="M28.3562 831.716 L28.3562 825.86 L64.0042 825.86 L64.0042 831.716 L28.3562 831.716 M14.479 831.716 L14.479 825.86 L21.895 825.86 L21.895 831.716 L14.479 831.716 Z" fill="#000000" fill-rule="nonzero" fill-opacity="1" /><path clip-path="url(#clip640)" d="M32.4621 799.792 Q32.4621 804.503 36.1542 807.24 Q39.8145 809.977 46.212 809.977 Q52.6095 809.977 56.3017 807.272 Q59.9619 804.535 59.9619 799.792 Q59.9619 795.113 56.2698 792.376 Q52.5777 789.639 46.212 789.639 Q39.8781 789.639 36.186 792.376 Q32.4621 795.113 32.4621 799.792 M27.4968 799.792 Q27.4968 792.153 32.4621 787.793 Q37.4273 783.432 46.212 783.432 Q54.9649 783.432 59.9619 787.793 Q64.9272 792.153 64.9272 799.792 Q64.9272 807.463 59.9619 811.823 Q54.9649 816.152 46.212 816.152 Q37.4273 816.152 32.4621 811.823 Q27.4968 807.463 27.4968 799.792 Z" fill="#000000" fill-rule="nonzero" fill-opacity="1" /><path clip-path="url(#clip640)" d="M42.4881 744.092 L64.0042 744.092 L64.0042 749.949 L42.679 749.949 Q37.6183 749.949 35.1038 751.922 Q32.5894 753.895 32.5894 757.842 Q32.5894 762.585 35.6131 765.322 Q38.6368 768.059 43.8567 768.059 L64.0042 768.059 L64.0042 773.947 L28.3562 773.947 L28.3562 768.059 L33.8944 768.059 Q30.6797 765.958 29.0883 763.126 Q27.4968 760.261 27.4968 756.537 Q27.4968 750.394 31.3163 747.243 Q35.1038 744.092 42.4881 744.092 Z" fill="#000000" fill-rule="nonzero" fill-opacity="1" /><path clip-path="url(#clip640)" d="M18.2347 705.898 L28.3562 705.898 L28.3562 693.835 L32.9077 693.835 L32.9077 705.898 L52.2594 705.898 Q56.6199 705.898 57.8613 704.72 Q59.1026 703.511 59.1026 699.85 L59.1026 693.835 L64.0042 693.835 L64.0042 699.85 Q64.0042 706.63 61.4897 709.208 Q58.9434 711.786 52.2594 711.786 L32.9077 711.786 L32.9077 716.083 L28.3562 716.083 L28.3562 711.786 L18.2347 711.786 L18.2347 705.898 Z" fill="#000000" fill-rule="nonzero" fill-opacity="1" /><path clip-path="url(#clip640)" d="M28.3562 686.132 L28.3562 680.276 L64.0042 680.276 L64.0042 686.132 L28.3562 686.132 M14.479 686.132 L14.479 680.276 L21.895 680.276 L21.895 686.132 L14.479 686.132 Z" fill="#000000" fill-rule="nonzero" fill-opacity="1" /><path clip-path="url(#clip640)" d="M35.1993 640.267 Q31.2526 638.071 29.3747 635.016 Q27.4968 631.96 27.4968 627.822 Q27.4968 622.253 31.4117 619.229 Q35.2948 616.205 42.4881 616.205 L64.0042 616.205 L64.0042 622.093 L42.679 622.093 Q37.5546 622.093 35.072 623.908 Q32.5894 625.722 32.5894 629.446 Q32.5894 633.997 35.6131 636.639 Q38.6368 639.281 43.8567 639.281 L64.0042 639.281 L64.0042 645.169 L42.679 645.169 Q37.5228 645.169 35.072 646.983 Q32.5894 648.798 32.5894 652.585 Q32.5894 657.073 35.6449 659.715 Q38.6686 662.356 43.8567 662.356 L64.0042 662.356 L64.0042 668.245 L28.3562 668.245 L28.3562 662.356 L33.8944 662.356 Q30.616 660.351 29.0564 657.55 Q27.4968 654.749 27.4968 650.898 Q27.4968 647.015 29.4702 644.31 Q31.4436 641.572 35.1993 640.267 Z" fill="#000000" fill-rule="nonzero" fill-opacity="1" /><path clip-path="url(#clip640)" d="M44.7161 574.032 L47.5806 574.032 L47.5806 600.959 Q53.6281 600.577 56.8109 597.331 Q59.9619 594.052 59.9619 588.228 Q59.9619 584.854 59.1344 581.703 Q58.3069 578.52 56.6518 575.401 L62.1899 575.401 Q63.5267 578.552 64.227 581.862 Q64.9272 585.172 64.9272 588.578 Q64.9272 597.108 59.9619 602.105 Q54.9967 607.07 46.5303 607.07 Q37.7774 607.07 32.6531 602.36 Q27.4968 597.617 27.4968 589.596 Q27.4968 582.403 32.1438 578.234 Q36.7589 574.032 44.7161 574.032 M42.9973 579.889 Q38.1912 579.952 35.3266 582.594 Q32.4621 585.204 32.4621 589.533 Q32.4621 594.434 35.2312 597.394 Q38.0002 600.323 43.0292 600.768 L42.9973 579.889 Z" fill="#000000" fill-rule="nonzero" fill-opacity="1" /><path clip-path="url(#clip640)" d="M14.5426 529.631 Q21.8632 533.896 29.0246 535.965 Q36.186 538.034 43.5384 538.034 Q50.8908 538.034 58.1159 535.965 Q65.3091 533.865 72.5979 529.631 L72.5979 534.724 Q65.1182 539.498 57.8931 541.885 Q50.668 544.241 43.5384 544.241 Q36.4406 544.241 29.2474 541.885 Q22.0542 539.53 14.5426 534.724 L14.5426 529.631 Z" fill="#000000" fill-rule="nonzero" fill-opacity="1" /><path clip-path="url(#clip640)" d="M29.4065 495.543 L34.9447 495.543 Q33.6716 498.026 33.035 500.699 Q32.3984 503.373 32.3984 506.238 Q32.3984 510.598 33.7352 512.794 Q35.072 514.959 37.7456 514.959 Q39.7826 514.959 40.9603 513.399 Q42.1061 511.839 43.1565 507.129 L43.6021 505.124 Q44.9389 498.885 47.3897 496.275 Q49.8086 493.633 54.1691 493.633 Q59.1344 493.633 62.0308 497.58 Q64.9272 501.495 64.9272 508.37 Q64.9272 511.235 64.3543 514.354 Q63.8132 517.441 62.6992 520.879 L56.6518 520.879 Q58.3387 517.632 59.198 514.481 Q60.0256 511.33 60.0256 508.243 Q60.0256 504.105 58.6251 501.877 Q57.1929 499.649 54.6147 499.649 Q52.2276 499.649 50.9545 501.272 Q49.6813 502.864 48.5037 508.306 L48.0262 510.343 Q46.8804 515.786 44.5251 518.205 Q42.138 520.624 38.0002 520.624 Q32.9713 520.624 30.2341 517.059 Q27.4968 513.494 27.4968 506.938 Q27.4968 503.691 27.9743 500.827 Q28.4517 497.962 29.4065 495.543 Z" fill="#000000" fill-rule="nonzero" fill-opacity="1" /><path clip-path="url(#clip640)" d="M14.5426 485.231 L14.5426 480.138 Q22.0542 475.364 29.2474 473.009 Q36.4406 470.621 43.5384 470.621 Q50.668 470.621 57.8931 473.009 Q65.1182 475.364 72.5979 480.138 L72.5979 485.231 Q65.3091 480.997 58.1159 478.929 Q50.8908 476.828 43.5384 476.828 Q36.186 476.828 29.0246 478.929 Q21.8632 480.997 14.5426 485.231 Z" fill="#000000" fill-rule="nonzero" fill-opacity="1" /><polyline clip-path="url(#clip642)" style="stroke:#009af9; stroke-linecap:round; stroke-linejoin:round; stroke-width:4; stroke-opacity:1; fill:none" points="237.067,1361.92 310.427,1346.07 457.146,1295.82 677.224,1196.78 970.662,1060.47 1337.46,844.557 1777.62,536.56 2291.13,86.1857 "/>
<polyline clip-path="url(#clip642)" style="stroke:#e26f46; stroke-linecap:round; stroke-linejoin:round; stroke-width:4; stroke-opacity:1; fill:none" points="237.067,1373.86 310.427,1361.53 457.146,1336.54 677.224,1278.71 970.662,1234.63 1337.46,1141.22 1777.62,1007.41 2291.13,819.605 "/>
<polyline clip-path="url(#clip642)" style="stroke:#3da44d; stroke-linecap:round; stroke-linejoin:round; stroke-width:4; stroke-opacity:1; fill:none" points="237.067,1376.66 310.427,1370.22 457.146,1351.27 677.224,1318.21 970.662,1285.48 1337.46,1239.01 1777.62,1181.03 2291.13,1109.49 "/>
<polyline clip-path="url(#clip642)" style="stroke:#c271d2; stroke-linecap:round; stroke-linejoin:round; stroke-width:4; stroke-opacity:1; fill:none" points="237.067,1382.66 310.427,1384.24 457.146,1379.72 677.224,1378.85 970.662,1372.78 1337.46,1367.66 1777.62,1362.45 2291.13,1353.89 "/>
<path clip-path="url(#clip640)" d="M248.022 352.309 L1106.05 352.309 L1106.05 93.1086 L248.022 93.1086  Z" fill="#ffffff" fill-rule="evenodd" fill-opacity="1"/>
<polyline clip-path="url(#clip640)" style="stroke:#000000; stroke-linecap:round; stroke-linejoin:round; stroke-width:4; stroke-opacity:1; fill:none" points="248.022,352.309 1106.05,352.309 1106.05,93.1086 248.022,93.1086 248.022,352.309 "/>
<polyline clip-path="url(#clip640)" style="stroke:#009af9; stroke-linecap:round; stroke-linejoin:round; stroke-width:4; stroke-opacity:1; fill:none" points="272.215,144.949 417.369,144.949 "/>
<path clip-path="url(#clip640)" d="M445.496 127.669 L445.496 140.516 L441.561 140.516 L441.561 127.669 L445.496 127.669 M454.246 127.669 L454.246 140.516 L450.311 140.516 L450.311 127.669 L454.246 127.669 Z" fill="#000000" fill-rule="nonzero" fill-opacity="1" /><path clip-path="url(#clip640)" d="M463.459 127.669 L468.135 127.669 L468.135 162.229 L463.459 162.229 L463.459 127.669 Z" fill="#000000" fill-rule="nonzero" fill-opacity="1" /><path clip-path="url(#clip640)" d="M498.806 146.581 L498.806 162.229 L494.547 162.229 L494.547 146.719 Q494.547 143.039 493.112 141.21 Q491.676 139.382 488.806 139.382 Q485.357 139.382 483.366 141.581 Q481.376 143.78 481.376 147.576 L481.376 162.229 L477.093 162.229 L477.093 136.303 L481.376 136.303 L481.376 140.331 Q482.903 137.993 484.964 136.835 Q487.047 135.678 489.755 135.678 Q494.223 135.678 496.514 138.456 Q498.806 141.21 498.806 146.581 Z" fill="#000000" fill-rule="nonzero" fill-opacity="1" /><path clip-path="url(#clip640)" d="M511.514 128.942 L511.514 136.303 L520.287 136.303 L520.287 139.613 L511.514 139.613 L511.514 153.687 Q511.514 156.858 512.371 157.761 Q513.25 158.664 515.912 158.664 L520.287 158.664 L520.287 162.229 L515.912 162.229 Q510.982 162.229 509.107 160.4 Q507.232 158.548 507.232 153.687 L507.232 139.613 L504.107 139.613 L504.107 136.303 L507.232 136.303 L507.232 128.942 L511.514 128.942 Z" fill="#000000" fill-rule="nonzero" fill-opacity="1" /><path clip-path="url(#clip640)" d="M525.449 151.997 L525.449 136.303 L529.709 136.303 L529.709 151.835 Q529.709 155.516 531.144 157.368 Q532.579 159.196 535.449 159.196 Q538.898 159.196 540.889 156.997 Q542.903 154.798 542.903 151.002 L542.903 136.303 L547.162 136.303 L547.162 162.229 L542.903 162.229 L542.903 158.247 Q541.352 160.608 539.292 161.766 Q537.255 162.9 534.547 162.9 Q530.079 162.9 527.764 160.122 Q525.449 157.344 525.449 151.997 M536.167 135.678 L536.167 135.678 Z" fill="#000000" fill-rule="nonzero" fill-opacity="1" /><path clip-path="url(#clip640)" d="M555.935 136.303 L560.195 136.303 L560.195 162.229 L555.935 162.229 L555.935 136.303 M555.935 126.21 L560.195 126.21 L560.195 131.604 L555.935 131.604 L555.935 126.21 Z" fill="#000000" fill-rule="nonzero" fill-opacity="1" /><path clip-path="url(#clip640)" d="M573.32 128.942 L573.32 136.303 L582.093 136.303 L582.093 139.613 L573.32 139.613 L573.32 153.687 Q573.32 156.858 574.176 157.761 Q575.056 158.664 577.718 158.664 L582.093 158.664 L582.093 162.229 L577.718 162.229 Q572.787 162.229 570.912 160.4 Q569.037 158.548 569.037 153.687 L569.037 139.613 L565.912 139.613 L565.912 136.303 L569.037 136.303 L569.037 128.942 L573.32 128.942 Z" fill="#000000" fill-rule="nonzero" fill-opacity="1" /><path clip-path="url(#clip640)" d="M587.694 136.303 L591.954 136.303 L591.954 162.229 L587.694 162.229 L587.694 136.303 M587.694 126.21 L591.954 126.21 L591.954 131.604 L587.694 131.604 L587.694 126.21 Z" fill="#000000" fill-rule="nonzero" fill-opacity="1" /><path clip-path="url(#clip640)" d="M597.81 136.303 L602.324 136.303 L610.426 158.062 L618.528 136.303 L623.041 136.303 L613.319 162.229 L607.532 162.229 L597.81 136.303 Z" fill="#000000" fill-rule="nonzero" fill-opacity="1" /><path clip-path="url(#clip640)" d="M651.097 148.201 L651.097 150.284 L631.514 150.284 Q631.791 154.682 634.153 156.997 Q636.537 159.289 640.773 159.289 Q643.227 159.289 645.518 158.687 Q647.833 158.085 650.102 156.881 L650.102 160.909 Q647.81 161.881 645.402 162.391 Q642.995 162.9 640.518 162.9 Q634.315 162.9 630.68 159.289 Q627.069 155.678 627.069 149.52 Q627.069 143.155 630.495 139.428 Q633.944 135.678 639.777 135.678 Q645.009 135.678 648.041 139.057 Q651.097 142.414 651.097 148.201 M646.838 146.951 Q646.791 143.456 644.87 141.372 Q642.972 139.289 639.824 139.289 Q636.259 139.289 634.106 141.303 Q631.977 143.317 631.653 146.974 L646.838 146.951 Z" fill="#000000" fill-rule="nonzero" fill-opacity="1" /><path clip-path="url(#clip640)" d="M662.115 127.669 L662.115 140.516 L658.18 140.516 L658.18 127.669 L662.115 127.669 M670.865 127.669 L670.865 140.516 L666.93 140.516 L666.93 127.669 L670.865 127.669 Z" fill="#000000" fill-rule="nonzero" fill-opacity="1" /><path clip-path="url(#clip640)" d="M705.194 126.257 Q702.092 131.581 700.587 136.789 Q699.083 141.997 699.083 147.344 Q699.083 152.692 700.587 157.946 Q702.115 163.178 705.194 168.479 L701.49 168.479 Q698.018 163.039 696.282 157.784 Q694.569 152.53 694.569 147.344 Q694.569 142.182 696.282 136.951 Q697.995 131.72 701.49 126.257 L705.194 126.257 Z" fill="#000000" fill-rule="nonzero" fill-opacity="1" /><path clip-path="url(#clip640)" d="M735.008 146.581 L735.008 162.229 L730.749 162.229 L730.749 146.719 Q730.749 143.039 729.314 141.21 Q727.879 139.382 725.009 139.382 Q721.559 139.382 719.569 141.581 Q717.578 143.78 717.578 147.576 L717.578 162.229 L713.296 162.229 L713.296 136.303 L717.578 136.303 L717.578 140.331 Q719.106 137.993 721.166 136.835 Q723.249 135.678 725.958 135.678 Q730.425 135.678 732.717 138.456 Q735.008 141.21 735.008 146.581 Z" fill="#000000" fill-rule="nonzero" fill-opacity="1" /><path clip-path="url(#clip640)" d="M753.55 139.289 Q750.124 139.289 748.133 141.974 Q746.143 144.636 746.143 149.289 Q746.143 153.942 748.11 156.627 Q750.101 159.289 753.55 159.289 Q756.953 159.289 758.944 156.604 Q760.934 153.918 760.934 149.289 Q760.934 144.682 758.944 141.997 Q756.953 139.289 753.55 139.289 M753.55 135.678 Q759.106 135.678 762.277 139.289 Q765.448 142.9 765.448 149.289 Q765.448 155.655 762.277 159.289 Q759.106 162.9 753.55 162.9 Q747.971 162.9 744.8 159.289 Q741.652 155.655 741.652 149.289 Q741.652 142.9 744.8 139.289 Q747.971 135.678 753.55 135.678 Z" fill="#000000" fill-rule="nonzero" fill-opacity="1" /><path clip-path="url(#clip640)" d="M776.721 128.942 L776.721 136.303 L785.494 136.303 L785.494 139.613 L776.721 139.613 L776.721 153.687 Q776.721 156.858 777.578 157.761 Q778.457 158.664 781.119 158.664 L785.494 158.664 L785.494 162.229 L781.119 162.229 Q776.189 162.229 774.314 160.4 Q772.439 158.548 772.439 153.687 L772.439 139.613 L769.314 139.613 L769.314 136.303 L772.439 136.303 L772.439 128.942 L776.721 128.942 Z" fill="#000000" fill-rule="nonzero" fill-opacity="1" /><path clip-path="url(#clip640)" d="M810.378 128.942 L810.378 136.303 L819.152 136.303 L819.152 139.613 L810.378 139.613 L810.378 153.687 Q810.378 156.858 811.235 157.761 Q812.115 158.664 814.777 158.664 L819.152 158.664 L819.152 162.229 L814.777 162.229 Q809.846 162.229 807.971 160.4 Q806.096 158.548 806.096 153.687 L806.096 139.613 L802.971 139.613 L802.971 136.303 L806.096 136.303 L806.096 128.942 L810.378 128.942 Z" fill="#000000" fill-rule="nonzero" fill-opacity="1" /><path clip-path="url(#clip640)" d="M835.54 164.636 Q833.735 169.266 832.022 170.678 Q830.309 172.09 827.439 172.09 L824.036 172.09 L824.036 168.525 L826.536 168.525 Q828.295 168.525 829.267 167.692 Q830.239 166.858 831.42 163.756 L832.184 161.812 L821.698 136.303 L826.212 136.303 L834.313 156.581 L842.415 136.303 L846.929 136.303 L835.54 164.636 Z" fill="#000000" fill-rule="nonzero" fill-opacity="1" /><path clip-path="url(#clip640)" d="M856.929 158.34 L856.929 172.09 L852.647 172.09 L852.647 136.303 L856.929 136.303 L856.929 140.238 Q858.272 137.923 860.309 136.812 Q862.369 135.678 865.216 135.678 Q869.938 135.678 872.878 139.428 Q875.841 143.178 875.841 149.289 Q875.841 155.4 872.878 159.15 Q869.938 162.9 865.216 162.9 Q862.369 162.9 860.309 161.789 Q858.272 160.655 856.929 158.34 M871.42 149.289 Q871.42 144.59 869.475 141.928 Q867.554 139.243 864.174 139.243 Q860.795 139.243 858.85 141.928 Q856.929 144.59 856.929 149.289 Q856.929 153.988 858.85 156.673 Q860.795 159.335 864.174 159.335 Q867.554 159.335 869.475 156.673 Q871.42 153.988 871.42 149.289 Z" fill="#000000" fill-rule="nonzero" fill-opacity="1" /><path clip-path="url(#clip640)" d="M905.077 148.201 L905.077 150.284 L885.494 150.284 Q885.772 154.682 888.133 156.997 Q890.517 159.289 894.753 159.289 Q897.207 159.289 899.498 158.687 Q901.813 158.085 904.082 156.881 L904.082 160.909 Q901.79 161.881 899.383 162.391 Q896.975 162.9 894.498 162.9 Q888.295 162.9 884.66 159.289 Q881.049 155.678 881.049 149.52 Q881.049 143.155 884.475 139.428 Q887.924 135.678 893.758 135.678 Q898.989 135.678 902.021 139.057 Q905.077 142.414 905.077 148.201 M900.818 146.951 Q900.771 143.456 898.85 141.372 Q896.952 139.289 893.804 139.289 Q890.239 139.289 888.086 141.303 Q885.957 143.317 885.633 146.974 L900.818 146.951 Z" fill="#000000" fill-rule="nonzero" fill-opacity="1" /><path clip-path="url(#clip640)" d="M943.665 137.067 L943.665 141.094 Q941.859 140.169 939.915 139.706 Q937.97 139.243 935.887 139.243 Q932.716 139.243 931.119 140.215 Q929.544 141.187 929.544 143.131 Q929.544 144.613 930.679 145.469 Q931.813 146.303 935.239 147.067 L936.697 147.391 Q941.234 148.363 943.132 150.145 Q945.054 151.905 945.054 155.076 Q945.054 158.687 942.183 160.793 Q939.336 162.9 934.336 162.9 Q932.253 162.9 929.984 162.483 Q927.739 162.09 925.239 161.28 L925.239 156.881 Q927.6 158.108 929.892 158.733 Q932.183 159.335 934.429 159.335 Q937.438 159.335 939.058 158.317 Q940.679 157.275 940.679 155.4 Q940.679 153.664 939.498 152.738 Q938.341 151.812 934.382 150.956 L932.901 150.608 Q928.943 149.775 927.183 148.062 Q925.424 146.326 925.424 143.317 Q925.424 139.659 928.017 137.669 Q930.609 135.678 935.378 135.678 Q937.739 135.678 939.822 136.025 Q941.906 136.372 943.665 137.067 Z" fill="#000000" fill-rule="nonzero" fill-opacity="1" /><path clip-path="url(#clip640)" d="M956.049 128.942 L956.049 136.303 L964.822 136.303 L964.822 139.613 L956.049 139.613 L956.049 153.687 Q956.049 156.858 956.905 157.761 Q957.785 158.664 960.447 158.664 L964.822 158.664 L964.822 162.229 L960.447 162.229 Q955.517 162.229 953.642 160.4 Q951.767 158.548 951.767 153.687 L951.767 139.613 L948.642 139.613 L948.642 136.303 L951.767 136.303 L951.767 128.942 L956.049 128.942 Z" fill="#000000" fill-rule="nonzero" fill-opacity="1" /><path clip-path="url(#clip640)" d="M982.206 149.196 Q977.044 149.196 975.053 150.377 Q973.063 151.557 973.063 154.405 Q973.063 156.673 974.544 158.016 Q976.049 159.335 978.618 159.335 Q982.16 159.335 984.29 156.835 Q986.442 154.312 986.442 150.145 L986.442 149.196 L982.206 149.196 M990.702 147.437 L990.702 162.229 L986.442 162.229 L986.442 158.293 Q984.984 160.655 982.808 161.789 Q980.632 162.9 977.484 162.9 Q973.503 162.9 971.141 160.678 Q968.804 158.432 968.804 154.682 Q968.804 150.307 971.72 148.085 Q974.66 145.863 980.47 145.863 L986.442 145.863 L986.442 145.446 Q986.442 142.507 984.498 140.909 Q982.577 139.289 979.081 139.289 Q976.859 139.289 974.753 139.821 Q972.646 140.354 970.702 141.419 L970.702 137.483 Q973.04 136.581 975.239 136.141 Q977.438 135.678 979.521 135.678 Q985.146 135.678 987.924 138.594 Q990.702 141.511 990.702 147.437 Z" fill="#000000" fill-rule="nonzero" fill-opacity="1" /><path clip-path="url(#clip640)" d="M1018.09 149.289 Q1018.09 144.59 1016.14 141.928 Q1014.22 139.243 1010.84 139.243 Q1007.46 139.243 1005.52 141.928 Q1003.59 144.59 1003.59 149.289 Q1003.59 153.988 1005.52 156.673 Q1007.46 159.335 1010.84 159.335 Q1014.22 159.335 1016.14 156.673 Q1018.09 153.988 1018.09 149.289 M1003.59 140.238 Q1004.94 137.923 1006.97 136.812 Q1009.03 135.678 1011.88 135.678 Q1016.6 135.678 1019.54 139.428 Q1022.51 143.178 1022.51 149.289 Q1022.51 155.4 1019.54 159.15 Q1016.6 162.9 1011.88 162.9 Q1009.03 162.9 1006.97 161.789 Q1004.94 160.655 1003.59 158.34 L1003.59 162.229 L999.313 162.229 L999.313 126.21 L1003.59 126.21 L1003.59 140.238 Z" fill="#000000" fill-rule="nonzero" fill-opacity="1" /><path clip-path="url(#clip640)" d="M1029.57 126.21 L1033.83 126.21 L1033.83 162.229 L1029.57 162.229 L1029.57 126.21 Z" fill="#000000" fill-rule="nonzero" fill-opacity="1" /><path clip-path="url(#clip640)" d="M1064.91 148.201 L1064.91 150.284 L1045.33 150.284 Q1045.61 154.682 1047.97 156.997 Q1050.35 159.289 1054.59 159.289 Q1057.04 159.289 1059.34 158.687 Q1061.65 158.085 1063.92 156.881 L1063.92 160.909 Q1061.63 161.881 1059.22 162.391 Q1056.81 162.9 1054.34 162.9 Q1048.13 162.9 1044.5 159.289 Q1040.89 155.678 1040.89 149.52 Q1040.89 143.155 1044.31 139.428 Q1047.76 135.678 1053.59 135.678 Q1058.83 135.678 1061.86 139.057 Q1064.91 142.414 1064.91 148.201 M1060.65 146.951 Q1060.61 143.456 1058.69 141.372 Q1056.79 139.289 1053.64 139.289 Q1050.08 139.289 1047.92 141.303 Q1045.79 143.317 1045.47 146.974 L1060.65 146.951 Z" fill="#000000" fill-rule="nonzero" fill-opacity="1" /><path clip-path="url(#clip640)" d="M1071.23 126.257 L1074.94 126.257 Q1078.41 131.72 1080.12 136.951 Q1081.86 142.182 1081.86 147.344 Q1081.86 152.53 1080.12 157.784 Q1078.41 163.039 1074.94 168.479 L1071.23 168.479 Q1074.31 163.178 1075.82 157.946 Q1077.34 152.692 1077.34 147.344 Q1077.34 141.997 1075.82 136.789 Q1074.31 131.581 1071.23 126.257 Z" fill="#000000" fill-rule="nonzero" fill-opacity="1" /><polyline clip-path="url(#clip640)" style="stroke:#e26f46; stroke-linecap:round; stroke-linejoin:round; stroke-width:4; stroke-opacity:1; fill:none" points="272.215,196.789 417.369,196.789 "/>
<path clip-path="url(#clip640)" d="M445.496 179.509 L445.496 192.356 L441.561 192.356 L441.561 179.509 L445.496 179.509 M454.246 179.509 L454.246 192.356 L450.311 192.356 L450.311 179.509 L454.246 179.509 Z" fill="#000000" fill-rule="nonzero" fill-opacity="1" /><path clip-path="url(#clip640)" d="M463.459 179.509 L468.135 179.509 L468.135 214.069 L463.459 214.069 L463.459 179.509 Z" fill="#000000" fill-rule="nonzero" fill-opacity="1" /><path clip-path="url(#clip640)" d="M498.806 198.421 L498.806 214.069 L494.547 214.069 L494.547 198.559 Q494.547 194.879 493.112 193.05 Q491.676 191.222 488.806 191.222 Q485.357 191.222 483.366 193.421 Q481.376 195.62 481.376 199.416 L481.376 214.069 L477.093 214.069 L477.093 188.143 L481.376 188.143 L481.376 192.171 Q482.903 189.833 484.964 188.675 Q487.047 187.518 489.755 187.518 Q494.223 187.518 496.514 190.296 Q498.806 193.05 498.806 198.421 Z" fill="#000000" fill-rule="nonzero" fill-opacity="1" /><path clip-path="url(#clip640)" d="M511.514 180.782 L511.514 188.143 L520.287 188.143 L520.287 191.453 L511.514 191.453 L511.514 205.527 Q511.514 208.698 512.371 209.601 Q513.25 210.504 515.912 210.504 L520.287 210.504 L520.287 214.069 L515.912 214.069 Q510.982 214.069 509.107 212.24 Q507.232 210.388 507.232 205.527 L507.232 191.453 L504.107 191.453 L504.107 188.143 L507.232 188.143 L507.232 180.782 L511.514 180.782 Z" fill="#000000" fill-rule="nonzero" fill-opacity="1" /><path clip-path="url(#clip640)" d="M525.449 203.837 L525.449 188.143 L529.709 188.143 L529.709 203.675 Q529.709 207.356 531.144 209.208 Q532.579 211.036 535.449 211.036 Q538.898 211.036 540.889 208.837 Q542.903 206.638 542.903 202.842 L542.903 188.143 L547.162 188.143 L547.162 214.069 L542.903 214.069 L542.903 210.087 Q541.352 212.448 539.292 213.606 Q537.255 214.74 534.547 214.74 Q530.079 214.74 527.764 211.962 Q525.449 209.184 525.449 203.837 M536.167 187.518 L536.167 187.518 Z" fill="#000000" fill-rule="nonzero" fill-opacity="1" /><path clip-path="url(#clip640)" d="M555.935 188.143 L560.195 188.143 L560.195 214.069 L555.935 214.069 L555.935 188.143 M555.935 178.05 L560.195 178.05 L560.195 183.444 L555.935 183.444 L555.935 178.05 Z" fill="#000000" fill-rule="nonzero" fill-opacity="1" /><path clip-path="url(#clip640)" d="M573.32 180.782 L573.32 188.143 L582.093 188.143 L582.093 191.453 L573.32 191.453 L573.32 205.527 Q573.32 208.698 574.176 209.601 Q575.056 210.504 577.718 210.504 L582.093 210.504 L582.093 214.069 L577.718 214.069 Q572.787 214.069 570.912 212.24 Q569.037 210.388 569.037 205.527 L569.037 191.453 L565.912 191.453 L565.912 188.143 L569.037 188.143 L569.037 180.782 L573.32 180.782 Z" fill="#000000" fill-rule="nonzero" fill-opacity="1" /><path clip-path="url(#clip640)" d="M587.694 188.143 L591.954 188.143 L591.954 214.069 L587.694 214.069 L587.694 188.143 M587.694 178.05 L591.954 178.05 L591.954 183.444 L587.694 183.444 L587.694 178.05 Z" fill="#000000" fill-rule="nonzero" fill-opacity="1" /><path clip-path="url(#clip640)" d="M597.81 188.143 L602.324 188.143 L610.426 209.902 L618.528 188.143 L623.041 188.143 L613.319 214.069 L607.532 214.069 L597.81 188.143 Z" fill="#000000" fill-rule="nonzero" fill-opacity="1" /><path clip-path="url(#clip640)" d="M651.097 200.041 L651.097 202.124 L631.514 202.124 Q631.791 206.522 634.153 208.837 Q636.537 211.129 640.773 211.129 Q643.227 211.129 645.518 210.527 Q647.833 209.925 650.102 208.721 L650.102 212.749 Q647.81 213.721 645.402 214.231 Q642.995 214.74 640.518 214.74 Q634.315 214.74 630.68 211.129 Q627.069 207.518 627.069 201.36 Q627.069 194.995 630.495 191.268 Q633.944 187.518 639.777 187.518 Q645.009 187.518 648.041 190.897 Q651.097 194.254 651.097 200.041 M646.838 198.791 Q646.791 195.296 644.87 193.212 Q642.972 191.129 639.824 191.129 Q636.259 191.129 634.106 193.143 Q631.977 195.157 631.653 198.814 L646.838 198.791 Z" fill="#000000" fill-rule="nonzero" fill-opacity="1" /><path clip-path="url(#clip640)" d="M662.115 179.509 L662.115 192.356 L658.18 192.356 L658.18 179.509 L662.115 179.509 M670.865 179.509 L670.865 192.356 L666.93 192.356 L666.93 179.509 L670.865 179.509 Z" fill="#000000" fill-rule="nonzero" fill-opacity="1" /><path clip-path="url(#clip640)" d="M705.194 178.097 Q702.092 183.421 700.587 188.629 Q699.083 193.837 699.083 199.184 Q699.083 204.532 700.587 209.786 Q702.115 215.018 705.194 220.319 L701.49 220.319 Q698.018 214.879 696.282 209.624 Q694.569 204.37 694.569 199.184 Q694.569 194.022 696.282 188.791 Q697.995 183.56 701.49 178.097 L705.194 178.097 Z" fill="#000000" fill-rule="nonzero" fill-opacity="1" /><path clip-path="url(#clip640)" d="M717.671 180.782 L717.671 188.143 L726.444 188.143 L726.444 191.453 L717.671 191.453 L717.671 205.527 Q717.671 208.698 718.527 209.601 Q719.407 210.504 722.069 210.504 L726.444 210.504 L726.444 214.069 L722.069 214.069 Q717.138 214.069 715.263 212.24 Q713.388 210.388 713.388 205.527 L713.388 191.453 L710.263 191.453 L710.263 188.143 L713.388 188.143 L713.388 180.782 L717.671 180.782 Z" fill="#000000" fill-rule="nonzero" fill-opacity="1" /><path clip-path="url(#clip640)" d="M742.832 216.476 Q741.027 221.106 739.314 222.518 Q737.601 223.93 734.731 223.93 L731.328 223.93 L731.328 220.365 L733.828 220.365 Q735.587 220.365 736.559 219.532 Q737.532 218.698 738.712 215.596 L739.476 213.652 L728.99 188.143 L733.504 188.143 L741.606 208.421 L749.707 188.143 L754.221 188.143 L742.832 216.476 Z" fill="#000000" fill-rule="nonzero" fill-opacity="1" /><path clip-path="url(#clip640)" d="M764.221 210.18 L764.221 223.93 L759.939 223.93 L759.939 188.143 L764.221 188.143 L764.221 192.078 Q765.564 189.763 767.601 188.652 Q769.661 187.518 772.508 187.518 Q777.23 187.518 780.17 191.268 Q783.133 195.018 783.133 201.129 Q783.133 207.24 780.17 210.99 Q777.23 214.74 772.508 214.74 Q769.661 214.74 767.601 213.629 Q765.564 212.495 764.221 210.18 M778.712 201.129 Q778.712 196.43 776.767 193.768 Q774.846 191.083 771.467 191.083 Q768.087 191.083 766.143 193.768 Q764.221 196.43 764.221 201.129 Q764.221 205.828 766.143 208.513 Q768.087 211.175 771.467 211.175 Q774.846 211.175 776.767 208.513 Q778.712 205.828 778.712 201.129 Z" fill="#000000" fill-rule="nonzero" fill-opacity="1" /><path clip-path="url(#clip640)" d="M812.369 200.041 L812.369 202.124 L792.786 202.124 Q793.064 206.522 795.425 208.837 Q797.809 211.129 802.045 211.129 Q804.499 211.129 806.79 210.527 Q809.105 209.925 811.374 208.721 L811.374 212.749 Q809.082 213.721 806.675 214.231 Q804.267 214.74 801.791 214.74 Q795.587 214.74 791.953 211.129 Q788.342 207.518 788.342 201.36 Q788.342 194.995 791.767 191.268 Q795.216 187.518 801.05 187.518 Q806.281 187.518 809.314 190.897 Q812.369 194.254 812.369 200.041 M808.11 198.791 Q808.064 195.296 806.142 193.212 Q804.244 191.129 801.096 191.129 Q797.531 191.129 795.379 193.143 Q793.249 195.157 792.925 198.814 L808.11 198.791 Z" fill="#000000" fill-rule="nonzero" fill-opacity="1" /><path clip-path="url(#clip640)" d="M850.957 188.907 L850.957 192.934 Q849.151 192.009 847.207 191.546 Q845.263 191.083 843.179 191.083 Q840.008 191.083 838.411 192.055 Q836.837 193.027 836.837 194.971 Q836.837 196.453 837.971 197.309 Q839.105 198.143 842.531 198.907 L843.989 199.231 Q848.526 200.203 850.425 201.985 Q852.346 203.745 852.346 206.916 Q852.346 210.527 849.475 212.633 Q846.628 214.74 841.628 214.74 Q839.545 214.74 837.276 214.323 Q835.031 213.93 832.531 213.12 L832.531 208.721 Q834.892 209.948 837.184 210.573 Q839.475 211.175 841.721 211.175 Q844.73 211.175 846.35 210.157 Q847.971 209.115 847.971 207.24 Q847.971 205.504 846.79 204.578 Q845.633 203.652 841.675 202.796 L840.193 202.448 Q836.235 201.615 834.476 199.902 Q832.716 198.166 832.716 195.157 Q832.716 191.499 835.309 189.509 Q837.901 187.518 842.67 187.518 Q845.031 187.518 847.114 187.865 Q849.198 188.212 850.957 188.907 Z" fill="#000000" fill-rule="nonzero" fill-opacity="1" /><path clip-path="url(#clip640)" d="M863.341 180.782 L863.341 188.143 L872.114 188.143 L872.114 191.453 L863.341 191.453 L863.341 205.527 Q863.341 208.698 864.198 209.601 Q865.077 210.504 867.739 210.504 L872.114 210.504 L872.114 214.069 L867.739 214.069 Q862.809 214.069 860.934 212.24 Q859.059 210.388 859.059 205.527 L859.059 191.453 L855.934 191.453 L855.934 188.143 L859.059 188.143 L859.059 180.782 L863.341 180.782 Z" fill="#000000" fill-rule="nonzero" fill-opacity="1" /><path clip-path="url(#clip640)" d="M889.498 201.036 Q884.336 201.036 882.346 202.217 Q880.355 203.397 880.355 206.245 Q880.355 208.513 881.836 209.856 Q883.341 211.175 885.91 211.175 Q889.452 211.175 891.582 208.675 Q893.734 206.152 893.734 201.985 L893.734 201.036 L889.498 201.036 M897.994 199.277 L897.994 214.069 L893.734 214.069 L893.734 210.133 Q892.276 212.495 890.1 213.629 Q887.924 214.74 884.776 214.74 Q880.795 214.74 878.434 212.518 Q876.096 210.272 876.096 206.522 Q876.096 202.147 879.012 199.925 Q881.952 197.703 887.762 197.703 L893.734 197.703 L893.734 197.286 Q893.734 194.347 891.79 192.749 Q889.869 191.129 886.373 191.129 Q884.151 191.129 882.045 191.661 Q879.938 192.194 877.994 193.259 L877.994 189.323 Q880.332 188.421 882.531 187.981 Q884.73 187.518 886.813 187.518 Q892.438 187.518 895.216 190.434 Q897.994 193.351 897.994 199.277 Z" fill="#000000" fill-rule="nonzero" fill-opacity="1" /><path clip-path="url(#clip640)" d="M925.378 201.129 Q925.378 196.43 923.433 193.768 Q921.512 191.083 918.132 191.083 Q914.753 191.083 912.808 193.768 Q910.887 196.43 910.887 201.129 Q910.887 205.828 912.808 208.513 Q914.753 211.175 918.132 211.175 Q921.512 211.175 923.433 208.513 Q925.378 205.828 925.378 201.129 M910.887 192.078 Q912.23 189.763 914.267 188.652 Q916.327 187.518 919.174 187.518 Q923.896 187.518 926.836 191.268 Q929.799 195.018 929.799 201.129 Q929.799 207.24 926.836 210.99 Q923.896 214.74 919.174 214.74 Q916.327 214.74 914.267 213.629 Q912.23 212.495 910.887 210.18 L910.887 214.069 L906.605 214.069 L906.605 178.05 L910.887 178.05 L910.887 192.078 Z" fill="#000000" fill-rule="nonzero" fill-opacity="1" /><path clip-path="url(#clip640)" d="M936.859 178.05 L941.118 178.05 L941.118 214.069 L936.859 214.069 L936.859 178.05 Z" fill="#000000" fill-rule="nonzero" fill-opacity="1" /><path clip-path="url(#clip640)" d="M972.206 200.041 L972.206 202.124 L952.623 202.124 Q952.901 206.522 955.262 208.837 Q957.646 211.129 961.882 211.129 Q964.336 211.129 966.628 210.527 Q968.942 209.925 971.211 208.721 L971.211 212.749 Q968.919 213.721 966.512 214.231 Q964.104 214.74 961.628 214.74 Q955.424 214.74 951.79 211.129 Q948.179 207.518 948.179 201.36 Q948.179 194.995 951.605 191.268 Q955.054 187.518 960.887 187.518 Q966.118 187.518 969.151 190.897 Q972.206 194.254 972.206 200.041 M967.947 198.791 Q967.901 195.296 965.979 193.212 Q964.081 191.129 960.933 191.129 Q957.368 191.129 955.216 193.143 Q953.086 195.157 952.762 198.814 L967.947 198.791 Z" fill="#000000" fill-rule="nonzero" fill-opacity="1" /><path clip-path="url(#clip640)" d="M978.526 178.097 L982.229 178.097 Q985.702 183.56 987.415 188.791 Q989.151 194.022 989.151 199.184 Q989.151 204.37 987.415 209.624 Q985.702 214.879 982.229 220.319 L978.526 220.319 Q981.604 215.018 983.109 209.786 Q984.637 204.532 984.637 199.184 Q984.637 193.837 983.109 188.629 Q981.604 183.421 978.526 178.097 Z" fill="#000000" fill-rule="nonzero" fill-opacity="1" /><polyline clip-path="url(#clip640)" style="stroke:#3da44d; stroke-linecap:round; stroke-linejoin:round; stroke-width:4; stroke-opacity:1; fill:none" points="272.215,248.629 417.369,248.629 "/>
<path clip-path="url(#clip640)" d="M445.496 231.349 L445.496 244.196 L441.561 244.196 L441.561 231.349 L445.496 231.349 M454.246 231.349 L454.246 244.196 L450.311 244.196 L450.311 231.349 L454.246 231.349 Z" fill="#000000" fill-rule="nonzero" fill-opacity="1" /><path clip-path="url(#clip640)" d="M463.459 231.349 L483.32 231.349 L483.32 235.284 L468.135 235.284 L468.135 245.469 L481.839 245.469 L481.839 249.404 L468.135 249.404 L468.135 265.909 L463.459 265.909 L463.459 231.349 Z" fill="#000000" fill-rule="nonzero" fill-opacity="1" /><path clip-path="url(#clip640)" d="M497.973 252.876 Q492.811 252.876 490.82 254.057 Q488.829 255.237 488.829 258.085 Q488.829 260.353 490.311 261.696 Q491.815 263.015 494.385 263.015 Q497.926 263.015 500.056 260.515 Q502.209 257.992 502.209 253.825 L502.209 252.876 L497.973 252.876 M506.468 251.117 L506.468 265.909 L502.209 265.909 L502.209 261.973 Q500.75 264.335 498.575 265.469 Q496.399 266.58 493.25 266.58 Q489.269 266.58 486.908 264.358 Q484.57 262.112 484.57 258.362 Q484.57 253.987 487.487 251.765 Q490.426 249.543 496.237 249.543 L502.209 249.543 L502.209 249.126 Q502.209 246.187 500.264 244.589 Q498.343 242.969 494.848 242.969 Q492.626 242.969 490.519 243.501 Q488.413 244.034 486.468 245.099 L486.468 241.163 Q488.806 240.261 491.005 239.821 Q493.204 239.358 495.288 239.358 Q500.912 239.358 503.69 242.274 Q506.468 245.191 506.468 251.117 Z" fill="#000000" fill-rule="nonzero" fill-opacity="1" /><path clip-path="url(#clip640)" d="M531.769 240.747 L531.769 244.774 Q529.963 243.849 528.019 243.386 Q526.074 242.923 523.991 242.923 Q520.82 242.923 519.223 243.895 Q517.649 244.867 517.649 246.811 Q517.649 248.293 518.783 249.149 Q519.917 249.983 523.343 250.747 L524.801 251.071 Q529.338 252.043 531.236 253.825 Q533.158 255.585 533.158 258.756 Q533.158 262.367 530.287 264.473 Q527.44 266.58 522.44 266.58 Q520.357 266.58 518.088 266.163 Q515.843 265.77 513.343 264.96 L513.343 260.561 Q515.704 261.788 517.996 262.413 Q520.287 263.015 522.533 263.015 Q525.542 263.015 527.162 261.997 Q528.783 260.955 528.783 259.08 Q528.783 257.344 527.602 256.418 Q526.445 255.492 522.486 254.636 L521.005 254.288 Q517.047 253.455 515.287 251.742 Q513.528 250.006 513.528 246.997 Q513.528 243.339 516.121 241.349 Q518.713 239.358 523.482 239.358 Q525.843 239.358 527.926 239.705 Q530.01 240.052 531.769 240.747 Z" fill="#000000" fill-rule="nonzero" fill-opacity="1" /><path clip-path="url(#clip640)" d="M544.153 232.622 L544.153 239.983 L552.926 239.983 L552.926 243.293 L544.153 243.293 L544.153 257.367 Q544.153 260.538 545.009 261.441 Q545.889 262.344 548.551 262.344 L552.926 262.344 L552.926 265.909 L548.551 265.909 Q543.621 265.909 541.746 264.08 Q539.871 262.228 539.871 257.367 L539.871 243.293 L536.746 243.293 L536.746 239.983 L539.871 239.983 L539.871 232.622 L544.153 232.622 Z" fill="#000000" fill-rule="nonzero" fill-opacity="1" /><path clip-path="url(#clip640)" d="M562.556 231.349 L562.556 244.196 L558.621 244.196 L558.621 231.349 L562.556 231.349 M571.306 231.349 L571.306 244.196 L567.37 244.196 L567.37 231.349 L571.306 231.349 Z" fill="#000000" fill-rule="nonzero" fill-opacity="1" /><polyline clip-path="url(#clip640)" style="stroke:#c271d2; stroke-linecap:round; stroke-linejoin:round; stroke-width:4; stroke-opacity:1; fill:none" points="272.215,300.469 417.369,300.469 "/>
<path clip-path="url(#clip640)" d="M446.237 287.031 L446.237 313.906 L451.885 313.906 Q459.038 313.906 462.348 310.665 Q465.681 307.425 465.681 300.434 Q465.681 293.489 462.348 290.272 Q459.038 287.031 451.885 287.031 L446.237 287.031 M441.561 283.189 L451.167 283.189 Q461.214 283.189 465.913 287.378 Q470.612 291.545 470.612 300.434 Q470.612 309.369 465.89 313.559 Q461.167 317.749 451.167 317.749 L441.561 317.749 L441.561 283.189 Z" fill="#000000" fill-rule="nonzero" fill-opacity="1" /><path clip-path="url(#clip640)" d="M489.663 304.716 Q484.501 304.716 482.51 305.897 Q480.519 307.077 480.519 309.925 Q480.519 312.193 482.001 313.536 Q483.505 314.855 486.075 314.855 Q489.616 314.855 491.746 312.355 Q493.899 309.832 493.899 305.665 L493.899 304.716 L489.663 304.716 M498.158 302.957 L498.158 317.749 L493.899 317.749 L493.899 313.813 Q492.44 316.175 490.264 317.309 Q488.088 318.42 484.94 318.42 Q480.959 318.42 478.598 316.198 Q476.26 313.952 476.26 310.202 Q476.26 305.827 479.176 303.605 Q482.116 301.383 487.926 301.383 L493.899 301.383 L493.899 300.966 Q493.899 298.027 491.954 296.429 Q490.033 294.809 486.538 294.809 Q484.315 294.809 482.209 295.341 Q480.102 295.874 478.158 296.939 L478.158 293.003 Q480.496 292.101 482.695 291.661 Q484.894 291.198 486.977 291.198 Q492.602 291.198 495.38 294.114 Q498.158 297.031 498.158 302.957 Z" fill="#000000" fill-rule="nonzero" fill-opacity="1" /><path clip-path="url(#clip640)" d="M511.144 284.462 L511.144 291.823 L519.917 291.823 L519.917 295.133 L511.144 295.133 L511.144 309.207 Q511.144 312.378 512 313.281 Q512.88 314.184 515.542 314.184 L519.917 314.184 L519.917 317.749 L515.542 317.749 Q510.612 317.749 508.737 315.92 Q506.862 314.068 506.862 309.207 L506.862 295.133 L503.737 295.133 L503.737 291.823 L506.862 291.823 L506.862 284.462 L511.144 284.462 Z" fill="#000000" fill-rule="nonzero" fill-opacity="1" /><path clip-path="url(#clip640)" d="M537.301 304.716 Q532.139 304.716 530.148 305.897 Q528.158 307.077 528.158 309.925 Q528.158 312.193 529.639 313.536 Q531.144 314.855 533.713 314.855 Q537.255 314.855 539.385 312.355 Q541.537 309.832 541.537 305.665 L541.537 304.716 L537.301 304.716 M545.797 302.957 L545.797 317.749 L541.537 317.749 L541.537 313.813 Q540.079 316.175 537.903 317.309 Q535.727 318.42 532.579 318.42 Q528.598 318.42 526.236 316.198 Q523.898 313.952 523.898 310.202 Q523.898 305.827 526.815 303.605 Q529.755 301.383 535.565 301.383 L541.537 301.383 L541.537 300.966 Q541.537 298.027 539.593 296.429 Q537.672 294.809 534.176 294.809 Q531.954 294.809 529.848 295.341 Q527.741 295.874 525.797 296.939 L525.797 293.003 Q528.135 292.101 530.334 291.661 Q532.533 291.198 534.616 291.198 Q540.241 291.198 543.019 294.114 Q545.797 297.031 545.797 302.957 Z" fill="#000000" fill-rule="nonzero" fill-opacity="1" /><path clip-path="url(#clip640)" d="M554.755 283.189 L574.616 283.189 L574.616 287.124 L559.431 287.124 L559.431 297.309 L573.134 297.309 L573.134 301.244 L559.431 301.244 L559.431 317.749 L554.755 317.749 L554.755 283.189 Z" fill="#000000" fill-rule="nonzero" fill-opacity="1" /><path clip-path="url(#clip640)" d="M593.412 295.804 Q592.694 295.388 591.838 295.202 Q591.005 294.994 589.986 294.994 Q586.375 294.994 584.431 297.355 Q582.509 299.693 582.509 304.091 L582.509 317.749 L578.227 317.749 L578.227 291.823 L582.509 291.823 L582.509 295.851 Q583.852 293.489 586.005 292.355 Q588.157 291.198 591.236 291.198 Q591.676 291.198 592.208 291.267 Q592.741 291.314 593.389 291.429 L593.412 295.804 Z" fill="#000000" fill-rule="nonzero" fill-opacity="1" /><path clip-path="url(#clip640)" d="M609.662 304.716 Q604.5 304.716 602.509 305.897 Q600.518 307.077 600.518 309.925 Q600.518 312.193 602 313.536 Q603.505 314.855 606.074 314.855 Q609.616 314.855 611.745 312.355 Q613.898 309.832 613.898 305.665 L613.898 304.716 L609.662 304.716 M618.157 302.957 L618.157 317.749 L613.898 317.749 L613.898 313.813 Q612.44 316.175 610.264 317.309 Q608.088 318.42 604.94 318.42 Q600.958 318.42 598.597 316.198 Q596.259 313.952 596.259 310.202 Q596.259 305.827 599.176 303.605 Q602.116 301.383 607.926 301.383 L613.898 301.383 L613.898 300.966 Q613.898 298.027 611.954 296.429 Q610.032 294.809 606.537 294.809 Q604.315 294.809 602.208 295.341 Q600.102 295.874 598.157 296.939 L598.157 293.003 Q600.495 292.101 602.694 291.661 Q604.893 291.198 606.977 291.198 Q612.602 291.198 615.379 294.114 Q618.157 297.031 618.157 302.957 Z" fill="#000000" fill-rule="nonzero" fill-opacity="1" /><path clip-path="url(#clip640)" d="M647.115 296.8 Q648.713 293.929 650.935 292.564 Q653.157 291.198 656.166 291.198 Q660.217 291.198 662.416 294.045 Q664.615 296.869 664.615 302.101 L664.615 317.749 L660.333 317.749 L660.333 302.239 Q660.333 298.513 659.013 296.707 Q657.694 294.902 654.986 294.902 Q651.676 294.902 649.754 297.101 Q647.833 299.3 647.833 303.096 L647.833 317.749 L643.551 317.749 L643.551 302.239 Q643.551 298.489 642.231 296.707 Q640.912 294.902 638.157 294.902 Q634.893 294.902 632.972 297.124 Q631.051 299.323 631.051 303.096 L631.051 317.749 L626.768 317.749 L626.768 291.823 L631.051 291.823 L631.051 295.851 Q632.509 293.466 634.546 292.332 Q636.583 291.198 639.384 291.198 Q642.208 291.198 644.176 292.633 Q646.166 294.068 647.115 296.8 Z" fill="#000000" fill-rule="nonzero" fill-opacity="1" /><path clip-path="url(#clip640)" d="M695.286 303.721 L695.286 305.804 L675.703 305.804 Q675.981 310.202 678.342 312.517 Q680.726 314.809 684.962 314.809 Q687.416 314.809 689.708 314.207 Q692.023 313.605 694.291 312.401 L694.291 316.429 Q691.999 317.401 689.592 317.911 Q687.185 318.42 684.708 318.42 Q678.504 318.42 674.87 314.809 Q671.259 311.198 671.259 305.04 Q671.259 298.675 674.685 294.948 Q678.134 291.198 683.967 291.198 Q689.199 291.198 692.231 294.577 Q695.286 297.934 695.286 303.721 M691.027 302.471 Q690.981 298.976 689.06 296.892 Q687.161 294.809 684.013 294.809 Q680.449 294.809 678.296 296.823 Q676.166 298.837 675.842 302.494 L691.027 302.471 Z" fill="#000000" fill-rule="nonzero" fill-opacity="1" /></svg>
