<?xml version="1.0" encoding="utf-8"?>
<svg xmlns="http://www.w3.org/2000/svg" xmlns:xlink="http://www.w3.org/1999/xlink" width="600" height="400" viewBox="0 0 2400 1600">
<defs>
  <clipPath id="clip610">
    <rect x="0" y="0" width="2400" height="1600"/>
  </clipPath>
</defs>
<path clip-path="url(#clip610)" d="M0 1600 L2400 1600 L2400 0 L0 0  Z" fill="#ffffff" fill-rule="evenodd" fill-opacity="1"/>
<defs>
  <clipPath id="clip611">
    <rect x="480" y="0" width="1681" height="1600"/>
  </clipPath>
</defs>
<path clip-path="url(#clip610)" d="M175.445 1423.18 L2352.76 1423.18 L2352.76 47.2441 L175.445 47.2441  Z" fill="#ffffff" fill-rule="evenodd" fill-opacity="1"/>
<defs>
  <clipPath id="clip612">
    <rect x="175" y="47" width="2178" height="1377"/>
  </clipPath>
</defs>
<polyline clip-path="url(#clip612)" style="stroke:#000000; stroke-linecap:round; stroke-linejoin:round; stroke-width:2; stroke-opacity:0.1; fill:none" points="530.505,1423.18 530.505,47.2441 "/>
<polyline clip-path="url(#clip612)" style="stroke:#000000; stroke-linecap:round; stroke-linejoin:round; stroke-width:2; stroke-opacity:0.1; fill:none" points="897.303,1423.18 897.303,47.2441 "/>
<polyline clip-path="url(#clip612)" style="stroke:#000000; stroke-linecap:round; stroke-linejoin:round; stroke-width:2; stroke-opacity:0.1; fill:none" points="1264.1,1423.18 1264.1,47.2441 "/>
<polyline clip-path="url(#clip612)" style="stroke:#000000; stroke-linecap:round; stroke-linejoin:round; stroke-width:2; stroke-opacity:0.1; fill:none" points="1630.9,1423.18 1630.9,47.2441 "/>
<polyline clip-path="url(#clip612)" style="stroke:#000000; stroke-linecap:round; stroke-linejoin:round; stroke-width:2; stroke-opacity:0.1; fill:none" points="1997.7,1423.18 1997.7,47.2441 "/>
<polyline clip-path="url(#clip610)" style="stroke:#000000; stroke-linecap:round; stroke-linejoin:round; stroke-width:4; stroke-opacity:1; fill:none" points="175.445,1423.18 2352.76,1423.18 "/>
<polyline clip-path="url(#clip610)" style="stroke:#000000; stroke-linecap:round; stroke-linejoin:round; stroke-width:4; stroke-opacity:1; fill:none" points="530.505,1423.18 530.505,1404.28 "/>
<polyline clip-path="url(#clip610)" style="stroke:#000000; stroke-linecap:round; stroke-linejoin:round; stroke-width:4; stroke-opacity:1; fill:none" points="897.303,1423.18 897.303,1404.28 "/>
<polyline clip-path="url(#clip610)" style="stroke:#000000; stroke-linecap:round; stroke-linejoin:round; stroke-width:4; stroke-opacity:1; fill:none" points="1264.1,1423.18 1264.1,1404.28 "/>
<polyline clip-path="url(#clip610)" style="stroke:#000000; stroke-linecap:round; stroke-linejoin:round; stroke-width:4; stroke-opacity:1; fill:none" points="1630.9,1423.18 1630.9,1404.28 "/>
<polyline clip-path="url(#clip610)" style="stroke:#000000; stroke-linecap:round; stroke-linejoin:round; stroke-width:4; stroke-opacity:1; fill:none" points="1997.7,1423.18 1997.7,1404.28 "/>
<path clip-path="url(#clip610)" d="M490.124 1451.02 L508.48 1451.02 L508.48 1454.96 L494.406 1454.96 L494.406 1463.43 Q495.424 1463.08 496.443 1462.92 Q497.462 1462.73 498.48 1462.73 Q504.267 1462.73 507.647 1465.9 Q511.026 1469.08 511.026 1474.49 Q511.026 1480.07 507.554 1483.17 Q504.082 1486.25 497.762 1486.25 Q495.587 1486.25 493.318 1485.88 Q491.073 1485.51 488.665 1484.77 L488.665 1480.07 Q490.749 1481.2 492.971 1481.76 Q495.193 1482.32 497.67 1482.32 Q501.674 1482.32 504.012 1480.21 Q506.35 1478.1 506.35 1474.49 Q506.35 1470.88 504.012 1468.77 Q501.674 1466.67 497.67 1466.67 Q495.795 1466.67 493.92 1467.08 Q492.068 1467.5 490.124 1468.38 L490.124 1451.02 Z" fill="#000000" fill-rule="nonzero" fill-opacity="1" /><path clip-path="url(#clip610)" d="M530.239 1454.1 Q526.628 1454.1 524.799 1457.66 Q522.994 1461.2 522.994 1468.33 Q522.994 1475.44 524.799 1479.01 Q526.628 1482.55 530.239 1482.55 Q533.873 1482.55 535.679 1479.01 Q537.508 1475.44 537.508 1468.33 Q537.508 1461.2 535.679 1457.66 Q533.873 1454.1 530.239 1454.1 M530.239 1450.39 Q536.049 1450.39 539.105 1455 Q542.183 1459.58 542.183 1468.33 Q542.183 1477.06 539.105 1481.67 Q536.049 1486.25 530.239 1486.25 Q524.429 1486.25 521.35 1481.67 Q518.295 1477.06 518.295 1468.33 Q518.295 1459.58 521.35 1455 Q524.429 1450.39 530.239 1450.39 Z" fill="#000000" fill-rule="nonzero" fill-opacity="1" /><path clip-path="url(#clip610)" d="M560.401 1454.1 Q556.79 1454.1 554.961 1457.66 Q553.156 1461.2 553.156 1468.33 Q553.156 1475.44 554.961 1479.01 Q556.79 1482.55 560.401 1482.55 Q564.035 1482.55 565.841 1479.01 Q567.669 1475.44 567.669 1468.33 Q567.669 1461.2 565.841 1457.66 Q564.035 1454.1 560.401 1454.1 M560.401 1450.39 Q566.211 1450.39 569.267 1455 Q572.345 1459.58 572.345 1468.33 Q572.345 1477.06 569.267 1481.67 Q566.211 1486.25 560.401 1486.25 Q554.591 1486.25 551.512 1481.67 Q548.457 1477.06 548.457 1468.33 Q548.457 1459.58 551.512 1455 Q554.591 1450.39 560.401 1450.39 Z" fill="#000000" fill-rule="nonzero" fill-opacity="1" /><path clip-path="url(#clip610)" d="M841.829 1481.64 L849.468 1481.64 L849.468 1455.28 L841.157 1456.95 L841.157 1452.69 L849.421 1451.02 L854.097 1451.02 L854.097 1481.64 L861.736 1481.64 L861.736 1485.58 L841.829 1485.58 L841.829 1481.64 Z" fill="#000000" fill-rule="nonzero" fill-opacity="1" /><path clip-path="url(#clip610)" d="M881.18 1454.1 Q877.569 1454.1 875.741 1457.66 Q873.935 1461.2 873.935 1468.33 Q873.935 1475.44 875.741 1479.01 Q877.569 1482.55 881.18 1482.55 Q884.815 1482.55 886.62 1479.01 Q888.449 1475.44 888.449 1468.33 Q888.449 1461.2 886.62 1457.66 Q884.815 1454.1 881.18 1454.1 M881.18 1450.39 Q886.99 1450.39 890.046 1455 Q893.125 1459.58 893.125 1468.33 Q893.125 1477.06 890.046 1481.67 Q886.99 1486.25 881.18 1486.25 Q875.37 1486.25 872.291 1481.67 Q869.236 1477.06 869.236 1468.33 Q869.236 1459.58 872.291 1455 Q875.37 1450.39 881.18 1450.39 Z" fill="#000000" fill-rule="nonzero" fill-opacity="1" /><path clip-path="url(#clip610)" d="M911.342 1454.1 Q907.731 1454.1 905.902 1457.66 Q904.097 1461.2 904.097 1468.33 Q904.097 1475.44 905.902 1479.01 Q907.731 1482.55 911.342 1482.55 Q914.976 1482.55 916.782 1479.01 Q918.611 1475.44 918.611 1468.33 Q918.611 1461.2 916.782 1457.66 Q914.976 1454.1 911.342 1454.1 M911.342 1450.39 Q917.152 1450.39 920.208 1455 Q923.287 1459.58 923.287 1468.33 Q923.287 1477.06 920.208 1481.67 Q917.152 1486.25 911.342 1486.25 Q905.532 1486.25 902.453 1481.67 Q899.398 1477.06 899.398 1468.33 Q899.398 1459.58 902.453 1455 Q905.532 1450.39 911.342 1450.39 Z" fill="#000000" fill-rule="nonzero" fill-opacity="1" /><path clip-path="url(#clip610)" d="M941.504 1454.1 Q937.893 1454.1 936.064 1457.66 Q934.259 1461.2 934.259 1468.33 Q934.259 1475.44 936.064 1479.01 Q937.893 1482.55 941.504 1482.55 Q945.138 1482.55 946.944 1479.01 Q948.773 1475.44 948.773 1468.33 Q948.773 1461.2 946.944 1457.66 Q945.138 1454.1 941.504 1454.1 M941.504 1450.39 Q947.314 1450.39 950.37 1455 Q953.448 1459.58 953.448 1468.33 Q953.448 1477.06 950.37 1481.67 Q947.314 1486.25 941.504 1486.25 Q935.694 1486.25 932.615 1481.67 Q929.56 1477.06 929.56 1468.33 Q929.56 1459.58 932.615 1455 Q935.694 1450.39 941.504 1450.39 Z" fill="#000000" fill-rule="nonzero" fill-opacity="1" /><path clip-path="url(#clip610)" d="M1208.63 1481.64 L1216.27 1481.64 L1216.27 1455.28 L1207.96 1456.95 L1207.96 1452.69 L1216.22 1451.02 L1220.89 1451.02 L1220.89 1481.64 L1228.53 1481.64 L1228.53 1485.58 L1208.63 1485.58 L1208.63 1481.64 Z" fill="#000000" fill-rule="nonzero" fill-opacity="1" /><path clip-path="url(#clip610)" d="M1238.02 1451.02 L1256.38 1451.02 L1256.38 1454.96 L1242.31 1454.96 L1242.31 1463.43 Q1243.33 1463.08 1244.34 1462.92 Q1245.36 1462.73 1246.38 1462.73 Q1252.17 1462.73 1255.55 1465.9 Q1258.93 1469.08 1258.93 1474.49 Q1258.93 1480.07 1255.45 1483.17 Q1251.98 1486.25 1245.66 1486.25 Q1243.49 1486.25 1241.22 1485.88 Q1238.97 1485.51 1236.57 1484.77 L1236.57 1480.07 Q1238.65 1481.2 1240.87 1481.76 Q1243.09 1482.32 1245.57 1482.32 Q1249.58 1482.32 1251.91 1480.21 Q1254.25 1478.1 1254.25 1474.49 Q1254.25 1470.88 1251.91 1468.77 Q1249.58 1466.67 1245.57 1466.67 Q1243.7 1466.67 1241.82 1467.08 Q1239.97 1467.5 1238.02 1468.38 L1238.02 1451.02 Z" fill="#000000" fill-rule="nonzero" fill-opacity="1" /><path clip-path="url(#clip610)" d="M1278.14 1454.1 Q1274.53 1454.1 1272.7 1457.66 Q1270.89 1461.2 1270.89 1468.33 Q1270.89 1475.44 1272.7 1479.01 Q1274.53 1482.55 1278.14 1482.55 Q1281.77 1482.55 1283.58 1479.01 Q1285.41 1475.44 1285.41 1468.33 Q1285.41 1461.2 1283.58 1457.66 Q1281.77 1454.1 1278.14 1454.1 M1278.14 1450.39 Q1283.95 1450.39 1287.01 1455 Q1290.08 1459.58 1290.08 1468.33 Q1290.08 1477.06 1287.01 1481.67 Q1283.95 1486.25 1278.14 1486.25 Q1272.33 1486.25 1269.25 1481.67 Q1266.2 1477.06 1266.2 1468.33 Q1266.2 1459.58 1269.25 1455 Q1272.33 1450.39 1278.14 1450.39 Z" fill="#000000" fill-rule="nonzero" fill-opacity="1" /><path clip-path="url(#clip610)" d="M1308.3 1454.1 Q1304.69 1454.1 1302.86 1457.66 Q1301.06 1461.2 1301.06 1468.33 Q1301.06 1475.44 1302.86 1479.01 Q1304.69 1482.55 1308.3 1482.55 Q1311.94 1482.55 1313.74 1479.01 Q1315.57 1475.44 1315.57 1468.33 Q1315.57 1461.2 1313.74 1457.66 Q1311.94 1454.1 1308.3 1454.1 M1308.3 1450.39 Q1314.11 1450.39 1317.17 1455 Q1320.25 1459.58 1320.25 1468.33 Q1320.25 1477.06 1317.17 1481.67 Q1314.11 1486.25 1308.3 1486.25 Q1302.49 1486.25 1299.41 1481.67 Q1296.36 1477.06 1296.36 1468.33 Q1296.36 1459.58 1299.41 1455 Q1302.49 1450.39 1308.3 1450.39 Z" fill="#000000" fill-rule="nonzero" fill-opacity="1" /><path clip-path="url(#clip610)" d="M1579.51 1481.64 L1595.83 1481.64 L1595.83 1485.58 L1573.88 1485.58 L1573.88 1481.64 Q1576.55 1478.89 1581.13 1474.26 Q1585.74 1469.61 1586.92 1468.27 Q1589.16 1465.74 1590.04 1464.01 Q1590.94 1462.25 1590.94 1460.56 Q1590.94 1457.8 1589 1456.07 Q1587.08 1454.33 1583.98 1454.33 Q1581.78 1454.33 1579.32 1455.09 Q1576.89 1455.86 1574.12 1457.41 L1574.12 1452.69 Q1576.94 1451.55 1579.39 1450.97 Q1581.85 1450.39 1583.88 1450.39 Q1589.25 1450.39 1592.45 1453.08 Q1595.64 1455.77 1595.64 1460.26 Q1595.64 1462.39 1594.83 1464.31 Q1594.05 1466.2 1591.94 1468.8 Q1591.36 1469.47 1588.26 1472.69 Q1585.16 1475.88 1579.51 1481.64 Z" fill="#000000" fill-rule="nonzero" fill-opacity="1" /><path clip-path="url(#clip610)" d="M1615.64 1454.1 Q1612.03 1454.1 1610.2 1457.66 Q1608.4 1461.2 1608.4 1468.33 Q1608.4 1475.44 1610.2 1479.01 Q1612.03 1482.55 1615.64 1482.55 Q1619.28 1482.55 1621.08 1479.01 Q1622.91 1475.44 1622.91 1468.33 Q1622.91 1461.2 1621.08 1457.66 Q1619.28 1454.1 1615.64 1454.1 M1615.64 1450.39 Q1621.45 1450.39 1624.51 1455 Q1627.59 1459.58 1627.59 1468.33 Q1627.59 1477.06 1624.51 1481.67 Q1621.45 1486.25 1615.64 1486.25 Q1609.83 1486.25 1606.75 1481.67 Q1603.7 1477.06 1603.7 1468.33 Q1603.7 1459.58 1606.75 1455 Q1609.83 1450.39 1615.64 1450.39 Z" fill="#000000" fill-rule="nonzero" fill-opacity="1" /><path clip-path="url(#clip610)" d="M1645.81 1454.1 Q1642.19 1454.1 1640.37 1457.66 Q1638.56 1461.2 1638.56 1468.33 Q1638.56 1475.44 1640.37 1479.01 Q1642.19 1482.55 1645.81 1482.55 Q1649.44 1482.55 1651.25 1479.01 Q1653.07 1475.44 1653.07 1468.33 Q1653.07 1461.2 1651.25 1457.66 Q1649.44 1454.1 1645.81 1454.1 M1645.81 1450.39 Q1651.62 1450.39 1654.67 1455 Q1657.75 1459.58 1657.75 1468.33 Q1657.75 1477.06 1654.67 1481.67 Q1651.62 1486.25 1645.81 1486.25 Q1640 1486.25 1636.92 1481.67 Q1633.86 1477.06 1633.86 1468.33 Q1633.86 1459.58 1636.92 1455 Q1640 1450.39 1645.81 1450.39 Z" fill="#000000" fill-rule="nonzero" fill-opacity="1" /><path clip-path="url(#clip610)" d="M1675.97 1454.1 Q1672.36 1454.1 1670.53 1457.66 Q1668.72 1461.2 1668.72 1468.33 Q1668.72 1475.44 1670.53 1479.01 Q1672.36 1482.55 1675.97 1482.55 Q1679.6 1482.55 1681.41 1479.01 Q1683.24 1475.44 1683.24 1468.33 Q1683.24 1461.2 1681.41 1457.66 Q1679.6 1454.1 1675.97 1454.1 M1675.97 1450.39 Q1681.78 1450.39 1684.83 1455 Q1687.91 1459.58 1687.91 1468.33 Q1687.91 1477.06 1684.83 1481.67 Q1681.78 1486.25 1675.97 1486.25 Q1670.16 1486.25 1667.08 1481.67 Q1664.02 1477.06 1664.02 1468.33 Q1664.02 1459.58 1667.08 1455 Q1670.16 1450.39 1675.97 1450.39 Z" fill="#000000" fill-rule="nonzero" fill-opacity="1" /><path clip-path="url(#clip610)" d="M1946.31 1481.64 L1962.63 1481.64 L1962.63 1485.58 L1940.68 1485.58 L1940.68 1481.64 Q1943.34 1478.89 1947.93 1474.26 Q1952.53 1469.61 1953.71 1468.27 Q1955.96 1465.74 1956.84 1464.01 Q1957.74 1462.25 1957.74 1460.56 Q1957.74 1457.8 1955.8 1456.07 Q1953.88 1454.33 1950.77 1454.33 Q1948.58 1454.33 1946.12 1455.09 Q1943.69 1455.86 1940.91 1457.41 L1940.91 1452.69 Q1943.74 1451.55 1946.19 1450.97 Q1948.65 1450.39 1950.68 1450.39 Q1956.05 1450.39 1959.25 1453.08 Q1962.44 1455.77 1962.44 1460.26 Q1962.44 1462.39 1961.63 1464.31 Q1960.84 1466.2 1958.74 1468.8 Q1958.16 1469.47 1955.06 1472.69 Q1951.96 1475.88 1946.31 1481.64 Z" fill="#000000" fill-rule="nonzero" fill-opacity="1" /><path clip-path="url(#clip610)" d="M1972.49 1451.02 L1990.84 1451.02 L1990.84 1454.96 L1976.77 1454.96 L1976.77 1463.43 Q1977.79 1463.08 1978.81 1462.92 Q1979.83 1462.73 1980.84 1462.73 Q1986.63 1462.73 1990.01 1465.9 Q1993.39 1469.08 1993.39 1474.49 Q1993.39 1480.07 1989.92 1483.17 Q1986.45 1486.25 1980.13 1486.25 Q1977.95 1486.25 1975.68 1485.88 Q1973.44 1485.51 1971.03 1484.77 L1971.03 1480.07 Q1973.11 1481.2 1975.33 1481.76 Q1977.56 1482.32 1980.03 1482.32 Q1984.04 1482.32 1986.38 1480.21 Q1988.71 1478.1 1988.71 1474.49 Q1988.71 1470.88 1986.38 1468.77 Q1984.04 1466.67 1980.03 1466.67 Q1978.16 1466.67 1976.28 1467.08 Q1974.43 1467.5 1972.49 1468.38 L1972.49 1451.02 Z" fill="#000000" fill-rule="nonzero" fill-opacity="1" /><path clip-path="url(#clip610)" d="M2012.6 1454.1 Q2008.99 1454.1 2007.16 1457.66 Q2005.36 1461.2 2005.36 1468.33 Q2005.36 1475.44 2007.16 1479.01 Q2008.99 1482.55 2012.6 1482.55 Q2016.24 1482.55 2018.04 1479.01 Q2019.87 1475.44 2019.87 1468.33 Q2019.87 1461.2 2018.04 1457.66 Q2016.24 1454.1 2012.6 1454.1 M2012.6 1450.39 Q2018.41 1450.39 2021.47 1455 Q2024.55 1459.58 2024.55 1468.33 Q2024.55 1477.06 2021.47 1481.67 Q2018.41 1486.25 2012.6 1486.25 Q2006.79 1486.25 2003.71 1481.67 Q2000.66 1477.06 2000.66 1468.33 Q2000.66 1459.58 2003.71 1455 Q2006.79 1450.39 2012.6 1450.39 Z" fill="#000000" fill-rule="nonzero" fill-opacity="1" /><path clip-path="url(#clip610)" d="M2042.77 1454.1 Q2039.15 1454.1 2037.33 1457.66 Q2035.52 1461.2 2035.52 1468.33 Q2035.52 1475.44 2037.33 1479.01 Q2039.15 1482.55 2042.77 1482.55 Q2046.4 1482.55 2048.2 1479.01 Q2050.03 1475.44 2050.03 1468.33 Q2050.03 1461.2 2048.2 1457.66 Q2046.4 1454.1 2042.77 1454.1 M2042.77 1450.39 Q2048.58 1450.39 2051.63 1455 Q2054.71 1459.58 2054.71 1468.33 Q2054.71 1477.06 2051.63 1481.67 Q2048.58 1486.25 2042.77 1486.25 Q2036.95 1486.25 2033.88 1481.67 Q2030.82 1477.06 2030.82 1468.33 Q2030.82 1459.58 2033.88 1455 Q2036.95 1450.39 2042.77 1450.39 Z" fill="#000000" fill-rule="nonzero" fill-opacity="1" /><path clip-path="url(#clip610)" d="M1246.12 1520.52 L1254.77 1520.52 L1275.85 1560.28 L1275.85 1520.52 L1282.08 1520.52 L1282.08 1568.04 L1273.43 1568.04 L1252.36 1528.29 L1252.36 1568.04 L1246.12 1568.04 L1246.12 1520.52 Z" fill="#000000" fill-rule="nonzero" fill-opacity="1" /><polyline clip-path="url(#clip612)" style="stroke:#000000; stroke-linecap:round; stroke-linejoin:round; stroke-width:2; stroke-opacity:0.1; fill:none" points="175.445,1385.62 2352.76,1385.62 "/>
<polyline clip-path="url(#clip612)" style="stroke:#000000; stroke-linecap:round; stroke-linejoin:round; stroke-width:2; stroke-opacity:0.1; fill:none" points="175.445,1171.97 2352.76,1171.97 "/>
<polyline clip-path="url(#clip612)" style="stroke:#000000; stroke-linecap:round; stroke-linejoin:round; stroke-width:2; stroke-opacity:0.1; fill:none" points="175.445,958.334 2352.76,958.334 "/>
<polyline clip-path="url(#clip612)" style="stroke:#000000; stroke-linecap:round; stroke-linejoin:round; stroke-width:2; stroke-opacity:0.1; fill:none" points="175.445,744.694 2352.76,744.694 "/>
<polyline clip-path="url(#clip612)" style="stroke:#000000; stroke-linecap:round; stroke-linejoin:round; stroke-width:2; stroke-opacity:0.1; fill:none" points="175.445,531.053 2352.76,531.053 "/>
<polyline clip-path="url(#clip612)" style="stroke:#000000; stroke-linecap:round; stroke-linejoin:round; stroke-width:2; stroke-opacity:0.1; fill:none" points="175.445,317.412 2352.76,317.412 "/>
<polyline clip-path="url(#clip612)" style="stroke:#000000; stroke-linecap:round; stroke-linejoin:round; stroke-width:2; stroke-opacity:0.1; fill:none" points="175.445,103.772 2352.76,103.772 "/>
<polyline clip-path="url(#clip610)" style="stroke:#000000; stroke-linecap:round; stroke-linejoin:round; stroke-width:4; stroke-opacity:1; fill:none" points="175.445,1423.18 175.445,47.2441 "/>
<polyline clip-path="url(#clip610)" style="stroke:#000000; stroke-linecap:round; stroke-linejoin:round; stroke-width:4; stroke-opacity:1; fill:none" points="175.445,1385.62 194.343,1385.62 "/>
<polyline clip-path="url(#clip610)" style="stroke:#000000; stroke-linecap:round; stroke-linejoin:round; stroke-width:4; stroke-opacity:1; fill:none" points="175.445,1171.97 194.343,1171.97 "/>
<polyline clip-path="url(#clip610)" style="stroke:#000000; stroke-linecap:round; stroke-linejoin:round; stroke-width:4; stroke-opacity:1; fill:none" points="175.445,958.334 194.343,958.334 "/>
<polyline clip-path="url(#clip610)" style="stroke:#000000; stroke-linecap:round; stroke-linejoin:round; stroke-width:4; stroke-opacity:1; fill:none" points="175.445,744.694 194.343,744.694 "/>
<polyline clip-path="url(#clip610)" style="stroke:#000000; stroke-linecap:round; stroke-linejoin:round; stroke-width:4; stroke-opacity:1; fill:none" points="175.445,531.053 194.343,531.053 "/>
<polyline clip-path="url(#clip610)" style="stroke:#000000; stroke-linecap:round; stroke-linejoin:round; stroke-width:4; stroke-opacity:1; fill:none" points="175.445,317.412 194.343,317.412 "/>
<polyline clip-path="url(#clip610)" style="stroke:#000000; stroke-linecap:round; stroke-linejoin:round; stroke-width:4; stroke-opacity:1; fill:none" points="175.445,103.772 194.343,103.772 "/>
<path clip-path="url(#clip610)" d="M127.501 1371.41 Q123.89 1371.41 122.061 1374.98 Q120.255 1378.52 120.255 1385.65 Q120.255 1392.76 122.061 1396.32 Q123.89 1399.86 127.501 1399.86 Q131.135 1399.86 132.941 1396.32 Q134.769 1392.76 134.769 1385.65 Q134.769 1378.52 132.941 1374.98 Q131.135 1371.41 127.501 1371.41 M127.501 1367.71 Q133.311 1367.71 136.367 1372.32 Q139.445 1376.9 139.445 1385.65 Q139.445 1394.38 136.367 1398.98 Q133.311 1403.57 127.501 1403.57 Q121.691 1403.57 118.612 1398.98 Q115.556 1394.38 115.556 1385.65 Q115.556 1376.9 118.612 1372.32 Q121.691 1367.71 127.501 1367.71 Z" fill="#000000" fill-rule="nonzero" fill-opacity="1" /><path clip-path="url(#clip610)" d="M119.538 1185.32 L127.177 1185.32 L127.177 1158.95 L118.867 1160.62 L118.867 1156.36 L127.13 1154.69 L131.806 1154.69 L131.806 1185.32 L139.445 1185.32 L139.445 1189.25 L119.538 1189.25 L119.538 1185.32 Z" fill="#000000" fill-rule="nonzero" fill-opacity="1" /><path clip-path="url(#clip610)" d="M123.126 971.679 L139.445 971.679 L139.445 975.614 L117.501 975.614 L117.501 971.679 Q120.163 968.924 124.746 964.295 Q129.353 959.642 130.533 958.3 Q132.779 955.776 133.658 954.04 Q134.561 952.281 134.561 950.591 Q134.561 947.837 132.617 946.101 Q130.695 944.364 127.593 944.364 Q125.394 944.364 122.941 945.128 Q120.51 945.892 117.732 947.443 L117.732 942.721 Q120.556 941.587 123.01 941.008 Q125.464 940.429 127.501 940.429 Q132.871 940.429 136.066 943.114 Q139.26 945.8 139.26 950.29 Q139.26 952.42 138.45 954.341 Q137.663 956.239 135.556 958.832 Q134.978 959.503 131.876 962.721 Q128.774 965.915 123.126 971.679 Z" fill="#000000" fill-rule="nonzero" fill-opacity="1" /><path clip-path="url(#clip610)" d="M132.316 743.339 Q135.672 744.057 137.547 746.326 Q139.445 748.594 139.445 751.927 Q139.445 757.043 135.927 759.844 Q132.408 762.645 125.927 762.645 Q123.751 762.645 121.436 762.205 Q119.144 761.788 116.691 760.932 L116.691 756.418 Q118.635 757.552 120.95 758.131 Q123.265 758.71 125.788 758.71 Q130.186 758.71 132.478 756.974 Q134.792 755.238 134.792 751.927 Q134.792 748.872 132.64 747.159 Q130.51 745.423 126.691 745.423 L122.663 745.423 L122.663 741.58 L126.876 741.58 Q130.325 741.58 132.154 740.215 Q133.982 738.826 133.982 736.233 Q133.982 733.571 132.084 732.159 Q130.209 730.724 126.691 730.724 Q124.769 730.724 122.57 731.14 Q120.371 731.557 117.732 732.437 L117.732 728.27 Q120.394 727.529 122.709 727.159 Q125.047 726.789 127.107 726.789 Q132.431 726.789 135.533 729.219 Q138.635 731.627 138.635 735.747 Q138.635 738.617 136.992 740.608 Q135.348 742.576 132.316 743.339 Z" fill="#000000" fill-rule="nonzero" fill-opacity="1" /><path clip-path="url(#clip610)" d="M129.862 517.847 L118.056 536.296 L129.862 536.296 L129.862 517.847 M128.635 513.773 L134.515 513.773 L134.515 536.296 L139.445 536.296 L139.445 540.185 L134.515 540.185 L134.515 548.333 L129.862 548.333 L129.862 540.185 L114.26 540.185 L114.26 535.671 L128.635 513.773 Z" fill="#000000" fill-rule="nonzero" fill-opacity="1" /><path clip-path="url(#clip610)" d="M118.543 300.132 L136.899 300.132 L136.899 304.068 L122.825 304.068 L122.825 312.54 Q123.843 312.193 124.862 312.031 Q125.88 311.845 126.899 311.845 Q132.686 311.845 136.066 315.017 Q139.445 318.188 139.445 323.605 Q139.445 329.183 135.973 332.285 Q132.501 335.364 126.181 335.364 Q124.005 335.364 121.737 334.993 Q119.492 334.623 117.084 333.882 L117.084 329.183 Q119.168 330.318 121.39 330.873 Q123.612 331.429 126.089 331.429 Q130.093 331.429 132.431 329.322 Q134.769 327.216 134.769 323.605 Q134.769 319.993 132.431 317.887 Q130.093 315.781 126.089 315.781 Q124.214 315.781 122.339 316.197 Q120.487 316.614 118.543 317.494 L118.543 300.132 Z" fill="#000000" fill-rule="nonzero" fill-opacity="1" /><path clip-path="url(#clip610)" d="M127.917 101.908 Q124.769 101.908 122.918 104.061 Q121.089 106.214 121.089 109.964 Q121.089 113.691 122.918 115.867 Q124.769 118.02 127.917 118.02 Q131.066 118.02 132.894 115.867 Q134.746 113.691 134.746 109.964 Q134.746 106.214 132.894 104.061 Q131.066 101.908 127.917 101.908 M137.2 87.2558 L137.2 91.515 Q135.441 90.6817 133.635 90.2419 Q131.853 89.8021 130.093 89.8021 Q125.464 89.8021 123.01 92.927 Q120.58 96.052 120.232 102.371 Q121.598 100.358 123.658 99.2928 Q125.718 98.2048 128.195 98.2048 Q133.404 98.2048 136.413 101.376 Q139.445 104.524 139.445 109.964 Q139.445 115.288 136.297 118.506 Q133.149 121.723 127.917 121.723 Q121.922 121.723 118.751 117.14 Q115.58 112.533 115.58 103.807 Q115.58 95.6122 119.468 90.7511 Q123.357 85.8669 129.908 85.8669 Q131.667 85.8669 133.45 86.2141 Q135.255 86.5613 137.2 87.2558 Z" fill="#000000" fill-rule="nonzero" fill-opacity="1" /><path clip-path="url(#clip610)" d="M18.0438 969.215 L24.314 969.215 Q22.5634 972.876 21.704 976.122 Q20.8447 979.369 20.8447 982.392 Q20.8447 987.644 22.8817 990.509 Q24.9187 993.341 28.6745 993.341 Q31.8255 993.341 33.4488 991.463 Q35.0402 989.554 36.0269 984.27 L36.8226 980.387 Q38.1912 973.194 41.6605 969.788 Q45.098 966.351 50.8908 966.351 Q57.7976 966.351 61.3624 970.998 Q64.9272 975.613 64.9272 984.557 Q64.9272 987.931 64.1633 991.75 Q63.3994 995.538 61.9035 999.612 L55.2831 999.612 Q57.4793 995.697 58.5933 991.941 Q59.7073 988.185 59.7073 984.557 Q59.7073 979.05 57.543 976.058 Q55.3786 973.067 51.3682 973.067 Q47.8671 973.067 45.8937 975.231 Q43.9204 977.363 42.9337 982.265 L42.1698 986.18 Q40.7375 993.373 37.682 996.588 Q34.6264 999.803 29.1837 999.803 Q22.8817 999.803 19.2532 995.378 Q15.6248 990.922 15.6248 983.124 Q15.6248 979.782 16.2295 976.313 Q16.8343 972.844 18.0438 969.215 Z" fill="#000000" fill-rule="nonzero" fill-opacity="1" /><path clip-path="url(#clip610)" d="M32.4621 942.766 Q32.4621 947.476 36.1542 950.214 Q39.8145 952.951 46.212 952.951 Q52.6095 952.951 56.3017 950.246 Q59.9619 947.508 59.9619 942.766 Q59.9619 938.087 56.2698 935.35 Q52.5777 932.613 46.212 932.613 Q39.8781 932.613 36.186 935.35 Q32.4621 938.087 32.4621 942.766 M27.4968 942.766 Q27.4968 935.127 32.4621 930.766 Q37.4273 926.406 46.212 926.406 Q54.9649 926.406 59.9619 930.766 Q64.9272 935.127 64.9272 942.766 Q64.9272 950.437 59.9619 954.797 Q54.9649 959.126 46.212 959.126 Q37.4273 959.126 32.4621 954.797 Q27.4968 950.437 27.4968 942.766 Z" fill="#000000" fill-rule="nonzero" fill-opacity="1" /><path clip-path="url(#clip610)" d="M14.479 916.698 L14.479 910.842 L64.0042 910.842 L64.0042 916.698 L14.479 916.698 Z" fill="#000000" fill-rule="nonzero" fill-opacity="1" /><path clip-path="url(#clip610)" d="M49.9359 899.193 L28.3562 899.193 L28.3562 893.336 L49.7131 893.336 Q54.7739 893.336 57.3202 891.363 Q59.8346 889.389 59.8346 885.443 Q59.8346 880.7 56.8109 877.963 Q53.7872 875.194 48.5673 875.194 L28.3562 875.194 L28.3562 869.337 L64.0042 869.337 L64.0042 875.194 L58.5296 875.194 Q61.7762 877.326 63.3676 880.159 Q64.9272 882.96 64.9272 886.684 Q64.9272 892.827 61.1078 896.01 Q57.2883 899.193 49.9359 899.193 M27.4968 884.456 L27.4968 884.456 Z" fill="#000000" fill-rule="nonzero" fill-opacity="1" /><path clip-path="url(#clip610)" d="M18.2347 851.482 L28.3562 851.482 L28.3562 839.419 L32.9077 839.419 L32.9077 851.482 L52.2594 851.482 Q56.6199 851.482 57.8613 850.304 Q59.1026 849.094 59.1026 845.434 L59.1026 839.419 L64.0042 839.419 L64.0042 845.434 Q64.0042 852.214 61.4897 854.792 Q58.9434 857.37 52.2594 857.37 L32.9077 857.37 L32.9077 861.667 L28.3562 861.667 L28.3562 857.37 L18.2347 857.37 L18.2347 851.482 Z" fill="#000000" fill-rule="nonzero" fill-opacity="1" /><path clip-path="url(#clip610)" d="M28.3562 831.716 L28.3562 825.86 L64.0042 825.86 L64.0042 831.716 L28.3562 831.716 M14.479 831.716 L14.479 825.86 L21.895 825.86 L21.895 831.716 L14.479 831.716 Z" fill="#000000" fill-rule="nonzero" fill-opacity="1" /><path clip-path="url(#clip610)" d="M32.4621 799.792 Q32.4621 804.503 36.1542 807.24 Q39.8145 809.977 46.212 809.977 Q52.6095 809.977 56.3017 807.272 Q59.9619 804.535 59.9619 799.792 Q59.9619 795.113 56.2698 792.376 Q52.5777 789.639 46.212 789.639 Q39.8781 789.639 36.186 792.376 Q32.4621 795.113 32.4621 799.792 M27.4968 799.792 Q27.4968 792.153 32.4621 787.793 Q37.4273 783.432 46.212 783.432 Q54.9649 783.432 59.9619 787.793 Q64.9272 792.153 64.9272 799.792 Q64.9272 807.463 59.9619 811.823 Q54.9649 816.152 46.212 816.152 Q37.4273 816.152 32.4621 811.823 Q27.4968 807.463 27.4968 799.792 Z" fill="#000000" fill-rule="nonzero" fill-opacity="1" /><path clip-path="url(#clip610)" d="M42.4881 744.092 L64.0042 744.092 L64.0042 749.949 L42.679 749.949 Q37.6183 749.949 35.1038 751.922 Q32.5894 753.895 32.5894 757.842 Q32.5894 762.585 35.6131 765.322 Q38.6368 768.059 43.8567 768.059 L64.0042 768.059 L64.0042 773.947 L28.3562 773.947 L28.3562 768.059 L33.8944 768.059 Q30.6797 765.958 29.0883 763.126 Q27.4968 760.261 27.4968 756.537 Q27.4968 750.394 31.3163 747.243 Q35.1038 744.092 42.4881 744.092 Z" fill="#000000" fill-rule="nonzero" fill-opacity="1" /><path clip-path="url(#clip610)" d="M18.2347 705.898 L28.3562 705.898 L28.3562 693.835 L32.9077 693.835 L32.9077 705.898 L52.2594 705.898 Q56.6199 705.898 57.8613 704.72 Q59.1026 703.511 59.1026 699.85 L59.1026 693.835 L64.0042 693.835 L64.0042 699.85 Q64.0042 706.63 61.4897 709.208 Q58.9434 711.786 52.2594 711.786 L32.9077 711.786 L32.9077 716.083 L28.3562 716.083 L28.3562 711.786 L18.2347 711.786 L18.2347 705.898 Z" fill="#000000" fill-rule="nonzero" fill-opacity="1" /><path clip-path="url(#clip610)" d="M28.3562 686.132 L28.3562 680.276 L64.0042 680.276 L64.0042 686.132 L28.3562 686.132 M14.479 686.132 L14.479 680.276 L21.895 680.276 L21.895 686.132 L14.479 686.132 Z" fill="#000000" fill-rule="nonzero" fill-opacity="1" /><path clip-path="url(#clip610)" d="M35.1993 640.267 Q31.2526 638.071 29.3747 635.016 Q27.4968 631.96 27.4968 627.822 Q27.4968 622.253 31.4117 619.229 Q35.2948 616.205 42.4881 616.205 L64.0042 616.205 L64.0042 622.093 L42.679 622.093 Q37.5546 622.093 35.072 623.908 Q32.5894 625.722 32.5894 629.446 Q32.5894 633.997 35.6131 636.639 Q38.6368 639.281 43.8567 639.281 L64.0042 639.281 L64.0042 645.169 L42.679 645.169 Q37.5228 645.169 35.072 646.983 Q32.5894 648.798 32.5894 652.585 Q32.5894 657.073 35.6449 659.715 Q38.6686 662.356 43.8567 662.356 L64.0042 662.356 L64.0042 668.245 L28.3562 668.245 L28.3562 662.356 L33.8944 662.356 Q30.616 660.351 29.0564 657.55 Q27.4968 654.749 27.4968 650.898 Q27.4968 647.015 29.4702 644.31 Q31.4436 641.572 35.1993 640.267 Z" fill="#000000" fill-rule="nonzero" fill-opacity="1" /><path clip-path="url(#clip610)" d="M44.7161 574.032 L47.5806 574.032 L47.5806 600.959 Q53.6281 600.577 56.8109 597.331 Q59.9619 594.052 59.9619 588.228 Q59.9619 584.854 59.1344 581.703 Q58.3069 578.52 56.6518 575.401 L62.1899 575.401 Q63.5267 578.552 64.227 581.862 Q64.9272 585.172 64.9272 588.578 Q64.9272 597.108 59.9619 602.105 Q54.9967 607.07 46.5303 607.07 Q37.7774 607.07 32.6531 602.36 Q27.4968 597.617 27.4968 589.596 Q27.4968 582.403 32.1438 578.234 Q36.7589 574.032 44.7161 574.032 M42.9973 579.889 Q38.1912 579.952 35.3266 582.594 Q32.4621 585.204 32.4621 589.533 Q32.4621 594.434 35.2312 597.394 Q38.0002 600.323 43.0292 600.768 L42.9973 579.889 Z" fill="#000000" fill-rule="nonzero" fill-opacity="1" /><path clip-path="url(#clip610)" d="M14.5426 529.631 Q21.8632 533.896 29.0246 535.965 Q36.186 538.034 43.5384 538.034 Q50.8908 538.034 58.1159 535.965 Q65.3091 533.865 72.5979 529.631 L72.5979 534.724 Q65.1182 539.498 57.8931 541.885 Q50.668 544.241 43.5384 544.241 Q36.4406 544.241 29.2474 541.885 Q22.0542 539.53 14.5426 534.724 L14.5426 529.631 Z" fill="#000000" fill-rule="nonzero" fill-opacity="1" /><path clip-path="url(#clip610)" d="M29.4065 495.543 L34.9447 495.543 Q33.6716 498.026 33.035 500.699 Q32.3984 503.373 32.3984 506.238 Q32.3984 510.598 33.7352 512.794 Q35.072 514.959 37.7456 514.959 Q39.7826 514.959 40.9603 513.399 Q42.1061 511.839 43.1565 507.129 L43.6021 505.124 Q44.9389 498.885 47.3897 496.275 Q49.8086 493.633 54.1691 493.633 Q59.1344 493.633 62.0308 497.58 Q64.9272 501.495 64.9272 508.37 Q64.9272 511.235 64.3543 514.354 Q63.8132 517.441 62.6992 520.879 L56.6518 520.879 Q58.3387 517.632 59.198 514.481 Q60.0256 511.33 60.0256 508.243 Q60.0256 504.105 58.6251 501.877 Q57.1929 499.649 54.6147 499.649 Q52.2276 499.649 50.9545 501.272 Q49.6813 502.864 48.5037 508.306 L48.0262 510.343 Q46.8804 515.786 44.5251 518.205 Q42.138 520.624 38.0002 520.624 Q32.9713 520.624 30.2341 517.059 Q27.4968 513.494 27.4968 506.938 Q27.4968 503.691 27.9743 500.827 Q28.4517 497.962 29.4065 495.543 Z" fill="#000000" fill-rule="nonzero" fill-opacity="1" /><path clip-path="url(#clip610)" d="M14.5426 485.231 L14.5426 480.138 Q22.0542 475.364 29.2474 473.009 Q36.4406 470.621 43.5384 470.621 Q50.668 470.621 57.8931 473.009 Q65.1182 475.364 72.5979 480.138 L72.5979 485.231 Q65.3091 480.997 58.1159 478.929 Q50.8908 476.828 43.5384 476.828 Q36.186 476.828 29.0246 478.929 Q21.8632 480.997 14.5426 485.231 Z" fill="#000000" fill-rule="nonzero" fill-opacity="1" /><polyline clip-path="url(#clip612)" style="stroke:#009af9; stroke-linecap:round; stroke-linejoin:round; stroke-width:4; stroke-opacity:1; fill:none" points="237.067,1368.75 310.427,1347.54 457.146,1302.99 677.224,1224.51 970.662,1068.52 1337.46,883.484 1777.62,589.128 2291.13,86.1857 "/>
<polyline clip-path="url(#clip612)" style="stroke:#e26f46; stroke-linecap:round; stroke-linejoin:round; stroke-width:4; stroke-opacity:1; fill:none" points="237.067,1368.86 310.427,1359.62 457.146,1328.87 677.224,1285.75 970.662,1232.25 1337.46,1137.34 1777.62,1008.18 2291.13,834.442 "/>
<polyline clip-path="url(#clip612)" style="stroke:#3da44d; stroke-linecap:round; stroke-linejoin:round; stroke-width:4; stroke-opacity:1; fill:none" points="237.067,1376.68 310.427,1366.83 457.146,1343.44 677.224,1311.49 970.662,1284.11 1337.46,1233.86 1777.62,1189.24 2291.13,1127.63 "/>
<polyline clip-path="url(#clip612)" style="stroke:#c271d2; stroke-linecap:round; stroke-linejoin:round; stroke-width:4; stroke-opacity:1; fill:none" points="237.067,1384.24 310.427,1383.02 457.146,1381.51 677.224,1377.05 970.662,1374.15 1337.46,1369.69 1777.62,1362.45 2291.13,1352.07 "/>
<path clip-path="url(#clip610)" d="M248.022 352.309 L1062.35 352.309 L1062.35 93.1086 L248.022 93.1086  Z" fill="#ffffff" fill-rule="evenodd" fill-opacity="1"/>
<polyline clip-path="url(#clip610)" style="stroke:#000000; stroke-linecap:round; stroke-linejoin:round; stroke-width:4; stroke-opacity:1; fill:none" points="248.022,352.309 1062.35,352.309 1062.35,93.1086 248.022,93.1086 248.022,352.309 "/>
<polyline clip-path="url(#clip610)" style="stroke:#009af9; stroke-linecap:round; stroke-linejoin:round; stroke-width:4; stroke-opacity:1; fill:none" points="272.215,144.949 417.369,144.949 "/>
<path clip-path="url(#clip610)" d="M441.561 127.669 L446.237 127.669 L446.237 162.229 L441.561 162.229 L441.561 127.669 Z" fill="#000000" fill-rule="nonzero" fill-opacity="1" /><path clip-path="url(#clip610)" d="M476.908 146.581 L476.908 162.229 L472.649 162.229 L472.649 146.719 Q472.649 143.039 471.214 141.21 Q469.778 139.382 466.908 139.382 Q463.459 139.382 461.468 141.581 Q459.478 143.78 459.478 147.576 L459.478 162.229 L455.195 162.229 L455.195 136.303 L459.478 136.303 L459.478 140.331 Q461.005 137.993 463.065 136.835 Q465.149 135.678 467.857 135.678 Q472.325 135.678 474.616 138.456 Q476.908 141.21 476.908 146.581 Z" fill="#000000" fill-rule="nonzero" fill-opacity="1" /><path clip-path="url(#clip610)" d="M489.616 128.942 L489.616 136.303 L498.389 136.303 L498.389 139.613 L489.616 139.613 L489.616 153.687 Q489.616 156.858 490.473 157.761 Q491.352 158.664 494.014 158.664 L498.389 158.664 L498.389 162.229 L494.014 162.229 Q489.084 162.229 487.209 160.4 Q485.334 158.548 485.334 153.687 L485.334 139.613 L482.209 139.613 L482.209 136.303 L485.334 136.303 L485.334 128.942 L489.616 128.942 Z" fill="#000000" fill-rule="nonzero" fill-opacity="1" /><path clip-path="url(#clip610)" d="M503.551 151.997 L503.551 136.303 L507.811 136.303 L507.811 151.835 Q507.811 155.516 509.246 157.368 Q510.681 159.196 513.551 159.196 Q517 159.196 518.991 156.997 Q521.005 154.798 521.005 151.002 L521.005 136.303 L525.264 136.303 L525.264 162.229 L521.005 162.229 L521.005 158.247 Q519.454 160.608 517.394 161.766 Q515.357 162.9 512.649 162.9 Q508.181 162.9 505.866 160.122 Q503.551 157.344 503.551 151.997 M514.269 135.678 L514.269 135.678 Z" fill="#000000" fill-rule="nonzero" fill-opacity="1" /><path clip-path="url(#clip610)" d="M534.037 136.303 L538.297 136.303 L538.297 162.229 L534.037 162.229 L534.037 136.303 M534.037 126.21 L538.297 126.21 L538.297 131.604 L534.037 131.604 L534.037 126.21 Z" fill="#000000" fill-rule="nonzero" fill-opacity="1" /><path clip-path="url(#clip610)" d="M551.421 128.942 L551.421 136.303 L560.195 136.303 L560.195 139.613 L551.421 139.613 L551.421 153.687 Q551.421 156.858 552.278 157.761 Q553.158 158.664 555.82 158.664 L560.195 158.664 L560.195 162.229 L555.82 162.229 Q550.889 162.229 549.014 160.4 Q547.139 158.548 547.139 153.687 L547.139 139.613 L544.014 139.613 L544.014 136.303 L547.139 136.303 L547.139 128.942 L551.421 128.942 Z" fill="#000000" fill-rule="nonzero" fill-opacity="1" /><path clip-path="url(#clip610)" d="M565.796 136.303 L570.056 136.303 L570.056 162.229 L565.796 162.229 L565.796 136.303 M565.796 126.21 L570.056 126.21 L570.056 131.604 L565.796 131.604 L565.796 126.21 Z" fill="#000000" fill-rule="nonzero" fill-opacity="1" /><path clip-path="url(#clip610)" d="M575.912 136.303 L580.426 136.303 L588.528 158.062 L596.63 136.303 L601.143 136.303 L591.421 162.229 L585.634 162.229 L575.912 136.303 Z" fill="#000000" fill-rule="nonzero" fill-opacity="1" /><path clip-path="url(#clip610)" d="M629.199 148.201 L629.199 150.284 L609.616 150.284 Q609.893 154.682 612.254 156.997 Q614.639 159.289 618.875 159.289 Q621.329 159.289 623.62 158.687 Q625.935 158.085 628.203 156.881 L628.203 160.909 Q625.912 161.881 623.504 162.391 Q621.097 162.9 618.62 162.9 Q612.417 162.9 608.782 159.289 Q605.171 155.678 605.171 149.52 Q605.171 143.155 608.597 139.428 Q612.046 135.678 617.879 135.678 Q623.111 135.678 626.143 139.057 Q629.199 142.414 629.199 148.201 M624.94 146.951 Q624.893 143.456 622.972 141.372 Q621.074 139.289 617.926 139.289 Q614.361 139.289 612.208 141.303 Q610.079 143.317 609.755 146.974 L624.94 146.951 Z" fill="#000000" fill-rule="nonzero" fill-opacity="1" /><path clip-path="url(#clip610)" d="M661.49 126.257 Q658.389 131.581 656.884 136.789 Q655.379 141.997 655.379 147.344 Q655.379 152.692 656.884 157.946 Q658.412 163.178 661.49 168.479 L657.787 168.479 Q654.314 163.039 652.578 157.784 Q650.865 152.53 650.865 147.344 Q650.865 142.182 652.578 136.951 Q654.291 131.72 657.787 126.257 L661.49 126.257 Z" fill="#000000" fill-rule="nonzero" fill-opacity="1" /><path clip-path="url(#clip610)" d="M691.305 146.581 L691.305 162.229 L687.046 162.229 L687.046 146.719 Q687.046 143.039 685.611 141.21 Q684.175 139.382 681.305 139.382 Q677.856 139.382 675.865 141.581 Q673.875 143.78 673.875 147.576 L673.875 162.229 L669.592 162.229 L669.592 136.303 L673.875 136.303 L673.875 140.331 Q675.402 137.993 677.462 136.835 Q679.546 135.678 682.254 135.678 Q686.722 135.678 689.013 138.456 Q691.305 141.21 691.305 146.581 Z" fill="#000000" fill-rule="nonzero" fill-opacity="1" /><path clip-path="url(#clip610)" d="M709.847 139.289 Q706.421 139.289 704.43 141.974 Q702.439 144.636 702.439 149.289 Q702.439 153.942 704.407 156.627 Q706.398 159.289 709.847 159.289 Q713.249 159.289 715.24 156.604 Q717.231 153.918 717.231 149.289 Q717.231 144.682 715.24 141.997 Q713.249 139.289 709.847 139.289 M709.847 135.678 Q715.402 135.678 718.573 139.289 Q721.745 142.9 721.745 149.289 Q721.745 155.655 718.573 159.289 Q715.402 162.9 709.847 162.9 Q704.268 162.9 701.097 159.289 Q697.948 155.655 697.948 149.289 Q697.948 142.9 701.097 139.289 Q704.268 135.678 709.847 135.678 Z" fill="#000000" fill-rule="nonzero" fill-opacity="1" /><path clip-path="url(#clip610)" d="M733.018 128.942 L733.018 136.303 L741.791 136.303 L741.791 139.613 L733.018 139.613 L733.018 153.687 Q733.018 156.858 733.874 157.761 Q734.754 158.664 737.416 158.664 L741.791 158.664 L741.791 162.229 L737.416 162.229 Q732.485 162.229 730.61 160.4 Q728.735 158.548 728.735 153.687 L728.735 139.613 L725.61 139.613 L725.61 136.303 L728.735 136.303 L728.735 128.942 L733.018 128.942 Z" fill="#000000" fill-rule="nonzero" fill-opacity="1" /><path clip-path="url(#clip610)" d="M766.675 128.942 L766.675 136.303 L775.448 136.303 L775.448 139.613 L766.675 139.613 L766.675 153.687 Q766.675 156.858 767.531 157.761 Q768.411 158.664 771.073 158.664 L775.448 158.664 L775.448 162.229 L771.073 162.229 Q766.143 162.229 764.268 160.4 Q762.393 158.548 762.393 153.687 L762.393 139.613 L759.268 139.613 L759.268 136.303 L762.393 136.303 L762.393 128.942 L766.675 128.942 Z" fill="#000000" fill-rule="nonzero" fill-opacity="1" /><path clip-path="url(#clip610)" d="M791.837 164.636 Q790.031 169.266 788.318 170.678 Q786.605 172.09 783.735 172.09 L780.332 172.09 L780.332 168.525 L782.832 168.525 Q784.592 168.525 785.564 167.692 Q786.536 166.858 787.717 163.756 L788.48 161.812 L777.994 136.303 L782.508 136.303 L790.61 156.581 L798.712 136.303 L803.226 136.303 L791.837 164.636 Z" fill="#000000" fill-rule="nonzero" fill-opacity="1" /><path clip-path="url(#clip610)" d="M813.226 158.34 L813.226 172.09 L808.943 172.09 L808.943 136.303 L813.226 136.303 L813.226 140.238 Q814.568 137.923 816.605 136.812 Q818.665 135.678 821.513 135.678 Q826.235 135.678 829.175 139.428 Q832.138 143.178 832.138 149.289 Q832.138 155.4 829.175 159.15 Q826.235 162.9 821.513 162.9 Q818.665 162.9 816.605 161.789 Q814.568 160.655 813.226 158.34 M827.716 149.289 Q827.716 144.59 825.772 141.928 Q823.851 139.243 820.471 139.243 Q817.091 139.243 815.147 141.928 Q813.226 144.59 813.226 149.289 Q813.226 153.988 815.147 156.673 Q817.091 159.335 820.471 159.335 Q823.851 159.335 825.772 156.673 Q827.716 153.988 827.716 149.289 Z" fill="#000000" fill-rule="nonzero" fill-opacity="1" /><path clip-path="url(#clip610)" d="M861.374 148.201 L861.374 150.284 L841.79 150.284 Q842.068 154.682 844.429 156.997 Q846.813 159.289 851.05 159.289 Q853.503 159.289 855.795 158.687 Q858.11 158.085 860.378 156.881 L860.378 160.909 Q858.087 161.881 855.679 162.391 Q853.272 162.9 850.795 162.9 Q844.591 162.9 840.957 159.289 Q837.346 155.678 837.346 149.52 Q837.346 143.155 840.772 139.428 Q844.221 135.678 850.054 135.678 Q855.286 135.678 858.318 139.057 Q861.374 142.414 861.374 148.201 M857.114 146.951 Q857.068 143.456 855.147 141.372 Q853.249 139.289 850.1 139.289 Q846.536 139.289 844.383 141.303 Q842.253 143.317 841.929 146.974 L857.114 146.951 Z" fill="#000000" fill-rule="nonzero" fill-opacity="1" /><path clip-path="url(#clip610)" d="M899.961 137.067 L899.961 141.094 Q898.156 140.169 896.211 139.706 Q894.267 139.243 892.184 139.243 Q889.012 139.243 887.415 140.215 Q885.841 141.187 885.841 143.131 Q885.841 144.613 886.975 145.469 Q888.109 146.303 891.535 147.067 L892.994 147.391 Q897.531 148.363 899.429 150.145 Q901.35 151.905 901.35 155.076 Q901.35 158.687 898.48 160.793 Q895.633 162.9 890.633 162.9 Q888.549 162.9 886.281 162.483 Q884.035 162.09 881.535 161.28 L881.535 156.881 Q883.897 158.108 886.188 158.733 Q888.48 159.335 890.725 159.335 Q893.734 159.335 895.355 158.317 Q896.975 157.275 896.975 155.4 Q896.975 153.664 895.795 152.738 Q894.637 151.812 890.679 150.956 L889.197 150.608 Q885.239 149.775 883.48 148.062 Q881.721 146.326 881.721 143.317 Q881.721 139.659 884.313 137.669 Q886.906 135.678 891.674 135.678 Q894.035 135.678 896.119 136.025 Q898.202 136.372 899.961 137.067 Z" fill="#000000" fill-rule="nonzero" fill-opacity="1" /><path clip-path="url(#clip610)" d="M912.345 128.942 L912.345 136.303 L921.119 136.303 L921.119 139.613 L912.345 139.613 L912.345 153.687 Q912.345 156.858 913.202 157.761 Q914.082 158.664 916.744 158.664 L921.119 158.664 L921.119 162.229 L916.744 162.229 Q911.813 162.229 909.938 160.4 Q908.063 158.548 908.063 153.687 L908.063 139.613 L904.938 139.613 L904.938 136.303 L908.063 136.303 L908.063 128.942 L912.345 128.942 Z" fill="#000000" fill-rule="nonzero" fill-opacity="1" /><path clip-path="url(#clip610)" d="M938.503 149.196 Q933.341 149.196 931.35 150.377 Q929.359 151.557 929.359 154.405 Q929.359 156.673 930.841 158.016 Q932.345 159.335 934.915 159.335 Q938.456 159.335 940.586 156.835 Q942.739 154.312 942.739 150.145 L942.739 149.196 L938.503 149.196 M946.998 147.437 L946.998 162.229 L942.739 162.229 L942.739 158.293 Q941.281 160.655 939.105 161.789 Q936.929 162.9 933.781 162.9 Q929.799 162.9 927.438 160.678 Q925.1 158.432 925.1 154.682 Q925.1 150.307 928.017 148.085 Q930.956 145.863 936.767 145.863 L942.739 145.863 L942.739 145.446 Q942.739 142.507 940.794 140.909 Q938.873 139.289 935.378 139.289 Q933.156 139.289 931.049 139.821 Q928.943 140.354 926.998 141.419 L926.998 137.483 Q929.336 136.581 931.535 136.141 Q933.734 135.678 935.818 135.678 Q941.443 135.678 944.22 138.594 Q946.998 141.511 946.998 147.437 Z" fill="#000000" fill-rule="nonzero" fill-opacity="1" /><path clip-path="url(#clip610)" d="M974.382 149.289 Q974.382 144.59 972.438 141.928 Q970.516 139.243 967.137 139.243 Q963.757 139.243 961.813 141.928 Q959.892 144.59 959.892 149.289 Q959.892 153.988 961.813 156.673 Q963.757 159.335 967.137 159.335 Q970.516 159.335 972.438 156.673 Q974.382 153.988 974.382 149.289 M959.892 140.238 Q961.234 137.923 963.271 136.812 Q965.331 135.678 968.179 135.678 Q972.901 135.678 975.841 139.428 Q978.803 143.178 978.803 149.289 Q978.803 155.4 975.841 159.15 Q972.901 162.9 968.179 162.9 Q965.331 162.9 963.271 161.789 Q961.234 160.655 959.892 158.34 L959.892 162.229 L955.609 162.229 L955.609 126.21 L959.892 126.21 L959.892 140.238 Z" fill="#000000" fill-rule="nonzero" fill-opacity="1" /><path clip-path="url(#clip610)" d="M985.864 126.21 L990.123 126.21 L990.123 162.229 L985.864 162.229 L985.864 126.21 Z" fill="#000000" fill-rule="nonzero" fill-opacity="1" /><path clip-path="url(#clip610)" d="M1021.21 148.201 L1021.21 150.284 L1001.63 150.284 Q1001.91 154.682 1004.27 156.997 Q1006.65 159.289 1010.89 159.289 Q1013.34 159.289 1015.63 158.687 Q1017.95 158.085 1020.22 156.881 L1020.22 160.909 Q1017.92 161.881 1015.52 162.391 Q1013.11 162.9 1010.63 162.9 Q1004.43 162.9 1000.79 159.289 Q997.183 155.678 997.183 149.52 Q997.183 143.155 1000.61 139.428 Q1004.06 135.678 1009.89 135.678 Q1015.12 135.678 1018.16 139.057 Q1021.21 142.414 1021.21 148.201 M1016.95 146.951 Q1016.91 143.456 1014.98 141.372 Q1013.09 139.289 1009.94 139.289 Q1006.37 139.289 1004.22 141.303 Q1002.09 143.317 1001.77 146.974 L1016.95 146.951 Z" fill="#000000" fill-rule="nonzero" fill-opacity="1" /><path clip-path="url(#clip610)" d="M1027.53 126.257 L1031.23 126.257 Q1034.71 131.72 1036.42 136.951 Q1038.15 142.182 1038.15 147.344 Q1038.15 152.53 1036.42 157.784 Q1034.71 163.039 1031.23 168.479 L1027.53 168.479 Q1030.61 163.178 1032.11 157.946 Q1033.64 152.692 1033.64 147.344 Q1033.64 141.997 1032.11 136.789 Q1030.61 131.581 1027.53 126.257 Z" fill="#000000" fill-rule="nonzero" fill-opacity="1" /><polyline clip-path="url(#clip610)" style="stroke:#e26f46; stroke-linecap:round; stroke-linejoin:round; stroke-width:4; stroke-opacity:1; fill:none" points="272.215,196.789 417.369,196.789 "/>
<path clip-path="url(#clip610)" d="M441.561 179.509 L446.237 179.509 L446.237 214.069 L441.561 214.069 L441.561 179.509 Z" fill="#000000" fill-rule="nonzero" fill-opacity="1" /><path clip-path="url(#clip610)" d="M476.908 198.421 L476.908 214.069 L472.649 214.069 L472.649 198.559 Q472.649 194.879 471.214 193.05 Q469.778 191.222 466.908 191.222 Q463.459 191.222 461.468 193.421 Q459.478 195.62 459.478 199.416 L459.478 214.069 L455.195 214.069 L455.195 188.143 L459.478 188.143 L459.478 192.171 Q461.005 189.833 463.065 188.675 Q465.149 187.518 467.857 187.518 Q472.325 187.518 474.616 190.296 Q476.908 193.05 476.908 198.421 Z" fill="#000000" fill-rule="nonzero" fill-opacity="1" /><path clip-path="url(#clip610)" d="M489.616 180.782 L489.616 188.143 L498.389 188.143 L498.389 191.453 L489.616 191.453 L489.616 205.527 Q489.616 208.698 490.473 209.601 Q491.352 210.504 494.014 210.504 L498.389 210.504 L498.389 214.069 L494.014 214.069 Q489.084 214.069 487.209 212.24 Q485.334 210.388 485.334 205.527 L485.334 191.453 L482.209 191.453 L482.209 188.143 L485.334 188.143 L485.334 180.782 L489.616 180.782 Z" fill="#000000" fill-rule="nonzero" fill-opacity="1" /><path clip-path="url(#clip610)" d="M503.551 203.837 L503.551 188.143 L507.811 188.143 L507.811 203.675 Q507.811 207.356 509.246 209.208 Q510.681 211.036 513.551 211.036 Q517 211.036 518.991 208.837 Q521.005 206.638 521.005 202.842 L521.005 188.143 L525.264 188.143 L525.264 214.069 L521.005 214.069 L521.005 210.087 Q519.454 212.448 517.394 213.606 Q515.357 214.74 512.649 214.74 Q508.181 214.74 505.866 211.962 Q503.551 209.184 503.551 203.837 M514.269 187.518 L514.269 187.518 Z" fill="#000000" fill-rule="nonzero" fill-opacity="1" /><path clip-path="url(#clip610)" d="M534.037 188.143 L538.297 188.143 L538.297 214.069 L534.037 214.069 L534.037 188.143 M534.037 178.05 L538.297 178.05 L538.297 183.444 L534.037 183.444 L534.037 178.05 Z" fill="#000000" fill-rule="nonzero" fill-opacity="1" /><path clip-path="url(#clip610)" d="M551.421 180.782 L551.421 188.143 L560.195 188.143 L560.195 191.453 L551.421 191.453 L551.421 205.527 Q551.421 208.698 552.278 209.601 Q553.158 210.504 555.82 210.504 L560.195 210.504 L560.195 214.069 L555.82 214.069 Q550.889 214.069 549.014 212.24 Q547.139 210.388 547.139 205.527 L547.139 191.453 L544.014 191.453 L544.014 188.143 L547.139 188.143 L547.139 180.782 L551.421 180.782 Z" fill="#000000" fill-rule="nonzero" fill-opacity="1" /><path clip-path="url(#clip610)" d="M565.796 188.143 L570.056 188.143 L570.056 214.069 L565.796 214.069 L565.796 188.143 M565.796 178.05 L570.056 178.05 L570.056 183.444 L565.796 183.444 L565.796 178.05 Z" fill="#000000" fill-rule="nonzero" fill-opacity="1" /><path clip-path="url(#clip610)" d="M575.912 188.143 L580.426 188.143 L588.528 209.902 L596.63 188.143 L601.143 188.143 L591.421 214.069 L585.634 214.069 L575.912 188.143 Z" fill="#000000" fill-rule="nonzero" fill-opacity="1" /><path clip-path="url(#clip610)" d="M629.199 200.041 L629.199 202.124 L609.616 202.124 Q609.893 206.522 612.254 208.837 Q614.639 211.129 618.875 211.129 Q621.329 211.129 623.62 210.527 Q625.935 209.925 628.203 208.721 L628.203 212.749 Q625.912 213.721 623.504 214.231 Q621.097 214.74 618.62 214.74 Q612.417 214.74 608.782 211.129 Q605.171 207.518 605.171 201.36 Q605.171 194.995 608.597 191.268 Q612.046 187.518 617.879 187.518 Q623.111 187.518 626.143 190.897 Q629.199 194.254 629.199 200.041 M624.94 198.791 Q624.893 195.296 622.972 193.212 Q621.074 191.129 617.926 191.129 Q614.361 191.129 612.208 193.143 Q610.079 195.157 609.755 198.814 L624.94 198.791 Z" fill="#000000" fill-rule="nonzero" fill-opacity="1" /><path clip-path="url(#clip610)" d="M661.49 178.097 Q658.389 183.421 656.884 188.629 Q655.379 193.837 655.379 199.184 Q655.379 204.532 656.884 209.786 Q658.412 215.018 661.49 220.319 L657.787 220.319 Q654.314 214.879 652.578 209.624 Q650.865 204.37 650.865 199.184 Q650.865 194.022 652.578 188.791 Q654.291 183.56 657.787 178.097 L661.49 178.097 Z" fill="#000000" fill-rule="nonzero" fill-opacity="1" /><path clip-path="url(#clip610)" d="M673.967 180.782 L673.967 188.143 L682.74 188.143 L682.74 191.453 L673.967 191.453 L673.967 205.527 Q673.967 208.698 674.824 209.601 Q675.703 210.504 678.365 210.504 L682.74 210.504 L682.74 214.069 L678.365 214.069 Q673.435 214.069 671.56 212.24 Q669.685 210.388 669.685 205.527 L669.685 191.453 L666.56 191.453 L666.56 188.143 L669.685 188.143 L669.685 180.782 L673.967 180.782 Z" fill="#000000" fill-rule="nonzero" fill-opacity="1" /><path clip-path="url(#clip610)" d="M699.129 216.476 Q697.323 221.106 695.611 222.518 Q693.898 223.93 691.027 223.93 L687.624 223.93 L687.624 220.365 L690.124 220.365 Q691.884 220.365 692.856 219.532 Q693.828 218.698 695.009 215.596 L695.773 213.652 L685.287 188.143 L689.8 188.143 L697.902 208.421 L706.004 188.143 L710.518 188.143 L699.129 216.476 Z" fill="#000000" fill-rule="nonzero" fill-opacity="1" /><path clip-path="url(#clip610)" d="M720.518 210.18 L720.518 223.93 L716.235 223.93 L716.235 188.143 L720.518 188.143 L720.518 192.078 Q721.86 189.763 723.897 188.652 Q725.958 187.518 728.805 187.518 Q733.527 187.518 736.467 191.268 Q739.43 195.018 739.43 201.129 Q739.43 207.24 736.467 210.99 Q733.527 214.74 728.805 214.74 Q725.958 214.74 723.897 213.629 Q721.86 212.495 720.518 210.18 M735.008 201.129 Q735.008 196.43 733.064 193.768 Q731.143 191.083 727.763 191.083 Q724.384 191.083 722.439 193.768 Q720.518 196.43 720.518 201.129 Q720.518 205.828 722.439 208.513 Q724.384 211.175 727.763 211.175 Q731.143 211.175 733.064 208.513 Q735.008 205.828 735.008 201.129 Z" fill="#000000" fill-rule="nonzero" fill-opacity="1" /><path clip-path="url(#clip610)" d="M768.666 200.041 L768.666 202.124 L749.082 202.124 Q749.36 206.522 751.721 208.837 Q754.106 211.129 758.342 211.129 Q760.795 211.129 763.087 210.527 Q765.402 209.925 767.67 208.721 L767.67 212.749 Q765.379 213.721 762.971 214.231 Q760.564 214.74 758.087 214.74 Q751.883 214.74 748.249 211.129 Q744.638 207.518 744.638 201.36 Q744.638 194.995 748.064 191.268 Q751.513 187.518 757.346 187.518 Q762.578 187.518 765.61 190.897 Q768.666 194.254 768.666 200.041 M764.406 198.791 Q764.36 195.296 762.439 193.212 Q760.541 191.129 757.393 191.129 Q753.828 191.129 751.675 193.143 Q749.545 195.157 749.221 198.814 L764.406 198.791 Z" fill="#000000" fill-rule="nonzero" fill-opacity="1" /><path clip-path="url(#clip610)" d="M807.253 188.907 L807.253 192.934 Q805.448 192.009 803.503 191.546 Q801.559 191.083 799.476 191.083 Q796.304 191.083 794.707 192.055 Q793.133 193.027 793.133 194.971 Q793.133 196.453 794.267 197.309 Q795.402 198.143 798.828 198.907 L800.286 199.231 Q804.823 200.203 806.721 201.985 Q808.642 203.745 808.642 206.916 Q808.642 210.527 805.772 212.633 Q802.925 214.74 797.925 214.74 Q795.841 214.74 793.573 214.323 Q791.328 213.93 788.828 213.12 L788.828 208.721 Q791.189 209.948 793.48 210.573 Q795.772 211.175 798.017 211.175 Q801.027 211.175 802.647 210.157 Q804.267 209.115 804.267 207.24 Q804.267 205.504 803.087 204.578 Q801.929 203.652 797.971 202.796 L796.49 202.448 Q792.531 201.615 790.772 199.902 Q789.013 198.166 789.013 195.157 Q789.013 191.499 791.605 189.509 Q794.198 187.518 798.966 187.518 Q801.328 187.518 803.411 187.865 Q805.494 188.212 807.253 188.907 Z" fill="#000000" fill-rule="nonzero" fill-opacity="1" /><path clip-path="url(#clip610)" d="M819.638 180.782 L819.638 188.143 L828.411 188.143 L828.411 191.453 L819.638 191.453 L819.638 205.527 Q819.638 208.698 820.494 209.601 Q821.374 210.504 824.036 210.504 L828.411 210.504 L828.411 214.069 L824.036 214.069 Q819.105 214.069 817.23 212.24 Q815.355 210.388 815.355 205.527 L815.355 191.453 L812.23 191.453 L812.23 188.143 L815.355 188.143 L815.355 180.782 L819.638 180.782 Z" fill="#000000" fill-rule="nonzero" fill-opacity="1" /><path clip-path="url(#clip610)" d="M845.795 201.036 Q840.633 201.036 838.642 202.217 Q836.651 203.397 836.651 206.245 Q836.651 208.513 838.133 209.856 Q839.638 211.175 842.207 211.175 Q845.749 211.175 847.878 208.675 Q850.031 206.152 850.031 201.985 L850.031 201.036 L845.795 201.036 M854.29 199.277 L854.29 214.069 L850.031 214.069 L850.031 210.133 Q848.573 212.495 846.397 213.629 Q844.221 214.74 841.073 214.74 Q837.091 214.74 834.73 212.518 Q832.392 210.272 832.392 206.522 Q832.392 202.147 835.309 199.925 Q838.249 197.703 844.059 197.703 L850.031 197.703 L850.031 197.286 Q850.031 194.347 848.087 192.749 Q846.165 191.129 842.67 191.129 Q840.448 191.129 838.341 191.661 Q836.235 192.194 834.29 193.259 L834.29 189.323 Q836.628 188.421 838.827 187.981 Q841.026 187.518 843.11 187.518 Q848.735 187.518 851.512 190.434 Q854.29 193.351 854.29 199.277 Z" fill="#000000" fill-rule="nonzero" fill-opacity="1" /><path clip-path="url(#clip610)" d="M881.674 201.129 Q881.674 196.43 879.73 193.768 Q877.809 191.083 874.429 191.083 Q871.049 191.083 869.105 193.768 Q867.184 196.43 867.184 201.129 Q867.184 205.828 869.105 208.513 Q871.049 211.175 874.429 211.175 Q877.809 211.175 879.73 208.513 Q881.674 205.828 881.674 201.129 M867.184 192.078 Q868.526 189.763 870.563 188.652 Q872.623 187.518 875.471 187.518 Q880.193 187.518 883.133 191.268 Q886.096 195.018 886.096 201.129 Q886.096 207.24 883.133 210.99 Q880.193 214.74 875.471 214.74 Q872.623 214.74 870.563 213.629 Q868.526 212.495 867.184 210.18 L867.184 214.069 L862.901 214.069 L862.901 178.05 L867.184 178.05 L867.184 192.078 Z" fill="#000000" fill-rule="nonzero" fill-opacity="1" /><path clip-path="url(#clip610)" d="M893.156 178.05 L897.415 178.05 L897.415 214.069 L893.156 214.069 L893.156 178.05 Z" fill="#000000" fill-rule="nonzero" fill-opacity="1" /><path clip-path="url(#clip610)" d="M928.503 200.041 L928.503 202.124 L908.92 202.124 Q909.197 206.522 911.558 208.837 Q913.943 211.129 918.179 211.129 Q920.632 211.129 922.924 210.527 Q925.239 209.925 927.507 208.721 L927.507 212.749 Q925.216 213.721 922.808 214.231 Q920.401 214.74 917.924 214.74 Q911.72 214.74 908.086 211.129 Q904.475 207.518 904.475 201.36 Q904.475 194.995 907.901 191.268 Q911.35 187.518 917.183 187.518 Q922.415 187.518 925.447 190.897 Q928.503 194.254 928.503 200.041 M924.244 198.791 Q924.197 195.296 922.276 193.212 Q920.378 191.129 917.23 191.129 Q913.665 191.129 911.512 193.143 Q909.383 195.157 909.058 198.814 L924.244 198.791 Z" fill="#000000" fill-rule="nonzero" fill-opacity="1" /><path clip-path="url(#clip610)" d="M934.822 178.097 L938.526 178.097 Q941.998 183.56 943.711 188.791 Q945.447 194.022 945.447 199.184 Q945.447 204.37 943.711 209.624 Q941.998 214.879 938.526 220.319 L934.822 220.319 Q937.901 215.018 939.406 209.786 Q940.933 204.532 940.933 199.184 Q940.933 193.837 939.406 188.629 Q937.901 183.421 934.822 178.097 Z" fill="#000000" fill-rule="nonzero" fill-opacity="1" /><polyline clip-path="url(#clip610)" style="stroke:#3da44d; stroke-linecap:round; stroke-linejoin:round; stroke-width:4; stroke-opacity:1; fill:none" points="272.215,248.629 417.369,248.629 "/>
<path clip-path="url(#clip610)" d="M441.561 231.349 L461.422 231.349 L461.422 235.284 L446.237 235.284 L446.237 245.469 L459.94 245.469 L459.94 249.404 L446.237 249.404 L446.237 265.909 L441.561 265.909 L441.561 231.349 Z" fill="#000000" fill-rule="nonzero" fill-opacity="1" /><path clip-path="url(#clip610)" d="M476.075 252.876 Q470.913 252.876 468.922 254.057 Q466.931 255.237 466.931 258.085 Q466.931 260.353 468.413 261.696 Q469.917 263.015 472.487 263.015 Q476.028 263.015 478.158 260.515 Q480.311 257.992 480.311 253.825 L480.311 252.876 L476.075 252.876 M484.57 251.117 L484.57 265.909 L480.311 265.909 L480.311 261.973 Q478.852 264.335 476.677 265.469 Q474.501 266.58 471.352 266.58 Q467.371 266.58 465.01 264.358 Q462.672 262.112 462.672 258.362 Q462.672 253.987 465.589 251.765 Q468.528 249.543 474.339 249.543 L480.311 249.543 L480.311 249.126 Q480.311 246.187 478.366 244.589 Q476.445 242.969 472.95 242.969 Q470.727 242.969 468.621 243.501 Q466.515 244.034 464.57 245.099 L464.57 241.163 Q466.908 240.261 469.107 239.821 Q471.306 239.358 473.389 239.358 Q479.014 239.358 481.792 242.274 Q484.57 245.191 484.57 251.117 Z" fill="#000000" fill-rule="nonzero" fill-opacity="1" /><path clip-path="url(#clip610)" d="M509.871 240.747 L509.871 244.774 Q508.065 243.849 506.121 243.386 Q504.176 242.923 502.093 242.923 Q498.922 242.923 497.325 243.895 Q495.75 244.867 495.75 246.811 Q495.75 248.293 496.885 249.149 Q498.019 249.983 501.445 250.747 L502.903 251.071 Q507.44 252.043 509.338 253.825 Q511.26 255.585 511.26 258.756 Q511.26 262.367 508.389 264.473 Q505.542 266.58 500.542 266.58 Q498.459 266.58 496.19 266.163 Q493.945 265.77 491.445 264.96 L491.445 260.561 Q493.806 261.788 496.098 262.413 Q498.389 263.015 500.635 263.015 Q503.644 263.015 505.264 261.997 Q506.885 260.955 506.885 259.08 Q506.885 257.344 505.704 256.418 Q504.547 255.492 500.588 254.636 L499.107 254.288 Q495.149 253.455 493.389 251.742 Q491.63 250.006 491.63 246.997 Q491.63 243.339 494.223 241.349 Q496.815 239.358 501.584 239.358 Q503.945 239.358 506.028 239.705 Q508.112 240.052 509.871 240.747 Z" fill="#000000" fill-rule="nonzero" fill-opacity="1" /><path clip-path="url(#clip610)" d="M522.255 232.622 L522.255 239.983 L531.028 239.983 L531.028 243.293 L522.255 243.293 L522.255 257.367 Q522.255 260.538 523.111 261.441 Q523.991 262.344 526.653 262.344 L531.028 262.344 L531.028 265.909 L526.653 265.909 Q521.723 265.909 519.848 264.08 Q517.973 262.228 517.973 257.367 L517.973 243.293 L514.848 243.293 L514.848 239.983 L517.973 239.983 L517.973 232.622 L522.255 232.622 Z" fill="#000000" fill-rule="nonzero" fill-opacity="1" /><polyline clip-path="url(#clip610)" style="stroke:#c271d2; stroke-linecap:round; stroke-linejoin:round; stroke-width:4; stroke-opacity:1; fill:none" points="272.215,300.469 417.369,300.469 "/>
<path clip-path="url(#clip610)" d="M446.237 287.031 L446.237 313.906 L451.885 313.906 Q459.038 313.906 462.348 310.665 Q465.681 307.425 465.681 300.434 Q465.681 293.489 462.348 290.272 Q459.038 287.031 451.885 287.031 L446.237 287.031 M441.561 283.189 L451.167 283.189 Q461.214 283.189 465.913 287.378 Q470.612 291.545 470.612 300.434 Q470.612 309.369 465.89 313.559 Q461.167 317.749 451.167 317.749 L441.561 317.749 L441.561 283.189 Z" fill="#000000" fill-rule="nonzero" fill-opacity="1" /><path clip-path="url(#clip610)" d="M489.663 304.716 Q484.501 304.716 482.51 305.897 Q480.519 307.077 480.519 309.925 Q480.519 312.193 482.001 313.536 Q483.505 314.855 486.075 314.855 Q489.616 314.855 491.746 312.355 Q493.899 309.832 493.899 305.665 L493.899 304.716 L489.663 304.716 M498.158 302.957 L498.158 317.749 L493.899 317.749 L493.899 313.813 Q492.44 316.175 490.264 317.309 Q488.088 318.42 484.94 318.42 Q480.959 318.42 478.598 316.198 Q476.26 313.952 476.26 310.202 Q476.26 305.827 479.176 303.605 Q482.116 301.383 487.926 301.383 L493.899 301.383 L493.899 300.966 Q493.899 298.027 491.954 296.429 Q490.033 294.809 486.538 294.809 Q484.315 294.809 482.209 295.341 Q480.102 295.874 478.158 296.939 L478.158 293.003 Q480.496 292.101 482.695 291.661 Q484.894 291.198 486.977 291.198 Q492.602 291.198 495.38 294.114 Q498.158 297.031 498.158 302.957 Z" fill="#000000" fill-rule="nonzero" fill-opacity="1" /><path clip-path="url(#clip610)" d="M511.144 284.462 L511.144 291.823 L519.917 291.823 L519.917 295.133 L511.144 295.133 L511.144 309.207 Q511.144 312.378 512 313.281 Q512.88 314.184 515.542 314.184 L519.917 314.184 L519.917 317.749 L515.542 317.749 Q510.612 317.749 508.737 315.92 Q506.862 314.068 506.862 309.207 L506.862 295.133 L503.737 295.133 L503.737 291.823 L506.862 291.823 L506.862 284.462 L511.144 284.462 Z" fill="#000000" fill-rule="nonzero" fill-opacity="1" /><path clip-path="url(#clip610)" d="M537.301 304.716 Q532.139 304.716 530.148 305.897 Q528.158 307.077 528.158 309.925 Q528.158 312.193 529.639 313.536 Q531.144 314.855 533.713 314.855 Q537.255 314.855 539.385 312.355 Q541.537 309.832 541.537 305.665 L541.537 304.716 L537.301 304.716 M545.797 302.957 L545.797 317.749 L541.537 317.749 L541.537 313.813 Q540.079 316.175 537.903 317.309 Q535.727 318.42 532.579 318.42 Q528.598 318.42 526.236 316.198 Q523.898 313.952 523.898 310.202 Q523.898 305.827 526.815 303.605 Q529.755 301.383 535.565 301.383 L541.537 301.383 L541.537 300.966 Q541.537 298.027 539.593 296.429 Q537.672 294.809 534.176 294.809 Q531.954 294.809 529.848 295.341 Q527.741 295.874 525.797 296.939 L525.797 293.003 Q528.135 292.101 530.334 291.661 Q532.533 291.198 534.616 291.198 Q540.241 291.198 543.019 294.114 Q545.797 297.031 545.797 302.957 Z" fill="#000000" fill-rule="nonzero" fill-opacity="1" /><path clip-path="url(#clip610)" d="M554.755 283.189 L574.616 283.189 L574.616 287.124 L559.431 287.124 L559.431 297.309 L573.134 297.309 L573.134 301.244 L559.431 301.244 L559.431 317.749 L554.755 317.749 L554.755 283.189 Z" fill="#000000" fill-rule="nonzero" fill-opacity="1" /><path clip-path="url(#clip610)" d="M593.412 295.804 Q592.694 295.388 591.838 295.202 Q591.005 294.994 589.986 294.994 Q586.375 294.994 584.431 297.355 Q582.509 299.693 582.509 304.091 L582.509 317.749 L578.227 317.749 L578.227 291.823 L582.509 291.823 L582.509 295.851 Q583.852 293.489 586.005 292.355 Q588.157 291.198 591.236 291.198 Q591.676 291.198 592.208 291.267 Q592.741 291.314 593.389 291.429 L593.412 295.804 Z" fill="#000000" fill-rule="nonzero" fill-opacity="1" /><path clip-path="url(#clip610)" d="M609.662 304.716 Q604.5 304.716 602.509 305.897 Q600.518 307.077 600.518 309.925 Q600.518 312.193 602 313.536 Q603.505 314.855 606.074 314.855 Q609.616 314.855 611.745 312.355 Q613.898 309.832 613.898 305.665 L613.898 304.716 L609.662 304.716 M618.157 302.957 L618.157 317.749 L613.898 317.749 L613.898 313.813 Q612.44 316.175 610.264 317.309 Q608.088 318.42 604.94 318.42 Q600.958 318.42 598.597 316.198 Q596.259 313.952 596.259 310.202 Q596.259 305.827 599.176 303.605 Q602.116 301.383 607.926 301.383 L613.898 301.383 L613.898 300.966 Q613.898 298.027 611.954 296.429 Q610.032 294.809 606.537 294.809 Q604.315 294.809 602.208 295.341 Q600.102 295.874 598.157 296.939 L598.157 293.003 Q600.495 292.101 602.694 291.661 Q604.893 291.198 606.977 291.198 Q612.602 291.198 615.379 294.114 Q618.157 297.031 618.157 302.957 Z" fill="#000000" fill-rule="nonzero" fill-opacity="1" /><path clip-path="url(#clip610)" d="M647.115 296.8 Q648.713 293.929 650.935 292.564 Q653.157 291.198 656.166 291.198 Q660.217 291.198 662.416 294.045 Q664.615 296.869 664.615 302.101 L664.615 317.749 L660.333 317.749 L660.333 302.239 Q660.333 298.513 659.013 296.707 Q657.694 294.902 654.986 294.902 Q651.676 294.902 649.754 297.101 Q647.833 299.3 647.833 303.096 L647.833 317.749 L643.551 317.749 L643.551 302.239 Q643.551 298.489 642.231 296.707 Q640.912 294.902 638.157 294.902 Q634.893 294.902 632.972 297.124 Q631.051 299.323 631.051 303.096 L631.051 317.749 L626.768 317.749 L626.768 291.823 L631.051 291.823 L631.051 295.851 Q632.509 293.466 634.546 292.332 Q636.583 291.198 639.384 291.198 Q642.208 291.198 644.176 292.633 Q646.166 294.068 647.115 296.8 Z" fill="#000000" fill-rule="nonzero" fill-opacity="1" /><path clip-path="url(#clip610)" d="M695.286 303.721 L695.286 305.804 L675.703 305.804 Q675.981 310.202 678.342 312.517 Q680.726 314.809 684.962 314.809 Q687.416 314.809 689.708 314.207 Q692.023 313.605 694.291 312.401 L694.291 316.429 Q691.999 317.401 689.592 317.911 Q687.185 318.42 684.708 318.42 Q678.504 318.42 674.87 314.809 Q671.259 311.198 671.259 305.04 Q671.259 298.675 674.685 294.948 Q678.134 291.198 683.967 291.198 Q689.199 291.198 692.231 294.577 Q695.286 297.934 695.286 303.721 M691.027 302.471 Q690.981 298.976 689.06 296.892 Q687.161 294.809 684.013 294.809 Q680.449 294.809 678.296 296.823 Q676.166 298.837 675.842 302.494 L691.027 302.471 Z" fill="#000000" fill-rule="nonzero" fill-opacity="1" /></svg>
